<?xml version="1.0" standalone="no"?>
<!DOCTYPE svg PUBLIC "-//W3C//DTD SVG 1.1//EN" "http://www.w3.org/Graphics/SVG/1.1/DTD/svg11.dtd" >
<svg xmlns="http://www.w3.org/2000/svg" xmlns:xlink="http://www.w3.org/1999/xlink" version="1.1">
<metadata>
Created by FontForge 20201107 at Fri Sep  7 16:43:17 2018
 By 
Copyright 2018 Bai Jamjuree (https://github.com/cadsondemak/Bai-Jamjuree)
</metadata>
<defs>
<font id="BaiJamjuree-Regular" horiz-adv-x="0" >
  <font-face 
    font-family="Bai Jamjuree"
    font-weight="400"
    font-stretch="normal"
    units-per-em="1000"
    panose-1="0 0 5 0 0 0 0 0 0 0"
    ascent="800"
    descent="-200"
    x-height="499"
    cap-height="700"
    bbox="-638 -488 1304 1206"
    underline-thickness="50"
    underline-position="-100"
    unicode-range="U+000D-FB02"
  />
<missing-glyph horiz-adv-x="509" 
d="M50 712h409v-712h-409v712zM392 66v580h-274v-580h274z" />
    <glyph glyph-name="fi" unicode="fi" horiz-adv-x="566" 
d="M490 0h-72v437h-220v-437h-72v437h-86v64h86v37q0 82 42 124t123 42h128v-62h-128q-48 0 -70.5 -25.5t-22.5 -78.5v-37h292v-501z" />
    <glyph glyph-name="fl" unicode="fl" horiz-adv-x="610" 
d="M590 64v-64h-34q-74 0 -106 31.5t-32 104.5v301h-220v-437h-72v437h-86v64h86v37q0 82 42 124t123 42h68v-62h-68q-48 0 -70.5 -25.5t-22.5 -78.5v-37h220v204h72v-569q0 -38 15.5 -55t50.5 -17h34z" />
    <glyph glyph-name="uni0E240E45" unicode="&#xe24;&#xe45;" horiz-adv-x="933" 
d="M809.5 514q43.5 -44 43.5 -116v-598h-72v598q0 44 -23.5 70t-62.5 26h-75q-38 0 -64.5 -25.5t-31.5 -68.5v-600h-72v600q0 42 -26.5 68t-69.5 26h-110q-41 0 -76 -30t-52 -79q35 -17 53.5 -47.5t18.5 -68.5v-93q16 7 34 7q44 0 70 -26t26 -70t-27.5 -70.5t-73.5 -26.5
t-73.5 26.5t-27.5 70.5v182q0 73 -78 88q7 52 36 98t73.5 74.5t94.5 28.5h119q41 0 74 -17t54 -46q22 29 55.5 46t73.5 17h75q71 0 114.5 -44zM184 122q-13 -13 -13 -35t13 -35t35 -13t35 13t13 35t-13 35t-35 13t-35 -13z" />
    <glyph glyph-name="uni0E260E45" unicode="&#xe26;&#xe45;" horiz-adv-x="950" 
d="M826.5 514q43.5 -44 43.5 -116v-598h-72v598q0 44 -23.5 70t-62.5 26h-75q-38 0 -64.5 -25.5t-31.5 -68.5v-600h-72v600q0 42 -26.5 68t-69.5 26h-97q-42 0 -74.5 -29.5t-49.5 -79.5q37 -17 59.5 -48.5t22.5 -67.5v-182q0 -43 -27.5 -70t-71.5 -27t-71.5 27t-27.5 70
q0 44 26.5 70t69.5 26q15 0 30 -5v91q0 32 -24 56.5t-64 31.5q7 52 35 98t71.5 74.5t93.5 28.5h106q41 0 74 -17t54 -46q22 29 55.5 46t73.5 17h75q71 0 114.5 -44zM170 52q13 13 13 35t-13 35t-35 13t-35 -13t-13 -35t13 -35t35 -13t35 13z" />
    <glyph glyph-name=".notdef" horiz-adv-x="509" 
d="M50 712h409v-712h-409v712zM392 66v580h-274v-580h274z" />
    <glyph glyph-name=".null" 
 />
    <glyph glyph-name="nonmarkingreturn" unicode="&#xd;" horiz-adv-x="260" 
 />
    <glyph glyph-name="NULL" 
 />
    <glyph glyph-name="NULL" 
 />
    <glyph glyph-name="space" unicode=" " horiz-adv-x="260" 
 />
    <glyph glyph-name="exclam" unicode="!" horiz-adv-x="272" 
d="M100 700h72v-501h-72v501zM97 5q-15 15 -15 39t15 39t39 15t39 -15t15 -39t-15 -39t-39 -15t-39 15z" />
    <glyph glyph-name="quotedbl" unicode="&#x22;" horiz-adv-x="340" 
d="M56 700h72v-215h-72v215zM212 700h72v-215h-72v215z" />
    <glyph glyph-name="numbersign" unicode="#" horiz-adv-x="691" 
d="M180 183h-124v64h124v203h-124v64h124v186h72v-186h187v186h72v-186h124v-64h-124v-203h124v-64h-124v-183h-72v183h-187v-183h-72v183zM439 247v203h-187v-203h187z" />
    <glyph glyph-name="dollar" unicode="$" horiz-adv-x="627" 
d="M534 318.5q43 -39.5 43 -100.5v-64q0 -73 -56 -117.5t-147 -44.5h-21v-102h-72v102h-22q-60 0 -106 25.5t-71.5 72t-25.5 107.5h72q0 -62 36.5 -100.5t96.5 -38.5h111q59 0 95 26.5t36 69.5v64q0 34 -26.5 58t-72.5 31l-180 30q-76 13 -118 54t-42 103v54
q0 73 54.5 116.5t144.5 43.5h18v102h72v-102h23q85 0 137 -51.5t52 -135.5h-72q0 55 -32 88t-85 33h-113q-57 0 -91 -25.5t-34 -68.5v-54q0 -35 25.5 -59t70.5 -32l179 -31q78 -14 121 -53.5z" />
    <glyph glyph-name="percent" unicode="%" horiz-adv-x="960" 
d="M635 722h72l-376 -747h-72zM93.5 300.5q-37.5 40.5 -37.5 106.5v154q0 66 37.5 106.5t98.5 40.5h56q61 0 98.5 -40.5t37.5 -106.5v-154q0 -66 -37.5 -106.5t-98.5 -40.5h-56q-61 0 -98.5 40.5zM248 317q33 0 53 24.5t20 65.5v154q0 41 -20 65.5t-53 24.5h-56
q-33 0 -53 -24.5t-20 -65.5v-154q0 -41 20 -65.5t53 -24.5h56zM613.5 32.5q-37.5 40.5 -37.5 106.5v154q0 66 37.5 106.5t98.5 40.5h56q61 0 98.5 -40.5t37.5 -106.5v-154q0 -66 -37.5 -106.5t-98.5 -40.5h-56q-61 0 -98.5 40.5zM768 49q33 0 53 24.5t20 65.5v154
q0 41 -20 65.5t-53 24.5h-56q-33 0 -53 -24.5t-20 -65.5v-154q0 -41 20 -65.5t53 -24.5h56z" />
    <glyph glyph-name="ampersand" unicode="&#x26;" horiz-adv-x="647" 
d="M539 0l-59 72q-36 -39 -82.5 -59.5t-100.5 -20.5h-52q-85 0 -137 45t-52 118v41q0 48 20.5 83t54 60t87.5 55l-25 33q-49 65 -49 118v20q0 66 43 104.5t115 38.5h40q65 0 104.5 -38t39.5 -100v-20q0 -35 -13.5 -60.5t-44.5 -49.5t-90 -56l-20 -11l155 -189q26 57 32 127
h66q-6 -106 -51 -184l105 -127h-86zM245 463l33 -44l21 12q49 28 74 46.5t35 35t10 37.5v20q0 34 -21.5 55t-54.5 21h-40q-42 0 -66 -21t-24 -60v-19q0 -39 33 -83zM374 74q36 18 63 51l-178 218q-45 -24 -72 -43t-43 -44t-16 -60v-41q0 -44 32.5 -71.5t84.5 -27.5h52
q41 0 77 18z" />
    <glyph glyph-name="quotesingle" unicode="'" horiz-adv-x="184" 
d="M56 700h72v-215h-72v215z" />
    <glyph glyph-name="parenleft" unicode="(" horiz-adv-x="306" 
d="M89 9.5q-33 107.5 -33 230.5v20q0 127 33 234.5t103 205.5h78q-73 -104 -107.5 -211t-34.5 -229v-20q0 -117 34.5 -224t107.5 -218h-78q-70 104 -103 211.5z" />
    <glyph glyph-name="parenright" unicode=")" horiz-adv-x="306" 
d="M143.5 15q34.5 107 34.5 225v20q0 123 -34.5 230t-107.5 210h78q70 -98 103 -205.5t33 -234.5v-20q0 -123 -33 -230.5t-103 -211.5h-78q73 110 107.5 217z" />
    <glyph glyph-name="asterisk" unicode="*" horiz-adv-x="442" 
d="M190 586l-108 -68l-26 52l118 64l-118 63l26 52l108 -68v115h62v-115l108 68l26 -52l-118 -63l118 -64l-26 -52l-108 68v-115h-62v115z" />
    <glyph glyph-name="plus" unicode="+" horiz-adv-x="568" 
d="M248 293h-192v62h192v192h72v-192h192v-62h-192v-192h-72v192z" />
    <glyph glyph-name="comma" unicode="," horiz-adv-x="216" 
d="M12 -76l15 10q30 20 44.5 46.5t14.5 61.5v49h72v-49q0 -56 -21 -95t-65 -67l-19 -12z" />
    <glyph glyph-name="hyphen" unicode="-" horiz-adv-x="377" 
d="M56 287h265v-64h-265v64z" />
    <glyph glyph-name="period" unicode="." horiz-adv-x="220" 
d="M71 5q-15 15 -15 39t15 39t39 15t39 -15t15 -39t-15 -39t-39 -15t-39 15z" />
    <glyph glyph-name="slash" unicode="/" horiz-adv-x="520" 
d="M412 722h72l-376 -747h-72z" />
    <glyph glyph-name="zero" unicode="0" horiz-adv-x="646" 
d="M164.5 20q-46.5 28 -72.5 79t-26 117v268q0 66 26 117t72.5 79t106.5 28h106q60 0 106 -28t71.5 -79t25.5 -117v-268q0 -66 -25.5 -117t-71.5 -79t-106 -28h-106q-60 0 -106.5 28zM375 58q59 0 95 43.5t36 114.5v268q0 71 -36 114.5t-95 43.5h-102q-59 0 -96 -43.5
t-37 -114.5v-268q0 -71 37 -114.5t96 -43.5h102z" />
    <glyph glyph-name="one" unicode="1" horiz-adv-x="357" 
d="M197 620l-161 -81v70l171 91h64v-700h-74v620z" />
    <glyph glyph-name="two" unicode="2" horiz-adv-x="556" 
d="M52 66q0 55 20 95.5t64 73.5l248 188q52 38 52 92v32q0 43 -29 69t-77 26h-92q-53 0 -84.5 -36.5t-31.5 -97.5h-74q0 91 51.5 145.5t136.5 54.5h94q81 0 130.5 -44t49.5 -117v-32q0 -84 -80 -143l-241 -179q-36 -26 -49.5 -53.5t-13.5 -73.5h394v-66h-468v66z" />
    <glyph glyph-name="three" unicode="3" horiz-adv-x="590" 
d="M514 302q26 -37 26 -87v-40q0 -82 -55 -132.5t-145 -50.5h-97q-58 0 -103 25.5t-69.5 71.5t-24.5 106h72q0 -62 34.5 -99.5t90.5 -37.5h97q57 0 91.5 32t34.5 85v40q0 56 -33.5 83.5t-95.5 27.5h-106v64h106q55 0 85.5 28t30.5 81v40q0 47 -30.5 75t-80.5 28h-97
q-54 0 -87 -37.5t-33 -99.5h-74q0 60 24.5 106t68.5 71.5t101 25.5h97q84 0 134.5 -46t50.5 -123v-40q0 -47 -22.5 -83t-62.5 -56q46 -21 72 -58z" />
    <glyph glyph-name="four" unicode="4" horiz-adv-x="583" 
d="M389 144h-307q-29 0 -42.5 10t-13.5 32v20l367 494h70v-490h88v-66h-88v-144h-74v144zM391 210v380h-1l-282 -380h283z" />
    <glyph glyph-name="five" unicode="5" horiz-adv-x="598" 
d="M108 43.5q-52 51.5 -52 135.5h72q0 -55 32 -88t85 -33h96q58 0 93.5 34.5t35.5 91.5v62q0 53 -36.5 85t-95.5 32h-257v337h437v-66h-363v-205h183q93 0 149.5 -50t56.5 -133v-62q0 -57 -25.5 -100.5t-71.5 -67.5t-106 -24h-96q-85 0 -137 51.5z" />
    <glyph glyph-name="six" unicode="6" horiz-adv-x="606" 
d="M167.5 21q-48.5 29 -75 82t-26.5 122v250q0 108 57 170.5t153 62.5h86q82 0 132 -51.5t50 -135.5h-72q0 55 -30 88t-80 33h-86q-62 0 -99 -44t-37 -123v-124q26 43 71.5 68t93.5 25h65q88 0 141 -55t53 -145v-38q0 -63 -26.5 -111.5t-74.5 -75.5t-111 -27h-73
q-63 0 -111.5 29zM352 58q62 0 100 40.5t38 107.5v40q0 59 -33 95.5t-88 36.5h-66q-59 0 -102 -41.5t-55 -102.5v-36q0 -63 37 -101.5t98 -38.5h71z" />
    <glyph glyph-name="seven" unicode="7" horiz-adv-x="492" 
d="M157 20q0 52 9 101.5t25 85.5l195 427h-366v66h452v-46l-203 -447q-18 -41 -28 -90.5t-10 -96.5v-20h-74v20z" />
    <glyph glyph-name="eight" unicode="8" horiz-adv-x="620" 
d="M104 41.5q-58 49.5 -58 131.5v30q0 50 26.5 90t78.5 66v1q-40 24 -61 59.5t-21 79.5v40q0 76 54.5 122.5t143.5 46.5h86q89 0 143.5 -46.5t54.5 -122.5v-40q0 -44 -21 -79.5t-61 -59.5v-1q105 -52 105 -156v-30q0 -82 -58 -131.5t-153 -49.5h-106q-95 0 -153 49.5z
M353 390q55 0 89.5 30t34.5 79v40q0 46 -34 74.5t-90 28.5h-86q-56 0 -90 -28.5t-34 -74.5v-40q0 -49 34.5 -79t89.5 -30h86zM363 58q62 0 99.5 31.5t37.5 83.5v30q0 55 -40.5 89t-106.5 34h-86q-66 0 -106.5 -34t-40.5 -89v-30q0 -52 37.5 -83.5t99.5 -31.5h106z" />
    <glyph glyph-name="nine" unicode="9" horiz-adv-x="610" 
d="M118.5 42q-51.5 50 -51.5 132h72q0 -53 31.5 -84.5t86.5 -31.5h86q58 0 92.5 41t34.5 112v121q-30 -36 -70.5 -56t-88.5 -20h-67q-89 0 -142.5 55.5t-53.5 147.5v40q0 62 27 109.5t76.5 73.5t114.5 26h70q62 0 109 -25.5t73 -72.5t26 -108v-291q0 -103 -54 -161t-147 -58
h-86q-87 0 -138.5 50zM313 322q57 0 100.5 33.5t56.5 85.5v69q0 59 -37 95.5t-97 36.5h-70q-65 0 -104.5 -39.5t-39.5 -103.5v-40q0 -62 33 -99.5t88 -37.5h70z" />
    <glyph glyph-name="colon" unicode=":" horiz-adv-x="220" 
d="M71 382q-15 15 -15 39t15 39t39 15t39 -15t15 -39t-15 -39t-39 -15t-39 15zM71 40q-15 15 -15 39t15 39t39 15t39 -15t15 -39t-15 -39t-39 -15t-39 15z" />
    <glyph glyph-name="semicolon" unicode=";" horiz-adv-x="227" 
d="M78 382q-15 15 -15 39t15 39t39 15t39 -15t15 -39t-15 -39t-39 -15t-39 15zM12 -76l15 10q30 20 44.5 46.5t14.5 61.5v49h72v-49q0 -56 -21 -95t-65 -67l-19 -12z" />
    <glyph glyph-name="less" unicode="&#x3c;" horiz-adv-x="572" 
d="M36 268v56l480 268v-78l-396 -218l396 -218v-78z" />
    <glyph glyph-name="equal" unicode="=" horiz-adv-x="525" 
d="M56 431h413v-62h-413v62zM56 249h413v-62h-413v62z" />
    <glyph glyph-name="greater" unicode="&#x3e;" horiz-adv-x="572" 
d="M56 78l396 218l-396 218v78l480 -268v-56l-480 -268v78z" />
    <glyph glyph-name="question" unicode="?" horiz-adv-x="564" 
d="M242 218q0 41 15.5 72t37.5 52.5t57 48.5q42 32 62 56t20 57v36q0 46 -31 73.5t-81 27.5h-86q-56 0 -90 -33.5t-34 -88.5h-72q0 85 54 136.5t142 51.5h86q84 0 135 -46t51 -121v-36q0 -35 -13.5 -61.5t-32.5 -45t-51 -43.5t-50.5 -42.5t-31.5 -43t-13 -58.5v-49h-74v57z
M241 5q-15 15 -15 39t15 39t39 15t39 -15t15 -39t-15 -39t-39 -15t-39 15z" />
    <glyph glyph-name="at" unicode="@" horiz-adv-x="872" 
d="M182 3q-60 32 -93 90.5t-33 135.5v199q0 89 37.5 156.5t105 104.5t156.5 37h198q78 0 137.5 -31t92.5 -88t33 -131v-166q0 -80 -33 -123.5t-94 -43.5h-33q-29 0 -54.5 18.5t-38.5 49.5h-1q-19 -35 -53.5 -56.5t-70.5 -21.5h-51q-64 0 -104.5 43.5t-40.5 113.5v95
q0 76 44 122.5t117 46.5h47q28 0 54 -14t42 -37v46h62v-280q0 -28 13.5 -46t37.5 -18h30q29 0 44 27t15 78v166q0 84 -53.5 135t-141.5 51h-198q-69 0 -121.5 -29.5t-81 -82.5t-28.5 -122v-199q0 -87 54.5 -140.5t142.5 -53.5h176q41 0 85.5 13t75.5 34l35 -52
q-31 -26 -86 -42.5t-113 -16.5h-173q-79 0 -139 32zM438 193q43 0 70 30t32 80v101q-4 41 -28 65.5t-60 24.5h-47q-43 0 -69 -30t-26 -79v-95q0 -43 22 -70t55 -27h51z" />
    <glyph glyph-name="A" unicode="A" horiz-adv-x="647" 
d="M477 194h-307l-72 -194h-76l269 700h34q33 0 48 -40l154 -404h1v-2l97 -254h-76zM193 256h261l-130 348h-1z" />
    <glyph glyph-name="B" unicode="B" horiz-adv-x="662" 
d="M98 18q-18 18 -18 47v635h296q89 0 143.5 -42.5t54.5 -112.5v-53q0 -37 -17 -70.5t-47 -53.5v-1q49 -13 78.5 -50.5t29.5 -87.5v-48q0 -82 -52 -131.5t-141 -49.5h-280q-29 0 -47 18zM396 384q47 0 75.5 29.5t28.5 78.5v53q0 40 -34.5 64.5t-89.5 24.5h-222v-250h242z
M415 66q60 0 94.5 31.5t34.5 83.5v48q0 42 -30 67.5t-79 25.5h-281v-256h261z" />
    <glyph glyph-name="C" unicode="C" horiz-adv-x="660" 
d="M168.5 24q-51.5 32 -80 89.5t-28.5 132.5v208q0 75 28.5 133t81 89.5t121.5 31.5h106q65 0 114.5 -28t77 -79t27.5 -117h-72q0 71 -40.5 114.5t-106.5 43.5h-106q-71 0 -114 -51.5t-43 -136.5v-208q0 -85 42 -136.5t111 -51.5h108q68 0 109.5 48t41.5 126h72
q0 -71 -28 -125.5t-78.5 -84.5t-116.5 -30h-108q-67 0 -118.5 32z" />
    <glyph glyph-name="D" unicode="D" horiz-adv-x="674" 
d="M97 17q-17 17 -17 48v635h290q74 0 130 -28.5t87 -81t31 -120.5v-220q0 -123 -62 -186.5t-182 -63.5h-229q-31 0 -48 17zM372 66q85 0 128.5 46.5t43.5 137.5v220q0 73 -48.5 118.5t-127.5 45.5h-214v-568h218z" />
    <glyph glyph-name="E" unicode="E" horiz-adv-x="600" 
d="M97 17.5q-17 17.5 -17 48.5v634h470v-64h-396v-246h366v-64h-366v-262h396v-64h-405q-31 0 -48 17.5z" />
    <glyph glyph-name="F" unicode="F" horiz-adv-x="576" 
d="M80 700h460v-66h-386v-256h349v-66h-349v-312h-74v700z" />
    <glyph glyph-name="G" unicode="G" horiz-adv-x="684" 
d="M168.5 23.5q-51.5 31.5 -80 89.5t-28.5 133v208q0 75 29.5 132.5t82.5 89.5t122 32h106q66 0 116.5 -28t78.5 -79t28 -117h-72q0 71 -41.5 114.5t-109.5 43.5h-106q-72 0 -116 -51.5t-44 -136.5v-208q0 -85 42.5 -136.5t112.5 -51.5h108q71 0 115 49t44 129v60h-194v65
h266v-125q0 -72 -28.5 -127.5t-81 -86t-121.5 -30.5h-108q-69 0 -120.5 31.5z" />
    <glyph glyph-name="H" unicode="H" horiz-adv-x="694" 
d="M80 700h74v-314h386v314h74v-700h-74v320h-386v-320h-74v700z" />
    <glyph glyph-name="I" unicode="I" horiz-adv-x="254" 
d="M90 700h74v-700h-74v700z" />
    <glyph glyph-name="J" unicode="J" horiz-adv-x="578" 
d="M125 20.5q-43 28.5 -67 80t-24 118.5h74q0 -73 32 -117t85 -44h87q56 0 88 46t32 128v468h74v-468q0 -113 -51 -176.5t-143 -63.5h-87q-57 0 -100 28.5z" />
    <glyph glyph-name="K" unicode="K" horiz-adv-x="630" 
d="M512 0l-270 335l-88 -93v-242h-74v700h74v-366l340 366h92l-293 -311l311 -389h-92z" />
    <glyph glyph-name="L" unicode="L" horiz-adv-x="560" 
d="M97 17q-17 17 -17 48v635h74v-634h380v-66h-389q-31 0 -48 17z" />
    <glyph glyph-name="M" unicode="M" horiz-adv-x="795" 
d="M80 700h71l250 -465l243 465h71v-700h-73v562l-202 -384q-11 -20 -19 -27.5t-18 -7.5h-22l-228 419v-562h-73v700z" />
    <glyph glyph-name="N" unicode="N" horiz-adv-x="690" 
d="M80 700h70l388 -583v583h72v-700h-70l-388 579v-579h-72v700z" />
    <glyph glyph-name="O" unicode="O" horiz-adv-x="696" 
d="M172 23q-53 31 -82.5 88t-29.5 132v214q0 75 29.5 132t82.5 88t123 31h106q70 0 123 -31t82.5 -88t29.5 -132v-214q0 -75 -29.5 -131.5t-83 -88t-122.5 -31.5h-107q-69 0 -122 31zM399 58q73 0 118 51t45 134v214q0 83 -45 134t-118 51h-102q-73 0 -118 -51t-45 -134
v-214q0 -83 44.5 -134t117.5 -51h103z" />
    <glyph glyph-name="P" unicode="P" horiz-adv-x="624" 
d="M80 700h339q78 0 125.5 -44t47.5 -116v-103q0 -77 -51 -124.5t-134 -47.5h-253v-265h-74v700zM405 331q51 0 82 29.5t31 78.5v103q0 41 -27.5 66.5t-73.5 25.5h-263v-303h251z" />
    <glyph glyph-name="Q" unicode="Q" horiz-adv-x="700" 
d="M622 -32l-77 76q-65 -52 -150 -52h-104q-69 0 -121.5 31t-81 88t-28.5 132v214q0 75 29.5 131.5t83.5 88t123 31.5h106q69 0 122 -31t82.5 -88t29.5 -132v-212q0 -87 -46 -152l78 -77zM496 93l-102 100l46 48l98 -97q24 45 24 101v212q0 83 -44.5 134t-117.5 51h-102
q-73 0 -118.5 -51t-45.5 -134v-214q0 -84 43.5 -134.5t115.5 -50.5h100q60 0 103 35z" />
    <glyph glyph-name="R" unicode="R" horiz-adv-x="650" 
d="M80 700h340q77 0 123.5 -43.5t46.5 -114.5v-73q0 -53 -34 -93.5t-91 -57.5v-1q30 -16 54.5 -51t37.5 -79l55 -187h-76l-55 187q-14 49 -48.5 79t-75.5 30h-203v-296h-74v700zM394 362q55 0 88.5 29.5t33.5 77.5v77q0 40 -27 64t-71 24h-264v-272h240z" />
    <glyph glyph-name="S" unicode="S" horiz-adv-x="627" 
d="M153 17.5q-46 25.5 -71.5 72t-25.5 107.5h72q0 -62 36.5 -100.5t96.5 -38.5h111q59 0 95 26.5t36 69.5v64q0 34 -26.5 58t-72.5 31l-180 30q-76 13 -118 54t-42 103v54q0 73 54.5 116.5t144.5 43.5h113q85 0 137 -51.5t52 -135.5h-72q0 55 -32 88t-85 33h-113
q-57 0 -91 -25.5t-34 -68.5v-54q0 -35 25.5 -59t70.5 -32l179 -31q78 -14 121 -53.5t43 -100.5v-64q0 -73 -56 -117.5t-147 -44.5h-115q-60 0 -106 25.5z" />
    <glyph glyph-name="T" unicode="T" horiz-adv-x="578" 
d="M252 636h-222v64h518v-64h-222v-636h-74v636z" />
    <glyph glyph-name="U" unicode="U" horiz-adv-x="692" 
d="M179 20.5q-49 28.5 -76 81t-27 120.5v478h74v-480q0 -73 39 -117.5t103 -44.5h108q64 0 103 44.5t39 117.5v480h74v-478q0 -68 -27 -120.5t-76 -81t-113 -28.5h-108q-64 0 -113 28.5z" />
    <glyph glyph-name="V" unicode="V" horiz-adv-x="634" 
d="M282.5 11q-12.5 11 -21.5 35l-239 654h76l218 -611h1l219 611h76l-260 -700h-38q-19 0 -31.5 11z" />
    <glyph glyph-name="W" unicode="W" horiz-adv-x="844" 
d="M175 15.5q-16 15.5 -22 49.5l-119 635h73l109 -604h1l176 567h31q18 0 29 -10.5t18 -32.5l156 -524h1l109 604h73l-119 -635q-6 -34 -22 -49.5t-44 -15.5h-30l-170 564h-1l-175 -564h-30q-28 0 -44 15.5z" />
    <glyph glyph-name="X" unicode="X" horiz-adv-x="611" 
d="M264 357l-238 343h83l197 -282l197 282h82l-238 -343l248 -357h-83l-206 297l-207 -297h-83z" />
    <glyph glyph-name="Y" unicode="Y" horiz-adv-x="622" 
d="M274 269l-258 431h80l215 -364l215 364h80l-258 -431v-269h-74v269z" />
    <glyph glyph-name="Z" unicode="Z" horiz-adv-x="578" 
d="M40 33l396 604h-378v63h480v-33l-396 -604h386v-63h-488v33z" />
    <glyph glyph-name="bracketleft" unicode="[" horiz-adv-x="313" 
d="M123.5 -164q-43.5 43 -43.5 120v616q0 77 43.5 120t119.5 43h34v-64h-34q-43 0 -67 -26t-24 -73v-616q0 -46 24 -72t67 -26h34v-65h-34q-76 0 -119.5 43z" />
    <glyph glyph-name="backslash" unicode="\" horiz-adv-x="514" 
d="M36 722h72l370 -747h-72z" />
    <glyph glyph-name="bracketright" unicode="]" horiz-adv-x="313" 
d="M36 -142h34q43 0 67 26t24 72v616q0 47 -24 73t-67 26h-34v64h34q77 0 120 -43t43 -120v-616q0 -77 -43 -120t-120 -43h-34v65z" />
    <glyph glyph-name="asciicircum" unicode="^" horiz-adv-x="549" 
d="M235 700h80l178 -335h-76l-142 273l-143 -273h-76z" />
    <glyph glyph-name="underscore" unicode="_" horiz-adv-x="530" 
d="M0 -8h530v-64h-530v64z" />
    <glyph glyph-name="grave" unicode="`" horiz-adv-x="265" 
d="M50 732h82l83 -152h-66z" />
    <glyph glyph-name="a" unicode="a" horiz-adv-x="556" 
d="M103.5 30q-43.5 38 -43.5 102v32q0 63 45 101t119 38h64q33 0 68 -10t60 -27v83q0 42 -26 68.5t-69 26.5h-80q-43 0 -69 -20t-26 -53h-72q0 61 46 98.5t121 37.5h80q74 0 119.5 -43.5t45.5 -114.5v-349h-68v70q-23 -36 -60.5 -57t-77.5 -21h-60q-73 0 -116.5 38zM282 55
q47 0 84 29t50 77v37q-20 19 -55.5 30.5t-72.5 11.5h-64q-41 0 -66.5 -21t-25.5 -55v-32q0 -35 24 -56t64 -21h62z" />
    <glyph glyph-name="b" unicode="b" horiz-adv-x="578" 
d="M203 12.5q-37 20.5 -57 51.5v-64h-70v700h72v-260q22 31 56.5 49t71.5 18h71q51 0 90.5 -23.5t62 -66t22.5 -97.5v-129q0 -59 -22.5 -104t-63 -70t-93.5 -25h-70q-33 0 -70 20.5zM341 56q48 0 78.5 37.5t30.5 97.5v129q0 55 -29.5 89t-75.5 34h-67q-52 0 -89 -38
t-41 -100v-122q2 -35 20 -64t46 -46t59 -17h68z" />
    <glyph glyph-name="c" unicode="c" horiz-adv-x="536" 
d="M106 41.5q-50 49.5 -50 131.5v143q0 86 50 138.5t131 52.5h82q77 0 124 -43t47 -113h-70q0 41 -27.5 66.5t-73.5 25.5h-82q-49 0 -79 -35t-30 -92v-143q0 -53 30.5 -85t79.5 -32h82q47 0 75.5 33t28.5 88h70q0 -83 -48 -134t-126 -51h-82q-82 0 -132 49.5z" />
    <glyph glyph-name="d" unicode="d" horiz-adv-x="578" 
d="M140 16q-40 24 -62 67t-22 100v120q0 60 23 106.5t65 72t96 25.5h74q34 0 65.5 -16t50.5 -44v253h72v-700h-70v74q-23 -37 -60 -59.5t-72 -22.5h-69q-51 0 -91 24zM298 56q32 0 62 20.5t49 53.5t21 68v126q-7 53 -39.5 86t-78.5 33h-70q-51 0 -82.5 -38.5t-31.5 -101.5
v-120q0 -56 29.5 -91.5t75.5 -35.5h65z" />
    <glyph glyph-name="e" unicode="e" horiz-adv-x="552" 
d="M107 41.5q-51 49.5 -51 131.5v143q0 86 51 138.5t135 52.5h82q80 0 129 -51t49 -135v-88h-374v-60q0 -52 31.5 -84.5t82.5 -32.5h76q50 0 81 27.5t31 73.5h70q0 -74 -50 -119.5t-132 -45.5h-76q-84 0 -135 49.5zM430 295v26q0 55 -29 88.5t-77 33.5h-82q-51 0 -82.5 -35
t-31.5 -92v-21h302z" />
    <glyph glyph-name="f" unicode="f" horiz-adv-x="359" 
d="M126 435h-86v64h86v39q0 82 42 124t123 42h38v-62h-38q-48 0 -70.5 -25.5t-22.5 -78.5v-39h120v-64h-120v-435h-72v435z" />
    <glyph glyph-name="g" unicode="g" horiz-adv-x="578" 
d="M129 -167.5q-43 35.5 -48 93.5h72q4 -30 27.5 -48.5t57.5 -18.5h83q52 0 80.5 34.5t28.5 96.5v77q-22 -30 -57.5 -48.5t-68.5 -18.5h-73q-51 0 -91 24t-62 67t-22 100v117q0 89 51.5 144t135.5 55h70q32 0 66 -18t53 -46v56h70v-509q0 -91 -48 -142t-133 -51h-83
q-66 0 -109 35.5zM304 64q50 0 85.5 39.5t40.5 100.5v123q-4 51 -37.5 83.5t-79.5 32.5h-68q-53 0 -85 -37t-32 -98v-117q0 -56 29.5 -91.5t75.5 -35.5h71z" />
    <glyph glyph-name="h" unicode="h" horiz-adv-x="574" 
d="M76 700h72v-270q23 35 59 56t73 21h70q69 0 111.5 -47t42.5 -123v-337h-72v339q0 46 -23 75t-61 29h-66q-47 0 -85.5 -36.5t-48.5 -93.5v-313h-72v700z" />
    <glyph glyph-name="i" unicode="i" horiz-adv-x="260" 
d="M91 589q-15 15 -15 39t15 39t39 15t39 -15t15 -39t-15 -39t-39 -15t-39 15zM94 499h72v-499h-72v499z" />
    <glyph glyph-name="j" unicode="j" horiz-adv-x="266" 
d="M97 589q-15 15 -15 39t15 39t39 15t39 -15t15 -39t-15 -39t-39 -15t-39 15zM-32 -135h35q52 0 74.5 28t22.5 92v514h72v-509q0 -101 -39 -145t-130 -44h-35v64z" />
    <glyph glyph-name="k" unicode="k" horiz-adv-x="511" 
d="M413 0l-196 236l-69 -69v-167h-72v700h72v-445l247 244h88l-216 -214l232 -285h-86z" />
    <glyph glyph-name="l" unicode="l" horiz-adv-x="268" 
d="M108 31.5q-32 31.5 -32 104.5v564h72v-564q0 -38 15.5 -55t50.5 -17h34v-64h-34q-74 0 -106 31.5z" />
    <glyph glyph-name="m" unicode="m" horiz-adv-x="836" 
d="M727.5 464.5q38.5 -42.5 38.5 -117.5v-347h-72v349q0 44 -20 69t-53 25h-57q-43 0 -71 -29t-36 -82v-332h-72v343q0 47 -18.5 73.5t-50.5 26.5h-57q-41 0 -72 -36t-39 -94v-313h-72v499h70v-72q20 38 50 59t63 21h59q42 0 72.5 -20.5t46.5 -59.5q23 40 55 60t70 20h61
q66 0 104.5 -42.5z" />
    <glyph glyph-name="n" unicode="n" horiz-adv-x="572" 
d="M76 499h70v-74q23 36 60 59t74 23h68q69 0 111.5 -47t42.5 -123v-337h-72v339q0 46 -23 75t-61 29h-64q-47 0 -85.5 -37t-48.5 -95v-311h-72v499z" />
    <glyph glyph-name="o" unicode="o" horiz-adv-x="570" 
d="M107 44q-51 52 -51 137v137q0 85 51.5 137t136.5 52h82q85 0 136.5 -52t51.5 -137v-137q0 -85 -52 -137t-138 -52h-82q-84 0 -135 52zM324 56q54 0 86 34.5t32 90.5v137q0 56 -32 90.5t-84 34.5h-82q-52 0 -84 -34.5t-32 -90.5v-137q0 -57 31 -91t83 -34h82z" />
    <glyph glyph-name="p" unicode="p" horiz-adv-x="578" 
d="M76 499h70v-68q21 34 55.5 55t69.5 21h72q80 0 129.5 -51t49.5 -135v-123q0 -93 -50.5 -149.5t-133.5 -56.5h-72q-31 0 -65 17.5t-53 45.5v-254h-72v698zM336 56q52 0 83 39t31 103v123q0 55 -30 88.5t-79 33.5h-70q-42 0 -76 -32.5t-47 -83.5v-150q7 -53 41 -87t81 -34
h66z" />
    <glyph glyph-name="q" unicode="q" horiz-adv-x="578" 
d="M430 59q-21 -30 -56.5 -48.5t-69.5 -18.5h-73q-79 0 -127 52.5t-48 137.5v125q0 90 51 145t134 55h72q33 0 66.5 -17.5t52.5 -46.5v56h70v-702h-72v262zM304 56q50 0 86 39t40 99v133q-4 51 -37.5 83.5t-79.5 32.5h-72q-51 0 -82 -37.5t-31 -98.5v-125q0 -57 29 -91.5
t76 -34.5h71z" />
    <glyph glyph-name="r" unicode="r" horiz-adv-x="355" 
d="M76 499h70v-77q20 35 60.5 57t84.5 22h44v-65h-44q-64 0 -103.5 -40.5t-39.5 -107.5v-288h-72v499z" />
    <glyph glyph-name="s" unicode="s" horiz-adv-x="520" 
d="M96 35q-46 43 -46 113h70q0 -42 27 -68t71 -26h87q43 0 70 17.5t27 45.5v34q0 19 -15 33.5t-39 19.5l-173 30q-52 9 -83.5 39.5t-31.5 71.5v33q0 58 44 93.5t116 35.5h86q70 0 113 -39.5t43 -104.5h-70q-1 37 -24.5 59.5t-61.5 22.5h-86q-40 0 -64 -18.5t-24 -48.5v-29
q0 -19 16.5 -34t42.5 -19l172 -30q50 -9 80.5 -39t30.5 -72v-40q0 -55 -46.5 -89t-122.5 -34h-87q-76 0 -122 43z" />
    <glyph glyph-name="t" unicode="t" horiz-adv-x="382" 
d="M158.5 34q-34.5 34 -34.5 112v289h-88v64h88v151h72v-151h130v-64h-130v-289q0 -44 17.5 -63t58.5 -19h54v-64h-54q-79 0 -113.5 34z" />
    <glyph glyph-name="u" unicode="u" horiz-adv-x="570" 
d="M113 39q-43 47 -43 123v337h72v-339q0 -47 23 -75.5t60 -28.5h62q46 0 85 37t50 93v313h72v-499h-70v76q-23 -36 -61 -60t-74 -24h-64q-69 0 -112 47z" />
    <glyph glyph-name="v" unicode="v" horiz-adv-x="493" 
d="M188 51l-172 448h76l154 -420h1l154 420h76l-194 -499h-34q-42 0 -61 51z" />
    <glyph glyph-name="w" unicode="w" horiz-adv-x="723" 
d="M691 499l-108 -441q-8 -30 -22 -44t-38 -14h-34l-125 377l-129 -377h-34q-23 0 -38 14t-22 44l-109 441h76l93 -419l135 405h26q29 0 39 -32l122 -370l92 416h76z" />
    <glyph glyph-name="x" unicode="x" horiz-adv-x="490" 
d="M204 255l-180 244h82l139 -188l139 188h82l-180 -244l188 -255h-82l-147 199l-147 -199h-82z" />
    <glyph glyph-name="y" unicode="y" horiz-adv-x="572" 
d="M128 -167.5q-43 35.5 -48 93.5h72q4 -30 27.5 -48.5t57.5 -18.5h78q52 0 80.5 34.5t28.5 96.5v92q-24 -36 -60.5 -59t-72.5 -23h-64q-70 0 -113.5 47t-43.5 123v329h72v-331q0 -47 23.5 -75.5t61.5 -28.5h62q46 0 85 37t50 93v305h72v-509q0 -91 -48 -142t-133 -51h-78
q-66 0 -109 35.5z" />
    <glyph glyph-name="z" unicode="z" horiz-adv-x="472" 
d="M36 32l296 406h-284v61h388v-32l-296 -406h291v-61h-395v32z" />
    <glyph glyph-name="braceleft" unicode="{" horiz-adv-x="370" 
d="M181 -189q-42 42 -42 117v193q0 40 -22 67.5t-61 36.5v54q39 9 61 36.5t22 67.5v193q0 75 42 117t117 42h36v-64h-29q-44 0 -69 -26t-25 -73v-189q0 -44 -21 -79t-59 -52q38 -17 59 -52t21 -79v-189q0 -47 25 -73t69 -26h29v-64h-36q-75 0 -117 42z" />
    <glyph glyph-name="bar" unicode="|" horiz-adv-x="244" 
d="M86 847h72v-994h-72v994z" />
    <glyph glyph-name="braceright" unicode="}" horiz-adv-x="370" 
d="M36 -167h29q44 0 69 26t25 73v189q0 44 21 79t59 52q-38 17 -59 52t-21 79v189q0 47 -25 73t-69 26h-29v64h36q75 0 117 -42t42 -117v-193q0 -40 22 -67.5t61 -36.5v-54q-39 -9 -61 -36.5t-22 -67.5v-193q0 -75 -42 -117t-117 -42h-36v64z" />
    <glyph glyph-name="asciitilde" unicode="~" horiz-adv-x="601" 
d="M326.5 248q-25.5 19 -53.5 54q-21 25 -35 36.5t-32 11.5h-20q-25 0 -41.5 -29.5t-18.5 -77.5h-70q1 77 37 124t93 47h20q39 0 64 -18.5t53 -52.5q21 -26 36 -38t34 -12h20q26 0 43 30t19 79h70q-1 -78 -37.5 -125.5t-94.5 -47.5h-20q-41 0 -66.5 19z" />
    <glyph glyph-name="uni00A0" unicode="&#xa0;" horiz-adv-x="260" 
 />
    <glyph glyph-name="exclamdown" unicode="&#xa1;" horiz-adv-x="272" 
d="M175 492q15 -15 15 -39t-15 -39t-39 -15t-39 15t-15 39t15 39t39 15t39 -15zM172 298v-501h-72v501h72z" />
    <glyph glyph-name="cent" unicode="&#xa2;" horiz-adv-x="536" 
d="M494 177q0 -83 -48 -134t-126 -51h-11v-102h-72v102q-81 0 -131 49.5t-50 131.5v143q0 86 50 138.5t131 52.5v100h72v-100h10q77 0 124 -43t47 -113h-70q0 41 -27.5 66.5t-73.5 25.5h-82q-49 0 -79 -35t-30 -92v-143q0 -53 30.5 -85t79.5 -32h82q47 0 75.5 33t28.5 88h70
z" />
    <glyph glyph-name="sterling" unicode="&#xa3;" horiz-adv-x="647" 
d="M220 66h379v-66h-543v66h90v216h-80v66h80v146q0 63 23.5 111.5t66 75.5t98.5 27h86q79 0 128 -52t51 -138h-72q-2 56 -31.5 90t-75.5 34h-86q-51 0 -82.5 -40.5t-31.5 -107.5v-146h216v-66h-216v-216z" />
    <glyph glyph-name="currency" unicode="&#xa4;" horiz-adv-x="688" 
d="M56 90l68 67q-26 33 -41 78.5t-15 93.5t15 93.5t41 78.5l-68 68l46 48l71 -70q34 23 78.5 36t90.5 13q47 0 92.5 -13.5t79.5 -37.5l72 72l46 -48l-70 -69q26 -31 40.5 -76t14.5 -95q0 -49 -14.5 -94t-40.5 -76l70 -69l-46 -46l-71 70q-34 -24 -79.5 -37.5t-93.5 -13.5
q-45 0 -90 13.5t-80 36.5l-70 -69zM491.5 180.5q53.5 53.5 53.5 148.5q0 96 -53.5 149.5t-149.5 53.5q-95 0 -148.5 -53.5t-53.5 -149.5q0 -95 53.5 -148.5t148.5 -53.5q96 0 149.5 53.5z" />
    <glyph glyph-name="yen" unicode="&#xa5;" horiz-adv-x="622" 
d="M383 328h158v-60h-193v-84h193v-60h-193v-124h-74v124h-182v60h182v84h-182v60h147l-223 372h80l215 -364l215 364h80z" />
    <glyph glyph-name="brokenbar" unicode="&#xa6;" horiz-adv-x="244" 
d="M86 847h72v-412h-72v412zM86 265h72v-412h-72v412z" />
    <glyph glyph-name="section" unicode="&#xa7;" horiz-adv-x="558" 
d="M479.5 260q-22.5 -26 -61.5 -41q32 -15 48 -40t16 -56v-32q0 -55 -46 -89.5t-118 -34.5h-82q-71 0 -113.5 39.5t-42.5 104.5h70q1 -37 24 -59.5t62 -22.5h82q40 0 66 17t26 45v31q0 20 -19 37.5t-50 24.5l-175 44q-52 14 -81 46t-29 76v21q0 68 78 101q-28 16 -43 38.5
t-15 47.5v31q0 58 44 93.5t116 35.5h82q72 0 116 -39.5t44 -104.5h-70q-1 37 -25.5 59.5t-64.5 22.5h-82q-40 0 -64 -18.5t-24 -48.5v-23q0 -25 19 -40t55 -25l170 -45q52 -13 81 -44t29 -72v-21q0 -33 -22.5 -59zM430 340q0 18 -14.5 32.5t-39.5 21.5l-180 49
q-31 -5 -49.5 -24.5t-18.5 -45.5v-23q0 -22 14.5 -38t39.5 -22l160 -42q38 6 63 24.5t25 44.5v23z" />
    <glyph glyph-name="dieresis" unicode="&#xa8;" horiz-adv-x="397" 
d="M63.5 593.5q-13.5 13.5 -13.5 35.5t13.5 35.5t35.5 13.5t35.5 -13.5t13.5 -35.5t-13.5 -35.5t-35.5 -13.5t-35.5 13.5zM262.5 593.5q-13.5 13.5 -13.5 35.5t13.5 35.5t35.5 13.5t35.5 -13.5t13.5 -35.5t-13.5 -35.5t-35.5 -13.5t-35.5 13.5z" />
    <glyph glyph-name="copyright" unicode="&#xa9;" horiz-adv-x="758" 
d="M210 60q-73 41 -113.5 116t-40.5 173t40.5 173t113.5 116t169 41t169 -41t113.5 -116t40.5 -173t-40.5 -173t-113.5 -116t-169 -41t-169 41zM516.5 109q59.5 34 92.5 96.5t33 143.5t-33 143.5t-92.5 96.5t-137.5 34t-137.5 -34t-92.5 -96.5t-33 -143.5t33 -143.5
t92.5 -96.5t137.5 -34t137.5 34zM259.5 191.5q-34.5 38.5 -34.5 101.5v114q0 62 35 100.5t92 38.5h58q54 0 87 -34t33 -89h-60q0 31 -16.5 50t-43.5 19h-58q-29 0 -47 -23.5t-18 -61.5v-114q0 -39 17 -62.5t46 -23.5h59q28 0 45 21.5t17 56.5h61q0 -59 -34 -95.5t-89 -36.5
h-59q-56 0 -90.5 38.5z" />
    <glyph glyph-name="ordfeminine" unicode="&#xaa;" horiz-adv-x="422" 
d="M87 370.5q-31 27.5 -31 71.5v22q0 44 31.5 71t83.5 27h46q18 0 39.5 -5.5t37.5 -16.5v54q0 25 -15 40.5t-39 15.5h-57q-25 0 -40 -11t-15 -29h-62q0 43 32 69.5t85 26.5h57q52 0 84 -31t32 -81v-245h-61v46q-15 -24 -38.5 -38t-45.5 -14h-42q-51 0 -82 27.5zM212 398
q29 0 51.5 17.5t30.5 46.5v22q-10 9 -32.5 16t-46.5 7h-44q-23 0 -37 -11.5t-14 -31.5v-22q0 -20 13.5 -32t35.5 -12h43z" />
    <glyph glyph-name="guillemotleft" unicode="&#xab;" horiz-adv-x="556" 
d="M36 268l264 260v-88l-176 -172l176 -174v-86zM236 268l264 260v-88l-176 -172l176 -174v-86z" />
    <glyph glyph-name="logicalnot" unicode="&#xac;" horiz-adv-x="659" 
d="M531 365h-475v64h547v-272h-72v208z" />
    <glyph glyph-name="uni00AD" unicode="&#xad;" horiz-adv-x="377" 
d="M56 287h265v-64h-265v64z" />
    <glyph glyph-name="registered" unicode="&#xae;" horiz-adv-x="758" 
d="M210 60q-73 41 -113.5 116t-40.5 173t40.5 173t113.5 116t169 41t169 -41t113.5 -116t40.5 -173t-40.5 -173t-113.5 -116t-169 -41t-169 41zM516.5 109q59.5 34 92.5 96.5t33 143.5t-33 143.5t-92.5 96.5t-137.5 34t-137.5 -34t-92.5 -96.5t-33 -143.5t33 -143.5
t92.5 -96.5t137.5 -34t137.5 34zM245 542h171q49 0 79 -24.5t30 -64.5v-38q0 -28 -18.5 -50t-49.5 -32v-1q18 -8 29.5 -24.5t20.5 -47.5l30 -103h-62l-31 103q-7 26 -21 38.5t-36 12.5h-80v-154h-62v385zM400 365q30 0 46.5 13.5t16.5 36.5v38q0 16 -13 25.5t-34 9.5h-109
v-123h93z" />
    <glyph glyph-name="macron" unicode="&#xaf;" horiz-adv-x="355" 
d="M50 642h255v-52h-255v52z" />
    <glyph glyph-name="degree" unicode="&#xb0;" horiz-adv-x="378" 
d="M92.5 480.5q-36.5 36.5 -36.5 95.5t36.5 95.5t96.5 36.5t96.5 -36.5t36.5 -95.5t-36.5 -95.5t-96.5 -36.5t-96.5 36.5zM245.5 519q21.5 22 21.5 57t-21.5 57t-56.5 22t-56.5 -22t-21.5 -57t21.5 -57t56.5 -22t56.5 22z" />
    <glyph glyph-name="plusminus" unicode="&#xb1;" horiz-adv-x="568" 
d="M248 323h-192v62h192v196h72v-196h192v-62h-192v-196h-72v196zM56 62h456v-62h-456v62z" />
    <glyph glyph-name="uni00B2" unicode="&#xb2;" horiz-adv-x="374" 
d="M50 329q0 37 10.5 62.5t37.5 45.5l128 98q16 13 23 24.5t7 30.5v19q0 18 -11.5 29t-30.5 11h-54q-22 0 -35.5 -16.5t-13.5 -44.5h-63q0 53 29.5 85t79.5 32h57q48 0 77 -26.5t29 -69.5v-20q0 -29 -10.5 -49.5t-33.5 -37.5l-124 -93q-21 -15 -29.5 -30.5t-8.5 -34.5h212
v-55h-276v40z" />
    <glyph glyph-name="uni00B3" unicode="&#xb3;" horiz-adv-x="387" 
d="M323.5 466q13.5 -23 13.5 -51v-23q0 -49 -32.5 -78.5t-85.5 -29.5h-57q-52 0 -84 33t-32 86h62q0 -28 15 -45.5t39 -17.5h57q24 0 39 14.5t15 37.5v23q0 26 -15.5 41.5t-40.5 15.5h-62v54h62q22 0 35 15.5t13 40.5v24q0 19 -12.5 31t-32.5 12h-57q-23 0 -37.5 -17.5
t-14.5 -45.5h-62q0 53 31.5 86t82.5 33h57q49 0 79 -27.5t30 -71.5v-24q0 -27 -11.5 -48t-32.5 -33q25 -12 38.5 -35z" />
    <glyph glyph-name="acute" unicode="&#xb4;" horiz-adv-x="265" 
d="M133 732h82l-99 -152h-66z" />
    <glyph glyph-name="paragraph" unicode="&#xb6;" horiz-adv-x="578" 
d="M492 700v-700h-74v345h-80v-345h-74v345h-45q-69 0 -111 41t-42 109v55q0 68 42 109t111 41h273z" />
    <glyph glyph-name="periodcentered" unicode="&#xb7;" horiz-adv-x="220" 
d="M71 218q-15 15 -15 39t15 39t39 15t39 -15t15 -39t-15 -39t-39 -15t-39 15z" />
    <glyph glyph-name="cedilla" unicode="&#xb8;" horiz-adv-x="260" 
d="M50 -175h53q22 0 36 9.5t14 24.5v11q0 15 -12.5 24.5t-32.5 9.5h-47v44l28 66h59l-31 -68h7q39 0 62.5 -21t23.5 -55v-11q0 -37 -29 -59.5t-76 -22.5h-55v48z" />
    <glyph glyph-name="uni00B9" unicode="&#xb9;" horiz-adv-x="251" 
d="M125 636l-95 -50v60l101 54h58v-411h-64v347z" />
    <glyph glyph-name="ordmasculine" unicode="&#xba;" horiz-adv-x="435" 
d="M92 379.5q-36 36.5 -36 96.5v97q0 60 36.5 96.5t95.5 36.5h59q59 0 95.5 -36.5t36.5 -96.5v-97q0 -60 -36.5 -96.5t-95.5 -36.5h-60q-59 0 -95 36.5zM246 399q31 0 50 21.5t19 55.5v97q0 35 -18.5 56t-49.5 21h-59q-31 0 -49.5 -21t-18.5 -56v-97q0 -34 18.5 -55.5
t48.5 -21.5h59z" />
    <glyph glyph-name="guillemotright" unicode="&#xbb;" horiz-adv-x="556" 
d="M56 94l176 174l-176 172v88l264 -260l-264 -260v86zM256 94l176 174l-176 172v88l264 -260l-264 -260v86z" />
    <glyph glyph-name="onequarter" unicode="&#xbc;" horiz-adv-x="784" 
d="M151 636l-95 -50v60l101 54h58v-411h-64v347zM531 722h68l-382 -747h-68zM620 78h-172q-31 0 -31 26v30l204 277h63v-277h44v-56h-44v-78h-64v78zM623 132v194h-2l-143 -194h145z" />
    <glyph glyph-name="onehalf" unicode="&#xbd;" horiz-adv-x="832" 
d="M151 636l-95 -50v60l101 54h58v-411h-64v347zM500 40q0 37 10.5 62.5t37.5 45.5l128 98q16 13 23 24.5t7 30.5v19q0 18 -11.5 29t-30.5 11h-54q-22 0 -35.5 -16.5t-13.5 -44.5h-63q0 53 29.5 85t79.5 32h57q48 0 77 -26.5t29 -69.5v-20q0 -29 -10.5 -49.5t-33.5 -37.5
l-124 -93q-21 -15 -29.5 -30.5t-8.5 -34.5h212v-55h-276v40zM531 722h68l-382 -747h-68z" />
    <glyph glyph-name="threequarters" unicode="&#xbe;" horiz-adv-x="843" 
d="M333.5 466q13.5 -23 13.5 -51v-23q0 -49 -32.5 -78.5t-85.5 -29.5h-57q-52 0 -84 33t-32 86h62q0 -28 15 -45.5t39 -17.5h57q24 0 39 14.5t15 37.5v23q0 26 -15.5 41.5t-40.5 15.5h-62v54h62q22 0 35 15.5t13 40.5v24q0 19 -12.5 31t-32.5 12h-57q-23 0 -37.5 -17.5
t-14.5 -45.5h-62q0 53 31.5 86t82.5 33h57q49 0 79 -27.5t30 -71.5v-24q0 -27 -11.5 -48t-32.5 -33q25 -12 38.5 -35zM679 78h-172q-31 0 -31 26v30l204 277h63v-277h44v-56h-44v-78h-64v78zM682 132v194h-2l-143 -194h145zM611 722h68l-382 -747h-68z" />
    <glyph glyph-name="questiondown" unicode="&#xbf;" horiz-adv-x="564" 
d="M323 492q15 -15 15 -39t-15 -39t-39 -15t-39 15t-15 39t15 39t39 15t39 -15zM322 279q0 -41 -15.5 -72t-37.5 -52.5t-57 -48.5q-42 -32 -62 -56t-20 -57v-36q0 -46 31 -73.5t81 -27.5h86q56 0 90 33.5t34 88.5h72q0 -85 -54 -136.5t-142 -51.5h-86q-84 0 -135 46t-51 121
v36q0 35 13.5 61.5t32.5 45t51 43.5t50.5 42.5t31.5 43t13 58.5v49h74v-57z" />
    <glyph glyph-name="Agrave" unicode="&#xc0;" horiz-adv-x="647" 
d="M477 194h-307l-72 -194h-76l269 700h34q33 0 48 -40l154 -404h1v-2l97 -254h-76zM193 256h261l-130 348h-1zM193 933h82l83 -152h-66z" />
    <glyph glyph-name="Aacute" unicode="&#xc1;" horiz-adv-x="647" 
d="M477 194h-307l-72 -194h-76l269 700h34q33 0 48 -40l154 -404h1v-2l97 -254h-76zM193 256h261l-130 348h-1zM376 933h82l-99 -152h-66z" />
    <glyph glyph-name="Acircumflex" unicode="&#xc2;" horiz-adv-x="647" 
d="M477 194h-307l-72 -194h-76l269 700h34q33 0 48 -40l154 -404h1v-2l97 -254h-76zM193 256h261l-130 348h-1zM296 943h55l125 -162h-68l-84 112l-84 -112h-68z" />
    <glyph glyph-name="Atilde" unicode="&#xc3;" horiz-adv-x="647" 
d="M477 194h-307l-72 -194h-76l269 700h34q33 0 48 -40l154 -404h1v-2l97 -254h-76zM193 256h261l-130 348h-1zM344.5 783.5q-16.5 10.5 -34.5 29.5q-16 15 -24 21t-19 6h-10q-15 0 -26 -14t-12 -37h-56q1 45 27.5 73t66.5 28h10q25 0 42.5 -11t37.5 -31q12 -13 20 -19
t17 -6h10q14 0 24.5 14t11.5 37h56q-1 -45 -27 -73t-65 -28h-10q-23 0 -39.5 10.5z" />
    <glyph glyph-name="Adieresis" unicode="&#xc4;" horiz-adv-x="647" 
d="M477 194h-307l-72 -194h-76l269 700h34q33 0 48 -40l154 -404h1v-2l97 -254h-76zM193 256h261l-130 348h-1zM188.5 794.5q-13.5 13.5 -13.5 35.5t13.5 35.5t35.5 13.5t35.5 -13.5t13.5 -35.5t-13.5 -35.5t-35.5 -13.5t-35.5 13.5zM387.5 794.5q-13.5 13.5 -13.5 35.5
t13.5 35.5t35.5 13.5t35.5 -13.5t13.5 -35.5t-13.5 -35.5t-35.5 -13.5t-35.5 13.5z" />
    <glyph glyph-name="Aring" unicode="&#xc5;" horiz-adv-x="647" 
d="M477 194h-307l-72 -194h-76l269 700h34q33 0 48 -40l154 -404h1v-2l97 -254h-76zM193 256h261l-130 348h-1zM247.5 771.5q-29.5 28.5 -29.5 74.5t29.5 74.5t76.5 28.5t76.5 -28.5t29.5 -74.5t-29.5 -74.5t-76.5 -28.5t-76.5 28.5zM365 806q15 15 15 40t-15 40t-41 15
t-41 -15t-15 -40t15 -40t41 -15t41 15z" />
    <glyph glyph-name="AE" unicode="&#xc6;" horiz-adv-x="926" 
d="M391 700h485v-64h-384v-246h344v-64h-344v-262h384v-64h-393q-31 0 -48 17.5t-17 48.5v128h-228l-106 -194h-76zM418 256v352h-1l-193 -352h194z" />
    <glyph glyph-name="Ccedilla" unicode="&#xc7;" horiz-adv-x="660" 
d="M366 -8l-21 -46h7q39 0 62.5 -21t23.5 -55v-11q0 -37 -29 -59.5t-76 -22.5h-55v48h53q22 0 36 9.5t14 24.5v11q0 15 -12.5 24.5t-32.5 9.5h-47v44l19 44h-21q-67 0 -118.5 32t-80 89.5t-28.5 132.5v208q0 75 28.5 133t81 89.5t121.5 31.5h106q65 0 114.5 -28t77 -79
t27.5 -117h-72q0 71 -40.5 114.5t-106.5 43.5h-106q-71 0 -114 -51.5t-43 -136.5v-208q0 -85 42 -136.5t111 -51.5h108q68 0 109.5 48t41.5 126h72q0 -71 -28 -125.5t-78.5 -84.5t-116.5 -30h-29z" />
    <glyph glyph-name="Egrave" unicode="&#xc8;" horiz-adv-x="600" 
d="M97 17.5q-17 17.5 -17 48.5v634h470v-64h-396v-246h366v-64h-366v-262h396v-64h-405q-31 0 -48 17.5zM187 933h82l83 -152h-66z" />
    <glyph glyph-name="Eacute" unicode="&#xc9;" horiz-adv-x="600" 
d="M97 17.5q-17 17.5 -17 48.5v634h470v-64h-396v-246h366v-64h-366v-262h396v-64h-405q-31 0 -48 17.5zM370 933h82l-99 -152h-66z" />
    <glyph glyph-name="Ecircumflex" unicode="&#xca;" horiz-adv-x="600" 
d="M97 17.5q-17 17.5 -17 48.5v634h470v-64h-396v-246h366v-64h-366v-262h396v-64h-405q-31 0 -48 17.5zM290 943h55l125 -162h-68l-84 112l-84 -112h-68z" />
    <glyph glyph-name="Edieresis" unicode="&#xcb;" horiz-adv-x="600" 
d="M97 17.5q-17 17.5 -17 48.5v634h470v-64h-396v-246h366v-64h-366v-262h396v-64h-405q-31 0 -48 17.5zM182.5 794.5q-13.5 13.5 -13.5 35.5t13.5 35.5t35.5 13.5t35.5 -13.5t13.5 -35.5t-13.5 -35.5t-35.5 -13.5t-35.5 13.5zM381.5 794.5q-13.5 13.5 -13.5 35.5t13.5 35.5
t35.5 13.5t35.5 -13.5t13.5 -35.5t-13.5 -35.5t-35.5 -13.5t-35.5 13.5z" />
    <glyph glyph-name="Igrave" unicode="&#xcc;" horiz-adv-x="254" 
d="M90 700h74v-700h-74v700zM-4 933h82l83 -152h-66z" />
    <glyph glyph-name="Iacute" unicode="&#xcd;" horiz-adv-x="254" 
d="M90 700h74v-700h-74v700zM179 933h82l-99 -152h-66z" />
    <glyph glyph-name="Icircumflex" unicode="&#xce;" horiz-adv-x="254" 
d="M90 700h74v-700h-74v700zM99 943h55l125 -162h-68l-84 112l-84 -112h-68z" />
    <glyph glyph-name="Idieresis" unicode="&#xcf;" horiz-adv-x="254" 
d="M90 700h74v-700h-74v700zM-8.5 794.5q-13.5 13.5 -13.5 35.5t13.5 35.5t35.5 13.5t35.5 -13.5t13.5 -35.5t-13.5 -35.5t-35.5 -13.5t-35.5 13.5zM190.5 794.5q-13.5 13.5 -13.5 35.5t13.5 35.5t35.5 13.5t35.5 -13.5t13.5 -35.5t-13.5 -35.5t-35.5 -13.5t-35.5 13.5z" />
    <glyph glyph-name="Eth" unicode="&#xd0;" horiz-adv-x="725" 
d="M551 671.5q56 -28.5 87 -81t31 -120.5v-220q0 -123 -62 -186.5t-182 -63.5h-229q-31 0 -48 17t-17 48v246h-105v66h105v323h290q74 0 130 -28.5zM595 470q0 73 -48.5 118.5t-127.5 45.5h-214v-257h201v-66h-201v-245h218q85 0 128.5 46.5t43.5 137.5v220z" />
    <glyph glyph-name="Ntilde" unicode="&#xd1;" horiz-adv-x="690" 
d="M80 700h70l388 -583v583h72v-700h-70l-388 579v-579h-72v700zM365.5 783.5q-16.5 10.5 -34.5 29.5q-16 15 -24 21t-19 6h-10q-15 0 -26 -14t-12 -37h-56q1 45 27.5 73t66.5 28h10q25 0 42.5 -11t37.5 -31q12 -13 20 -19t17 -6h10q14 0 24.5 14t11.5 37h56q-1 -45 -27 -73
t-65 -28h-10q-23 0 -39.5 10.5z" />
    <glyph glyph-name="Ograve" unicode="&#xd2;" horiz-adv-x="696" 
d="M172 23q-53 31 -82.5 88t-29.5 132v214q0 75 29.5 132t82.5 88t123 31h106q70 0 123 -31t82.5 -88t29.5 -132v-214q0 -75 -29.5 -131.5t-83 -88t-122.5 -31.5h-107q-69 0 -122 31zM399 58q73 0 118 51t45 134v214q0 83 -45 134t-118 51h-102q-73 0 -118 -51t-45 -134
v-214q0 -83 44.5 -134t117.5 -51h103zM217 933h82l83 -152h-66z" />
    <glyph glyph-name="Oacute" unicode="&#xd3;" horiz-adv-x="696" 
d="M172 23q-53 31 -82.5 88t-29.5 132v214q0 75 29.5 132t82.5 88t123 31h106q70 0 123 -31t82.5 -88t29.5 -132v-214q0 -75 -29.5 -131.5t-83 -88t-122.5 -31.5h-107q-69 0 -122 31zM399 58q73 0 118 51t45 134v214q0 83 -45 134t-118 51h-102q-73 0 -118 -51t-45 -134
v-214q0 -83 44.5 -134t117.5 -51h103zM400 933h82l-99 -152h-66z" />
    <glyph glyph-name="Ocircumflex" unicode="&#xd4;" horiz-adv-x="696" 
d="M172 23q-53 31 -82.5 88t-29.5 132v214q0 75 29.5 132t82.5 88t123 31h106q70 0 123 -31t82.5 -88t29.5 -132v-214q0 -75 -29.5 -131.5t-83 -88t-122.5 -31.5h-107q-69 0 -122 31zM399 58q73 0 118 51t45 134v214q0 83 -45 134t-118 51h-102q-73 0 -118 -51t-45 -134
v-214q0 -83 44.5 -134t117.5 -51h103zM320 943h55l125 -162h-68l-84 112l-84 -112h-68z" />
    <glyph glyph-name="Otilde" unicode="&#xd5;" horiz-adv-x="696" 
d="M172 23q-53 31 -82.5 88t-29.5 132v214q0 75 29.5 132t82.5 88t123 31h106q70 0 123 -31t82.5 -88t29.5 -132v-214q0 -75 -29.5 -131.5t-83 -88t-122.5 -31.5h-107q-69 0 -122 31zM399 58q73 0 118 51t45 134v214q0 83 -45 134t-118 51h-102q-73 0 -118 -51t-45 -134
v-214q0 -83 44.5 -134t117.5 -51h103zM368.5 783.5q-16.5 10.5 -34.5 29.5q-16 15 -24 21t-19 6h-10q-15 0 -26 -14t-12 -37h-56q1 45 27.5 73t66.5 28h10q25 0 42.5 -11t37.5 -31q12 -13 20 -19t17 -6h10q14 0 24.5 14t11.5 37h56q-1 -45 -27 -73t-65 -28h-10
q-23 0 -39.5 10.5z" />
    <glyph glyph-name="Odieresis" unicode="&#xd6;" horiz-adv-x="696" 
d="M172 23q-53 31 -82.5 88t-29.5 132v214q0 75 29.5 132t82.5 88t123 31h106q70 0 123 -31t82.5 -88t29.5 -132v-214q0 -75 -29.5 -131.5t-83 -88t-122.5 -31.5h-107q-69 0 -122 31zM399 58q73 0 118 51t45 134v214q0 83 -45 134t-118 51h-102q-73 0 -118 -51t-45 -134
v-214q0 -83 44.5 -134t117.5 -51h103zM212.5 794.5q-13.5 13.5 -13.5 35.5t13.5 35.5t35.5 13.5t35.5 -13.5t13.5 -35.5t-13.5 -35.5t-35.5 -13.5t-35.5 13.5zM411.5 794.5q-13.5 13.5 -13.5 35.5t13.5 35.5t35.5 13.5t35.5 -13.5t13.5 -35.5t-13.5 -35.5t-35.5 -13.5
t-35.5 13.5z" />
    <glyph glyph-name="multiply" unicode="&#xd7;" horiz-adv-x="523" 
d="M57 153l161 162l-162 164l43 43l163 -165l162 165l43 -43l-162 -165l162 -161l-43 -43l-162 163l-162 -163z" />
    <glyph glyph-name="Oslash" unicode="&#xd8;" horiz-adv-x="696" 
d="M575 636q61 -69 61 -179v-214q0 -75 -29.5 -131.5t-83 -88t-122.5 -31.5h-107q-71 0 -126 33l-47 -70h-67l71 106q-65 70 -65 182v214q0 75 29.5 132t82.5 88t123 31h106q75 0 131 -36l43 65h67zM167 124l326 489q-40 29 -94 29h-102q-73 0 -118 -51t-45 -134v-214
q0 -70 33 -119zM532 572l-325 -488q38 -26 89 -26h103q73 0 118 51t45 134v214q0 66 -30 115z" />
    <glyph glyph-name="Ugrave" unicode="&#xd9;" horiz-adv-x="692" 
d="M179 20.5q-49 28.5 -76 81t-27 120.5v478h74v-480q0 -73 39 -117.5t103 -44.5h108q64 0 103 44.5t39 117.5v480h74v-478q0 -68 -27 -120.5t-76 -81t-113 -28.5h-108q-64 0 -113 28.5zM215 933h82l83 -152h-66z" />
    <glyph glyph-name="Uacute" unicode="&#xda;" horiz-adv-x="692" 
d="M179 20.5q-49 28.5 -76 81t-27 120.5v478h74v-480q0 -73 39 -117.5t103 -44.5h108q64 0 103 44.5t39 117.5v480h74v-478q0 -68 -27 -120.5t-76 -81t-113 -28.5h-108q-64 0 -113 28.5zM398 933h82l-99 -152h-66z" />
    <glyph glyph-name="Ucircumflex" unicode="&#xdb;" horiz-adv-x="692" 
d="M179 20.5q-49 28.5 -76 81t-27 120.5v478h74v-480q0 -73 39 -117.5t103 -44.5h108q64 0 103 44.5t39 117.5v480h74v-478q0 -68 -27 -120.5t-76 -81t-113 -28.5h-108q-64 0 -113 28.5zM318 943h55l125 -162h-68l-84 112l-84 -112h-68z" />
    <glyph glyph-name="Udieresis" unicode="&#xdc;" horiz-adv-x="692" 
d="M179 20.5q-49 28.5 -76 81t-27 120.5v478h74v-480q0 -73 39 -117.5t103 -44.5h108q64 0 103 44.5t39 117.5v480h74v-478q0 -68 -27 -120.5t-76 -81t-113 -28.5h-108q-64 0 -113 28.5zM210.5 794.5q-13.5 13.5 -13.5 35.5t13.5 35.5t35.5 13.5t35.5 -13.5t13.5 -35.5
t-13.5 -35.5t-35.5 -13.5t-35.5 13.5zM409.5 794.5q-13.5 13.5 -13.5 35.5t13.5 35.5t35.5 13.5t35.5 -13.5t13.5 -35.5t-13.5 -35.5t-35.5 -13.5t-35.5 13.5z" />
    <glyph glyph-name="Yacute" unicode="&#xdd;" horiz-adv-x="622" 
d="M274 269l-258 431h80l215 -364l215 364h80l-258 -431v-269h-74v269zM363 933h82l-99 -152h-66z" />
    <glyph glyph-name="Thorn" unicode="&#xde;" horiz-adv-x="638" 
d="M544.5 530.5q47.5 -43.5 47.5 -114.5v-103q0 -78 -53.5 -126t-141.5 -48h-243v-139h-74v700h74v-126h265q78 0 125.5 -43.5zM518 418q0 41 -27.5 65.5t-73.5 24.5h-263v-303h241q55 0 89 30t34 80v103z" />
    <glyph glyph-name="germandbls" unicode="&#xdf;" horiz-adv-x="673" 
d="M310.5 33q-43.5 41 -43.5 108h70q0 -38 24 -61.5t64 -23.5h51q40 0 64.5 20.5t24.5 53.5v30q0 28 -20 49t-61 49q-33 24 -52 40t-32.5 39t-13.5 51v20q0 50 32 80.5t90 34.5q0 55 -32.5 86t-91.5 31h-80q-60 0 -97 -36.5t-37 -95.5v-508h-72v406h-86v64h86v38
q0 88 56.5 142t149.5 54h80q87 0 140.5 -50.5t53.5 -132.5v-54h-36q-84 0 -84 -59v-20q0 -22 17 -39t56 -46q51 -36 78.5 -67t27.5 -76v-30q0 -62 -44 -100t-117 -38h-51q-71 0 -114.5 41z" />
    <glyph glyph-name="agrave" unicode="&#xe0;" horiz-adv-x="556" 
d="M103.5 30q-43.5 38 -43.5 102v32q0 63 45 101t119 38h64q33 0 68 -10t60 -27v83q0 42 -26 68.5t-69 26.5h-80q-43 0 -69 -20t-26 -53h-72q0 61 46 98.5t121 37.5h80q74 0 119.5 -43.5t45.5 -114.5v-349h-68v70q-23 -36 -60.5 -57t-77.5 -21h-60q-73 0 -116.5 38zM282 55
q47 0 84 29t50 77v37q-20 19 -55.5 30.5t-72.5 11.5h-64q-41 0 -66.5 -21t-25.5 -55v-32q0 -35 24 -56t64 -21h62zM152 732h82l83 -152h-66z" />
    <glyph glyph-name="aacute" unicode="&#xe1;" horiz-adv-x="556" 
d="M103.5 30q-43.5 38 -43.5 102v32q0 63 45 101t119 38h64q33 0 68 -10t60 -27v83q0 42 -26 68.5t-69 26.5h-80q-43 0 -69 -20t-26 -53h-72q0 61 46 98.5t121 37.5h80q74 0 119.5 -43.5t45.5 -114.5v-349h-68v70q-23 -36 -60.5 -57t-77.5 -21h-60q-73 0 -116.5 38zM282 55
q47 0 84 29t50 77v37q-20 19 -55.5 30.5t-72.5 11.5h-64q-41 0 -66.5 -21t-25.5 -55v-32q0 -35 24 -56t64 -21h62zM335 732h82l-99 -152h-66z" />
    <glyph glyph-name="acircumflex" unicode="&#xe2;" horiz-adv-x="556" 
d="M103.5 30q-43.5 38 -43.5 102v32q0 63 45 101t119 38h64q33 0 68 -10t60 -27v83q0 42 -26 68.5t-69 26.5h-80q-43 0 -69 -20t-26 -53h-72q0 61 46 98.5t121 37.5h80q74 0 119.5 -43.5t45.5 -114.5v-349h-68v70q-23 -36 -60.5 -57t-77.5 -21h-60q-73 0 -116.5 38zM282 55
q47 0 84 29t50 77v37q-20 19 -55.5 30.5t-72.5 11.5h-64q-41 0 -66.5 -21t-25.5 -55v-32q0 -35 24 -56t64 -21h62zM255 742h55l125 -162h-68l-84 112l-84 -112h-68z" />
    <glyph glyph-name="atilde" unicode="&#xe3;" horiz-adv-x="556" 
d="M103.5 30q-43.5 38 -43.5 102v32q0 63 45 101t119 38h64q33 0 68 -10t60 -27v83q0 42 -26 68.5t-69 26.5h-80q-43 0 -69 -20t-26 -53h-72q0 61 46 98.5t121 37.5h80q74 0 119.5 -43.5t45.5 -114.5v-349h-68v70q-23 -36 -60.5 -57t-77.5 -21h-60q-73 0 -116.5 38zM282 55
q47 0 84 29t50 77v37q-20 19 -55.5 30.5t-72.5 11.5h-64q-41 0 -66.5 -21t-25.5 -55v-32q0 -35 24 -56t64 -21h62zM303.5 582.5q-16.5 10.5 -34.5 29.5q-16 15 -24 21t-19 6h-10q-15 0 -26 -14t-12 -37h-56q1 45 27.5 73t66.5 28h10q25 0 42.5 -11t37.5 -31q12 -13 20 -19
t17 -6h10q14 0 24.5 14t11.5 37h56q-1 -45 -27 -73t-65 -28h-10q-23 0 -39.5 10.5z" />
    <glyph glyph-name="adieresis" unicode="&#xe4;" horiz-adv-x="556" 
d="M103.5 30q-43.5 38 -43.5 102v32q0 63 45 101t119 38h64q33 0 68 -10t60 -27v83q0 42 -26 68.5t-69 26.5h-80q-43 0 -69 -20t-26 -53h-72q0 61 46 98.5t121 37.5h80q74 0 119.5 -43.5t45.5 -114.5v-349h-68v70q-23 -36 -60.5 -57t-77.5 -21h-60q-73 0 -116.5 38zM282 55
q47 0 84 29t50 77v37q-20 19 -55.5 30.5t-72.5 11.5h-64q-41 0 -66.5 -21t-25.5 -55v-32q0 -35 24 -56t64 -21h62zM147.5 593.5q-13.5 13.5 -13.5 35.5t13.5 35.5t35.5 13.5t35.5 -13.5t13.5 -35.5t-13.5 -35.5t-35.5 -13.5t-35.5 13.5zM346.5 593.5q-13.5 13.5 -13.5 35.5
t13.5 35.5t35.5 13.5t35.5 -13.5t13.5 -35.5t-13.5 -35.5t-35.5 -13.5t-35.5 13.5z" />
    <glyph glyph-name="aring" unicode="&#xe5;" horiz-adv-x="556" 
d="M103.5 30q-43.5 38 -43.5 102v32q0 63 45 101t119 38h64q33 0 68 -10t60 -27v83q0 42 -26 68.5t-69 26.5h-80q-43 0 -69 -20t-26 -53h-72q0 61 46 98.5t121 37.5h80q74 0 119.5 -43.5t45.5 -114.5v-349h-68v70q-23 -36 -60.5 -57t-77.5 -21h-60q-73 0 -116.5 38zM282 55
q47 0 84 29t50 77v37q-20 19 -55.5 30.5t-72.5 11.5h-64q-41 0 -66.5 -21t-25.5 -55v-32q0 -35 24 -56t64 -21h62zM206.5 570.5q-29.5 28.5 -29.5 74.5t29.5 74.5t76.5 28.5t76.5 -28.5t29.5 -74.5t-29.5 -74.5t-76.5 -28.5t-76.5 28.5zM324 605q15 15 15 40t-15 40t-41 15
t-41 -15t-15 -40t15 -40t41 -15t41 15z" />
    <glyph glyph-name="ae" unicode="&#xe6;" horiz-adv-x="908" 
d="M104.5 30.5q-44.5 38.5 -44.5 101.5v32q0 64 45 102t121 38h64q32 0 67.5 -10.5t60.5 -27.5v83q0 42 -26 68t-69 26h-80q-43 0 -70 -20t-27 -52h-72q0 61 46.5 98.5t122.5 37.5h80q44 0 80 -19.5t56 -53.5h1q21 33 60.5 53t83.5 20h78q79 0 127.5 -51t48.5 -135v-88h-368
v-62q0 -53 31 -84t83 -31h72q50 0 80 27.5t30 73.5h70q0 -74 -49.5 -119.5t-130.5 -45.5h-72q-53 0 -93.5 21.5t-62.5 63.5h-1q-64 -85 -165 -85h-60q-73 0 -117.5 38.5zM786 295v26q0 55 -28 88.5t-76 33.5h-78q-52 0 -83 -35t-31 -92v-21h296zM284 56q47 0 84 28.5
t50 76.5v37q-20 19 -55.5 30.5t-72.5 11.5h-64q-44 0 -69 -20t-25 -56v-32q0 -34 24.5 -55t65.5 -21h62z" />
    <glyph glyph-name="ccedilla" unicode="&#xe7;" horiz-adv-x="536" 
d="M300 -8l-21 -46h7q39 0 62.5 -21t23.5 -55v-11q0 -37 -29 -59.5t-76 -22.5h-55v48h53q22 0 36 9.5t14 24.5v11q0 15 -12.5 24.5t-32.5 9.5h-47v44l19 44h-4q-82 0 -132 49.5t-50 131.5v143q0 86 50 138.5t131 52.5h82q77 0 124 -43t47 -113h-70q0 41 -27.5 66.5
t-73.5 25.5h-82q-49 0 -79 -35t-30 -92v-143q0 -53 30.5 -85t79.5 -32h82q47 0 75.5 33t28.5 88h70q0 -83 -48 -134t-126 -51h-20z" />
    <glyph glyph-name="egrave" unicode="&#xe8;" horiz-adv-x="552" 
d="M107 41.5q-51 49.5 -51 131.5v143q0 86 51 138.5t135 52.5h82q80 0 129 -51t49 -135v-88h-374v-60q0 -52 31.5 -84.5t82.5 -32.5h76q50 0 81 27.5t31 73.5h70q0 -74 -50 -119.5t-132 -45.5h-76q-84 0 -135 49.5zM430 295v26q0 55 -29 88.5t-77 33.5h-82q-51 0 -82.5 -35
t-31.5 -92v-21h302zM150 732h82l83 -152h-66z" />
    <glyph glyph-name="eacute" unicode="&#xe9;" horiz-adv-x="552" 
d="M107 41.5q-51 49.5 -51 131.5v143q0 86 51 138.5t135 52.5h82q80 0 129 -51t49 -135v-88h-374v-60q0 -52 31.5 -84.5t82.5 -32.5h76q50 0 81 27.5t31 73.5h70q0 -74 -50 -119.5t-132 -45.5h-76q-84 0 -135 49.5zM430 295v26q0 55 -29 88.5t-77 33.5h-82q-51 0 -82.5 -35
t-31.5 -92v-21h302zM333 732h82l-99 -152h-66z" />
    <glyph glyph-name="ecircumflex" unicode="&#xea;" horiz-adv-x="552" 
d="M107 41.5q-51 49.5 -51 131.5v143q0 86 51 138.5t135 52.5h82q80 0 129 -51t49 -135v-88h-374v-60q0 -52 31.5 -84.5t82.5 -32.5h76q50 0 81 27.5t31 73.5h70q0 -74 -50 -119.5t-132 -45.5h-76q-84 0 -135 49.5zM430 295v26q0 55 -29 88.5t-77 33.5h-82q-51 0 -82.5 -35
t-31.5 -92v-21h302zM253 742h55l125 -162h-68l-84 112l-84 -112h-68z" />
    <glyph glyph-name="edieresis" unicode="&#xeb;" horiz-adv-x="552" 
d="M107 41.5q-51 49.5 -51 131.5v143q0 86 51 138.5t135 52.5h82q80 0 129 -51t49 -135v-88h-374v-60q0 -52 31.5 -84.5t82.5 -32.5h76q50 0 81 27.5t31 73.5h70q0 -74 -50 -119.5t-132 -45.5h-76q-84 0 -135 49.5zM430 295v26q0 55 -29 88.5t-77 33.5h-82q-51 0 -82.5 -35
t-31.5 -92v-21h302zM145.5 593.5q-13.5 13.5 -13.5 35.5t13.5 35.5t35.5 13.5t35.5 -13.5t13.5 -35.5t-13.5 -35.5t-35.5 -13.5t-35.5 13.5zM344.5 593.5q-13.5 13.5 -13.5 35.5t13.5 35.5t35.5 13.5t35.5 -13.5t13.5 -35.5t-13.5 -35.5t-35.5 -13.5t-35.5 13.5z" />
    <glyph glyph-name="igrave" unicode="&#xec;" horiz-adv-x="236" 
d="M82 499h72v-499h-72v499zM-5 761h82l83 -152h-66z" />
    <glyph glyph-name="iacute" unicode="&#xed;" horiz-adv-x="236" 
d="M82 499h72v-499h-72v499zM164 761h82l-99 -152h-66z" />
    <glyph glyph-name="icircumflex" unicode="&#xee;" horiz-adv-x="236" 
d="M82 499h72v-499h-72v499zM90 742h55l125 -162h-68l-84 112l-84 -112h-68z" />
    <glyph glyph-name="idieresis" unicode="&#xef;" horiz-adv-x="236" 
d="M82 499h72v-499h-72v499zM-17.5 593.5q-13.5 13.5 -13.5 35.5t13.5 35.5t35.5 13.5t35.5 -13.5t13.5 -35.5t-13.5 -35.5t-35.5 -13.5t-35.5 13.5zM181.5 593.5q-13.5 13.5 -13.5 35.5t13.5 35.5t35.5 13.5t35.5 -13.5t13.5 -35.5t-13.5 -35.5t-35.5 -13.5t-35.5 13.5z
" />
    <glyph glyph-name="eth" unicode="&#xf0;" horiz-adv-x="587" 
d="M502 583q35 -91 35 -230v-132q0 -68 -26.5 -120t-74.5 -80.5t-111 -28.5h-72q-60 0 -106 26t-71.5 73t-25.5 108v99q0 64 25 113.5t70.5 76.5t104.5 27h72q41 0 80.5 -22t62.5 -59h1q-7 89 -34 146.5t-77 88.5l-59 -76h-72l77 99q-50 14 -111 14h-22v64h22q88 0 153 -24
l41 52h72l-61 -78q72 -46 107 -137zM465 283q0 46 -18.5 84.5t-52 61t-76.5 22.5h-66q-58 0 -94 -42t-36 -110v-102q0 -64 36.5 -102.5t96.5 -38.5h68q64 0 103 44t39 117v66z" />
    <glyph glyph-name="ntilde" unicode="&#xf1;" horiz-adv-x="572" 
d="M76 499h70v-74q23 36 60 59t74 23h68q69 0 111.5 -47t42.5 -123v-337h-72v339q0 46 -23 75t-61 29h-64q-47 0 -85.5 -37t-48.5 -95v-311h-72v499zM314.5 582.5q-16.5 10.5 -34.5 29.5q-16 15 -24 21t-19 6h-10q-15 0 -26 -14t-12 -37h-56q1 45 27.5 73t66.5 28h10
q25 0 42.5 -11t37.5 -31q12 -13 20 -19t17 -6h10q14 0 24.5 14t11.5 37h56q-1 -45 -27 -73t-65 -28h-10q-23 0 -39.5 10.5z" />
    <glyph glyph-name="ograve" unicode="&#xf2;" horiz-adv-x="570" 
d="M107 44q-51 52 -51 137v137q0 85 51.5 137t136.5 52h82q85 0 136.5 -52t51.5 -137v-137q0 -85 -52 -137t-138 -52h-82q-84 0 -135 52zM324 56q54 0 86 34.5t32 90.5v137q0 56 -32 90.5t-84 34.5h-82q-52 0 -84 -34.5t-32 -90.5v-137q0 -57 31 -91t83 -34h82zM154 732h82
l83 -152h-66z" />
    <glyph glyph-name="oacute" unicode="&#xf3;" horiz-adv-x="570" 
d="M107 44q-51 52 -51 137v137q0 85 51.5 137t136.5 52h82q85 0 136.5 -52t51.5 -137v-137q0 -85 -52 -137t-138 -52h-82q-84 0 -135 52zM324 56q54 0 86 34.5t32 90.5v137q0 56 -32 90.5t-84 34.5h-82q-52 0 -84 -34.5t-32 -90.5v-137q0 -57 31 -91t83 -34h82zM337 732h82
l-99 -152h-66z" />
    <glyph glyph-name="ocircumflex" unicode="&#xf4;" horiz-adv-x="570" 
d="M107 44q-51 52 -51 137v137q0 85 51.5 137t136.5 52h82q85 0 136.5 -52t51.5 -137v-137q0 -85 -52 -137t-138 -52h-82q-84 0 -135 52zM324 56q54 0 86 34.5t32 90.5v137q0 56 -32 90.5t-84 34.5h-82q-52 0 -84 -34.5t-32 -90.5v-137q0 -57 31 -91t83 -34h82zM257 742h55
l125 -162h-68l-84 112l-84 -112h-68z" />
    <glyph glyph-name="otilde" unicode="&#xf5;" horiz-adv-x="570" 
d="M107 44q-51 52 -51 137v137q0 85 51.5 137t136.5 52h82q85 0 136.5 -52t51.5 -137v-137q0 -85 -52 -137t-138 -52h-82q-84 0 -135 52zM324 56q54 0 86 34.5t32 90.5v137q0 56 -32 90.5t-84 34.5h-82q-52 0 -84 -34.5t-32 -90.5v-137q0 -57 31 -91t83 -34h82zM305.5 582.5
q-16.5 10.5 -34.5 29.5q-16 15 -24 21t-19 6h-10q-15 0 -26 -14t-12 -37h-56q1 45 27.5 73t66.5 28h10q25 0 42.5 -11t37.5 -31q12 -13 20 -19t17 -6h10q14 0 24.5 14t11.5 37h56q-1 -45 -27 -73t-65 -28h-10q-23 0 -39.5 10.5z" />
    <glyph glyph-name="odieresis" unicode="&#xf6;" horiz-adv-x="570" 
d="M107 44q-51 52 -51 137v137q0 85 51.5 137t136.5 52h82q85 0 136.5 -52t51.5 -137v-137q0 -85 -52 -137t-138 -52h-82q-84 0 -135 52zM324 56q54 0 86 34.5t32 90.5v137q0 56 -32 90.5t-84 34.5h-82q-52 0 -84 -34.5t-32 -90.5v-137q0 -57 31 -91t83 -34h82zM149.5 593.5
q-13.5 13.5 -13.5 35.5t13.5 35.5t35.5 13.5t35.5 -13.5t13.5 -35.5t-13.5 -35.5t-35.5 -13.5t-35.5 13.5zM348.5 593.5q-13.5 13.5 -13.5 35.5t13.5 35.5t35.5 13.5t35.5 -13.5t13.5 -35.5t-13.5 -35.5t-35.5 -13.5t-35.5 13.5z" />
    <glyph glyph-name="divide" unicode="&#xf7;" horiz-adv-x="555" 
d="M238.5 434.5q-14.5 14.5 -14.5 37.5t14.5 37.5t37.5 14.5t37.5 -14.5t14.5 -37.5t-14.5 -37.5t-37.5 -14.5t-37.5 14.5zM56 354h443v-62h-443v62zM238.5 136.5q-14.5 14.5 -14.5 37.5t14.5 37.5t37.5 14.5t37.5 -14.5t14.5 -37.5t-14.5 -37.5t-37.5 -14.5t-37.5 14.5z
" />
    <glyph glyph-name="oslash" unicode="&#xf8;" horiz-adv-x="570" 
d="M463 454q24 -25 37.5 -60t13.5 -76v-137q0 -85 -52 -137t-138 -52h-82q-48 0 -89 19l-32 -46h-70l55 79q-24 25 -37 60t-13 77v137q0 85 51.5 137t136.5 52h82q49 0 90 -19l33 47h70zM148 104l229 328q-24 11 -51 11h-82q-52 0 -84 -34.5t-32 -90.5v-137q0 -45 20 -77z
M421 395l-229 -329q23 -10 50 -10h82q54 0 86 34.5t32 90.5v137q0 46 -21 77z" />
    <glyph glyph-name="ugrave" unicode="&#xf9;" horiz-adv-x="570" 
d="M113 39q-43 47 -43 123v337h72v-339q0 -47 23 -75.5t60 -28.5h62q46 0 85 37t50 93v313h72v-499h-70v76q-23 -36 -61 -60t-74 -24h-64q-69 0 -112 47zM154 732h82l83 -152h-66z" />
    <glyph glyph-name="uacute" unicode="&#xfa;" horiz-adv-x="570" 
d="M113 39q-43 47 -43 123v337h72v-339q0 -47 23 -75.5t60 -28.5h62q46 0 85 37t50 93v313h72v-499h-70v76q-23 -36 -61 -60t-74 -24h-64q-69 0 -112 47zM337 732h82l-99 -152h-66z" />
    <glyph glyph-name="ucircumflex" unicode="&#xfb;" horiz-adv-x="570" 
d="M113 39q-43 47 -43 123v337h72v-339q0 -47 23 -75.5t60 -28.5h62q46 0 85 37t50 93v313h72v-499h-70v76q-23 -36 -61 -60t-74 -24h-64q-69 0 -112 47zM257 742h55l125 -162h-68l-84 112l-84 -112h-68z" />
    <glyph glyph-name="udieresis" unicode="&#xfc;" horiz-adv-x="570" 
d="M113 39q-43 47 -43 123v337h72v-339q0 -47 23 -75.5t60 -28.5h62q46 0 85 37t50 93v313h72v-499h-70v76q-23 -36 -61 -60t-74 -24h-64q-69 0 -112 47zM149.5 593.5q-13.5 13.5 -13.5 35.5t13.5 35.5t35.5 13.5t35.5 -13.5t13.5 -35.5t-13.5 -35.5t-35.5 -13.5t-35.5 13.5
zM348.5 593.5q-13.5 13.5 -13.5 35.5t13.5 35.5t35.5 13.5t35.5 -13.5t13.5 -35.5t-13.5 -35.5t-35.5 -13.5t-35.5 13.5z" />
    <glyph glyph-name="yacute" unicode="&#xfd;" horiz-adv-x="572" 
d="M128 -167.5q-43 35.5 -48 93.5h72q4 -30 27.5 -48.5t57.5 -18.5h78q52 0 80.5 34.5t28.5 96.5v92q-24 -36 -60.5 -59t-72.5 -23h-64q-70 0 -113.5 47t-43.5 123v329h72v-331q0 -47 23.5 -75.5t61.5 -28.5h62q46 0 85 37t50 93v305h72v-509q0 -91 -48 -142t-133 -51h-78
q-66 0 -109 35.5zM337 732h82l-99 -152h-66z" />
    <glyph glyph-name="thorn" unicode="&#xfe;" horiz-adv-x="578" 
d="M76 700h72v-266q21 33 54.5 53t68.5 20h72q80 0 129.5 -51t49.5 -135v-125q0 -93 -50.5 -149.5t-133.5 -56.5h-72q-31 0 -65 17.5t-53 45.5v-256h-72v903zM336 54q52 0 83 39t31 103v125q0 55 -30 88.5t-79 33.5h-70q-42 0 -76 -32.5t-47 -83.5v-152q7 -53 41 -87t81 -34
h66z" />
    <glyph glyph-name="ydieresis" unicode="&#xff;" horiz-adv-x="572" 
d="M128 -167.5q-43 35.5 -48 93.5h72q4 -30 27.5 -48.5t57.5 -18.5h78q52 0 80.5 34.5t28.5 96.5v92q-24 -36 -60.5 -59t-72.5 -23h-64q-70 0 -113.5 47t-43.5 123v329h72v-331q0 -47 23.5 -75.5t61.5 -28.5h62q46 0 85 37t50 93v305h72v-509q0 -91 -48 -142t-133 -51h-78
q-66 0 -109 35.5zM149.5 593.5q-13.5 13.5 -13.5 35.5t13.5 35.5t35.5 13.5t35.5 -13.5t13.5 -35.5t-13.5 -35.5t-35.5 -13.5t-35.5 13.5zM348.5 593.5q-13.5 13.5 -13.5 35.5t13.5 35.5t35.5 13.5t35.5 -13.5t13.5 -35.5t-13.5 -35.5t-35.5 -13.5t-35.5 13.5z" />
    <glyph glyph-name="Amacron" unicode="&#x100;" horiz-adv-x="647" 
d="M477 194h-307l-72 -194h-76l269 700h34q33 0 48 -40l154 -404h1v-2l97 -254h-76zM193 256h261l-130 348h-1zM197 843h255v-52h-255v52z" />
    <glyph glyph-name="amacron" unicode="&#x101;" horiz-adv-x="556" 
d="M103.5 30q-43.5 38 -43.5 102v32q0 63 45 101t119 38h64q33 0 68 -10t60 -27v83q0 42 -26 68.5t-69 26.5h-80q-43 0 -69 -20t-26 -53h-72q0 61 46 98.5t121 37.5h80q74 0 119.5 -43.5t45.5 -114.5v-349h-68v70q-23 -36 -60.5 -57t-77.5 -21h-60q-73 0 -116.5 38zM282 55
q47 0 84 29t50 77v37q-20 19 -55.5 30.5t-72.5 11.5h-64q-41 0 -66.5 -21t-25.5 -55v-32q0 -35 24 -56t64 -21h62zM156 642h255v-52h-255v52z" />
    <glyph glyph-name="Abreve" unicode="&#x102;" horiz-adv-x="647" 
d="M477 194h-307l-72 -194h-76l269 700h34q33 0 48 -40l154 -404h1v-2l97 -254h-76zM193 256h261l-130 348h-1zM217.5 809q-38.5 36 -38.5 95v8h58v-8q0 -37 22 -59t59 -22h12q37 0 59.5 22t22.5 59v8h57v-8q0 -59 -38.5 -95t-100.5 -36h-12q-62 0 -100.5 36z" />
    <glyph glyph-name="abreve" unicode="&#x103;" horiz-adv-x="556" 
d="M103.5 30q-43.5 38 -43.5 102v32q0 63 45 101t119 38h64q33 0 68 -10t60 -27v83q0 42 -26 68.5t-69 26.5h-80q-43 0 -69 -20t-26 -53h-72q0 61 46 98.5t121 37.5h80q74 0 119.5 -43.5t45.5 -114.5v-349h-68v70q-23 -36 -60.5 -57t-77.5 -21h-60q-73 0 -116.5 38zM282 55
q47 0 84 29t50 77v37q-20 19 -55.5 30.5t-72.5 11.5h-64q-41 0 -66.5 -21t-25.5 -55v-32q0 -35 24 -56t64 -21h62zM176.5 608q-38.5 36 -38.5 95v8h58v-8q0 -37 22 -59t59 -22h12q37 0 59.5 22t22.5 59v8h57v-8q0 -59 -38.5 -95t-100.5 -36h-12q-62 0 -100.5 36z" />
    <glyph glyph-name="Aogonek" unicode="&#x104;" horiz-adv-x="647" 
d="M477 194h-307l-72 -194h-76l269 700h34q33 0 48 -40l154 -404h1v-2l97 -254h-76zM193 256h261l-130 348h-1zM524.5 -183q-28.5 26 -28.5 70v10q0 31 16.5 59.5t44.5 43.5h68q-31 -16 -49 -42.5t-18 -56.5v-10q0 -20 12.5 -33t35.5 -13h10q13 0 28.5 5.5t27.5 14.5v-56
q-10 -8 -27.5 -13t-33.5 -5h-10q-48 0 -76.5 26z" />
    <glyph glyph-name="aogonek" unicode="&#x105;" horiz-adv-x="556" 
d="M505.5 -149.5q15.5 5.5 27.5 14.5v-56q-10 -8 -27.5 -13t-33.5 -5h-10q-48 0 -76.5 26t-28.5 70v10q0 31 16.5 59.5t44.5 43.5v70q-23 -36 -60.5 -57t-77.5 -21h-60q-73 0 -116.5 38t-43.5 102v32q0 63 45 101t119 38h64q33 0 68 -10t60 -27v83q0 42 -26 68.5t-69 26.5
h-80q-43 0 -69 -20t-26 -53h-72q0 61 46 98.5t121 37.5h80q74 0 119.5 -43.5t45.5 -114.5v-349q-31 -16 -49 -42.5t-18 -56.5v-10q0 -20 12.5 -33t35.5 -13h10q13 0 28.5 5.5zM416 198q-20 19 -55.5 30.5t-72.5 11.5h-64q-41 0 -66.5 -21t-25.5 -55v-32q0 -35 24 -56t64 -21
h62q47 0 84 29t50 77v37z" />
    <glyph glyph-name="Cacute" unicode="&#x106;" horiz-adv-x="660" 
d="M168.5 24q-51.5 32 -80 89.5t-28.5 132.5v208q0 75 28.5 133t81 89.5t121.5 31.5h106q65 0 114.5 -28t77 -79t27.5 -117h-72q0 71 -40.5 114.5t-106.5 43.5h-106q-71 0 -114 -51.5t-43 -136.5v-208q0 -85 42 -136.5t111 -51.5h108q68 0 109.5 48t41.5 126h72
q0 -71 -28 -125.5t-78.5 -84.5t-116.5 -30h-108q-67 0 -118.5 32zM396 933h82l-99 -152h-66z" />
    <glyph glyph-name="cacute" unicode="&#x107;" horiz-adv-x="536" 
d="M106 41.5q-50 49.5 -50 131.5v143q0 86 50 138.5t131 52.5h82q77 0 124 -43t47 -113h-70q0 41 -27.5 66.5t-73.5 25.5h-82q-49 0 -79 -35t-30 -92v-143q0 -53 30.5 -85t79.5 -32h82q47 0 75.5 33t28.5 88h70q0 -83 -48 -134t-126 -51h-82q-82 0 -132 49.5zM330 732h82
l-99 -152h-66z" />
    <glyph glyph-name="Ccircumflex" unicode="&#x108;" horiz-adv-x="660" 
d="M168.5 24q-51.5 32 -80 89.5t-28.5 132.5v208q0 75 28.5 133t81 89.5t121.5 31.5h106q65 0 114.5 -28t77 -79t27.5 -117h-72q0 71 -40.5 114.5t-106.5 43.5h-106q-71 0 -114 -51.5t-43 -136.5v-208q0 -85 42 -136.5t111 -51.5h108q68 0 109.5 48t41.5 126h72
q0 -71 -28 -125.5t-78.5 -84.5t-116.5 -30h-108q-67 0 -118.5 32zM316 943h55l125 -162h-68l-84 112l-84 -112h-68z" />
    <glyph glyph-name="ccircumflex" unicode="&#x109;" horiz-adv-x="536" 
d="M106 41.5q-50 49.5 -50 131.5v143q0 86 50 138.5t131 52.5h82q77 0 124 -43t47 -113h-70q0 41 -27.5 66.5t-73.5 25.5h-82q-49 0 -79 -35t-30 -92v-143q0 -53 30.5 -85t79.5 -32h82q47 0 75.5 33t28.5 88h70q0 -83 -48 -134t-126 -51h-82q-82 0 -132 49.5zM250 742h55
l125 -162h-68l-84 112l-84 -112h-68z" />
    <glyph glyph-name="Cdotaccent" unicode="&#x10a;" horiz-adv-x="660" 
d="M168.5 24q-51.5 32 -80 89.5t-28.5 132.5v208q0 75 28.5 133t81 89.5t121.5 31.5h106q65 0 114.5 -28t77 -79t27.5 -117h-72q0 71 -40.5 114.5t-106.5 43.5h-106q-71 0 -114 -51.5t-43 -136.5v-208q0 -85 42 -136.5t111 -51.5h108q68 0 109.5 48t41.5 126h72
q0 -71 -28 -125.5t-78.5 -84.5t-116.5 -30h-108q-67 0 -118.5 32zM305 796q-15 15 -15 39t15 39t39 15t39 -15t15 -39t-15 -39t-39 -15t-39 15z" />
    <glyph glyph-name="cdotaccent" unicode="&#x10b;" horiz-adv-x="536" 
d="M106 41.5q-50 49.5 -50 131.5v143q0 86 50 138.5t131 52.5h82q77 0 124 -43t47 -113h-70q0 41 -27.5 66.5t-73.5 25.5h-82q-49 0 -79 -35t-30 -92v-143q0 -53 30.5 -85t79.5 -32h82q47 0 75.5 33t28.5 88h70q0 -83 -48 -134t-126 -51h-82q-82 0 -132 49.5zM239 595
q-15 15 -15 39t15 39t39 15t39 -15t15 -39t-15 -39t-39 -15t-39 15z" />
    <glyph glyph-name="Ccaron" unicode="&#x10c;" horiz-adv-x="660" 
d="M168.5 24q-51.5 32 -80 89.5t-28.5 132.5v208q0 75 28.5 133t81 89.5t121.5 31.5h106q65 0 114.5 -28t77 -79t27.5 -117h-72q0 71 -40.5 114.5t-106.5 43.5h-106q-71 0 -114 -51.5t-43 -136.5v-208q0 -85 42 -136.5t111 -51.5h108q68 0 109.5 48t41.5 126h72
q0 -71 -28 -125.5t-78.5 -84.5t-116.5 -30h-108q-67 0 -118.5 32zM192 943h68l84 -112l84 112h68l-125 -162h-55z" />
    <glyph glyph-name="ccaron" unicode="&#x10d;" horiz-adv-x="536" 
d="M106 41.5q-50 49.5 -50 131.5v143q0 86 50 138.5t131 52.5h82q77 0 124 -43t47 -113h-70q0 41 -27.5 66.5t-73.5 25.5h-82q-49 0 -79 -35t-30 -92v-143q0 -53 30.5 -85t79.5 -32h82q47 0 75.5 33t28.5 88h70q0 -83 -48 -134t-126 -51h-82q-82 0 -132 49.5zM126 742h68
l84 -112l84 112h68l-125 -162h-55z" />
    <glyph glyph-name="Dcaron" unicode="&#x10e;" horiz-adv-x="674" 
d="M97 17q-17 17 -17 48v635h290q74 0 130 -28.5t87 -81t31 -120.5v-220q0 -123 -62 -186.5t-182 -63.5h-229q-31 0 -48 17zM372 66q85 0 128.5 46.5t43.5 137.5v220q0 73 -48.5 118.5t-127.5 45.5h-214v-568h218zM190 943h68l84 -112l84 112h68l-125 -162h-55z" />
    <glyph glyph-name="dcaron" unicode="&#x10f;" horiz-adv-x="736" 
d="M140 16q-40 24 -62 67t-22 100v120q0 60 23 106.5t65 72t96 25.5h74q34 0 65.5 -16t50.5 -44v253h72v-700h-70v74q-23 -37 -60 -59.5t-72 -22.5h-69q-51 0 -91 24zM298 56q32 0 62 20.5t49 53.5t21 68v126q-7 53 -39.5 86t-78.5 33h-70q-51 0 -82.5 -38.5t-31.5 -101.5
v-120q0 -56 29.5 -91.5t75.5 -35.5h65zM574 551l15 10q30 20 44.5 46.5t14.5 61.5v31h72v-31q0 -56 -21 -95t-65 -67l-19 -12z" />
    <glyph glyph-name="Dcroat" unicode="&#x110;" horiz-adv-x="725" 
d="M551 671.5q56 -28.5 87 -81t31 -120.5v-220q0 -123 -62 -186.5t-182 -63.5h-229q-31 0 -48 17t-17 48v246h-105v66h105v323h290q74 0 130 -28.5zM595 470q0 73 -48.5 118.5t-127.5 45.5h-214v-257h201v-66h-201v-245h218q85 0 128.5 46.5t43.5 137.5v220z" />
    <glyph glyph-name="dcroat" unicode="&#x111;" horiz-adv-x="595" 
d="M577 567h-75v-567h-70v74q-23 -37 -60 -59.5t-72 -22.5h-69q-51 0 -91 24t-62 67t-22 100v120q0 60 23 106.5t65 72t96 25.5h74q34 0 65.5 -16t50.5 -44v120h-162v60h162v73h72v-73h75v-60zM430 324q-7 53 -39.5 86t-78.5 33h-70q-51 0 -82.5 -38.5t-31.5 -101.5v-120
q0 -56 29.5 -91.5t75.5 -35.5h65q32 0 62 20.5t49 53.5t21 68v126z" />
    <glyph glyph-name="Emacron" unicode="&#x112;" horiz-adv-x="600" 
d="M97 17.5q-17 17.5 -17 48.5v634h470v-64h-396v-246h366v-64h-366v-262h396v-64h-405q-31 0 -48 17.5zM191 843h255v-52h-255v52z" />
    <glyph glyph-name="emacron" unicode="&#x113;" horiz-adv-x="552" 
d="M107 41.5q-51 49.5 -51 131.5v143q0 86 51 138.5t135 52.5h82q80 0 129 -51t49 -135v-88h-374v-60q0 -52 31.5 -84.5t82.5 -32.5h76q50 0 81 27.5t31 73.5h70q0 -74 -50 -119.5t-132 -45.5h-76q-84 0 -135 49.5zM430 295v26q0 55 -29 88.5t-77 33.5h-82q-51 0 -82.5 -35
t-31.5 -92v-21h302zM154 642h255v-52h-255v52z" />
    <glyph glyph-name="Ebreve" unicode="&#x114;" horiz-adv-x="600" 
d="M97 17.5q-17 17.5 -17 48.5v634h470v-64h-396v-246h366v-64h-366v-262h396v-64h-405q-31 0 -48 17.5zM211.5 809q-38.5 36 -38.5 95v8h58v-8q0 -37 22 -59t59 -22h12q37 0 59.5 22t22.5 59v8h57v-8q0 -59 -38.5 -95t-100.5 -36h-12q-62 0 -100.5 36z" />
    <glyph glyph-name="ebreve" unicode="&#x115;" horiz-adv-x="552" 
d="M107 41.5q-51 49.5 -51 131.5v143q0 86 51 138.5t135 52.5h82q80 0 129 -51t49 -135v-88h-374v-60q0 -52 31.5 -84.5t82.5 -32.5h76q50 0 81 27.5t31 73.5h70q0 -74 -50 -119.5t-132 -45.5h-76q-84 0 -135 49.5zM430 295v26q0 55 -29 88.5t-77 33.5h-82q-51 0 -82.5 -35
t-31.5 -92v-21h302zM174.5 608q-38.5 36 -38.5 95v8h58v-8q0 -37 22 -59t59 -22h12q37 0 59.5 22t22.5 59v8h57v-8q0 -59 -38.5 -95t-100.5 -36h-12q-62 0 -100.5 36z" />
    <glyph glyph-name="Edotaccent" unicode="&#x116;" horiz-adv-x="600" 
d="M97 17.5q-17 17.5 -17 48.5v634h470v-64h-396v-246h366v-64h-366v-262h396v-64h-405q-31 0 -48 17.5zM279 796q-15 15 -15 39t15 39t39 15t39 -15t15 -39t-15 -39t-39 -15t-39 15z" />
    <glyph glyph-name="edotaccent" unicode="&#x117;" horiz-adv-x="552" 
d="M107 41.5q-51 49.5 -51 131.5v143q0 86 51 138.5t135 52.5h82q80 0 129 -51t49 -135v-88h-374v-60q0 -52 31.5 -84.5t82.5 -32.5h76q50 0 81 27.5t31 73.5h70q0 -74 -50 -119.5t-132 -45.5h-76q-84 0 -135 49.5zM430 295v26q0 55 -29 88.5t-77 33.5h-82q-51 0 -82.5 -35
t-31.5 -92v-21h302zM242 595q-15 15 -15 39t15 39t39 15t39 -15t15 -39t-15 -39t-39 -15t-39 15z" />
    <glyph glyph-name="Eogonek" unicode="&#x118;" horiz-adv-x="600" 
d="M97 17.5q-17 17.5 -17 48.5v634h470v-64h-396v-246h366v-64h-366v-262h396v-64h-405q-31 0 -48 17.5zM449.5 -183q-28.5 26 -28.5 70v10q0 31 16.5 59.5t44.5 43.5h68q-31 -16 -49 -42.5t-18 -56.5v-10q0 -20 12.5 -33t35.5 -13h10q13 0 28.5 5.5t27.5 14.5v-56
q-10 -8 -27.5 -13t-33.5 -5h-10q-48 0 -76.5 26z" />
    <glyph glyph-name="eogonek" unicode="&#x119;" horiz-adv-x="552" 
d="M128 233v-60q0 -52 31.5 -84.5t82.5 -32.5h76q50 0 81 27.5t31 73.5h70q0 -59 -32 -100.5t-88 -56.5h6q-31 -16 -49 -42.5t-18 -56.5v-10q0 -20 12.5 -33t35.5 -13h10q13 0 28.5 5.5t27.5 14.5v-56q-10 -8 -27.5 -13t-33.5 -5h-10q-48 0 -76.5 26t-28.5 70v10
q0 27 13 52.5t35 42.5h-63q-84 0 -135 49.5t-51 131.5v143q0 86 51 138.5t135 52.5h82q80 0 129 -51t49 -135v-88h-374zM128 295h302v26q0 55 -29 88.5t-77 33.5h-82q-51 0 -82.5 -35t-31.5 -92v-21z" />
    <glyph glyph-name="Ecaron" unicode="&#x11a;" horiz-adv-x="600" 
d="M97 17.5q-17 17.5 -17 48.5v634h470v-64h-396v-246h366v-64h-366v-262h396v-64h-405q-31 0 -48 17.5zM166 943h68l84 -112l84 112h68l-125 -162h-55z" />
    <glyph glyph-name="ecaron" unicode="&#x11b;" horiz-adv-x="552" 
d="M107 41.5q-51 49.5 -51 131.5v143q0 86 51 138.5t135 52.5h82q80 0 129 -51t49 -135v-88h-374v-60q0 -52 31.5 -84.5t82.5 -32.5h76q50 0 81 27.5t31 73.5h70q0 -74 -50 -119.5t-132 -45.5h-76q-84 0 -135 49.5zM430 295v26q0 55 -29 88.5t-77 33.5h-82q-51 0 -82.5 -35
t-31.5 -92v-21h302zM129 742h68l84 -112l84 112h68l-125 -162h-55z" />
    <glyph glyph-name="Gcircumflex" unicode="&#x11c;" horiz-adv-x="684" 
d="M168.5 23.5q-51.5 31.5 -80 89.5t-28.5 133v208q0 75 29.5 132.5t82.5 89.5t122 32h106q66 0 116.5 -28t78.5 -79t28 -117h-72q0 71 -41.5 114.5t-109.5 43.5h-106q-72 0 -116 -51.5t-44 -136.5v-208q0 -85 42.5 -136.5t112.5 -51.5h108q71 0 115 49t44 129v60h-194v65
h266v-125q0 -72 -28.5 -127.5t-81 -86t-121.5 -30.5h-108q-69 0 -120.5 31.5zM318 943h55l125 -162h-68l-84 112l-84 -112h-68z" />
    <glyph glyph-name="gcircumflex" unicode="&#x11d;" horiz-adv-x="578" 
d="M129 -167.5q-43 35.5 -48 93.5h72q4 -30 27.5 -48.5t57.5 -18.5h83q52 0 80.5 34.5t28.5 96.5v77q-22 -30 -57.5 -48.5t-68.5 -18.5h-73q-51 0 -91 24t-62 67t-22 100v117q0 89 51.5 144t135.5 55h70q32 0 66 -18t53 -46v56h70v-509q0 -91 -48 -142t-133 -51h-83
q-66 0 -109 35.5zM304 64q50 0 85.5 39.5t40.5 100.5v123q-4 51 -37.5 83.5t-79.5 32.5h-68q-53 0 -85 -37t-32 -98v-117q0 -56 29.5 -91.5t75.5 -35.5h71zM250 742h55l125 -162h-68l-84 112l-84 -112h-68z" />
    <glyph glyph-name="Gbreve" unicode="&#x11e;" horiz-adv-x="684" 
d="M168.5 23.5q-51.5 31.5 -80 89.5t-28.5 133v208q0 75 29.5 132.5t82.5 89.5t122 32h106q66 0 116.5 -28t78.5 -79t28 -117h-72q0 71 -41.5 114.5t-109.5 43.5h-106q-72 0 -116 -51.5t-44 -136.5v-208q0 -85 42.5 -136.5t112.5 -51.5h108q71 0 115 49t44 129v60h-194v65
h266v-125q0 -72 -28.5 -127.5t-81 -86t-121.5 -30.5h-108q-69 0 -120.5 31.5zM239.5 809q-38.5 36 -38.5 95v8h58v-8q0 -37 22 -59t59 -22h12q37 0 59.5 22t22.5 59v8h57v-8q0 -59 -38.5 -95t-100.5 -36h-12q-62 0 -100.5 36z" />
    <glyph glyph-name="gbreve" unicode="&#x11f;" horiz-adv-x="578" 
d="M129 -167.5q-43 35.5 -48 93.5h72q4 -30 27.5 -48.5t57.5 -18.5h83q52 0 80.5 34.5t28.5 96.5v77q-22 -30 -57.5 -48.5t-68.5 -18.5h-73q-51 0 -91 24t-62 67t-22 100v117q0 89 51.5 144t135.5 55h70q32 0 66 -18t53 -46v56h70v-509q0 -91 -48 -142t-133 -51h-83
q-66 0 -109 35.5zM304 64q50 0 85.5 39.5t40.5 100.5v123q-4 51 -37.5 83.5t-79.5 32.5h-68q-53 0 -85 -37t-32 -98v-117q0 -56 29.5 -91.5t75.5 -35.5h71zM171.5 608q-38.5 36 -38.5 95v8h58v-8q0 -37 22 -59t59 -22h12q37 0 59.5 22t22.5 59v8h57v-8q0 -59 -38.5 -95
t-100.5 -36h-12q-62 0 -100.5 36z" />
    <glyph glyph-name="Gdotaccent" unicode="&#x120;" horiz-adv-x="684" 
d="M168.5 23.5q-51.5 31.5 -80 89.5t-28.5 133v208q0 75 29.5 132.5t82.5 89.5t122 32h106q66 0 116.5 -28t78.5 -79t28 -117h-72q0 71 -41.5 114.5t-109.5 43.5h-106q-72 0 -116 -51.5t-44 -136.5v-208q0 -85 42.5 -136.5t112.5 -51.5h108q71 0 115 49t44 129v60h-194v65
h266v-125q0 -72 -28.5 -127.5t-81 -86t-121.5 -30.5h-108q-69 0 -120.5 31.5zM307 796q-15 15 -15 39t15 39t39 15t39 -15t15 -39t-15 -39t-39 -15t-39 15z" />
    <glyph glyph-name="gdotaccent" unicode="&#x121;" horiz-adv-x="578" 
d="M129 -167.5q-43 35.5 -48 93.5h72q4 -30 27.5 -48.5t57.5 -18.5h83q52 0 80.5 34.5t28.5 96.5v77q-22 -30 -57.5 -48.5t-68.5 -18.5h-73q-51 0 -91 24t-62 67t-22 100v117q0 89 51.5 144t135.5 55h70q32 0 66 -18t53 -46v56h70v-509q0 -91 -48 -142t-133 -51h-83
q-66 0 -109 35.5zM304 64q50 0 85.5 39.5t40.5 100.5v123q-4 51 -37.5 83.5t-79.5 32.5h-68q-53 0 -85 -37t-32 -98v-117q0 -56 29.5 -91.5t75.5 -35.5h71zM239 595q-15 15 -15 39t15 39t39 15t39 -15t15 -39t-15 -39t-39 -15t-39 15z" />
    <glyph glyph-name="uni0122" unicode="&#x122;" horiz-adv-x="684" 
d="M168.5 23.5q-51.5 31.5 -80 89.5t-28.5 133v208q0 75 29.5 132.5t82.5 89.5t122 32h106q66 0 116.5 -28t78.5 -79t28 -117h-72q0 71 -41.5 114.5t-109.5 43.5h-106q-72 0 -116 -51.5t-44 -136.5v-208q0 -85 42.5 -136.5t112.5 -51.5h108q71 0 115 49t44 129v60h-194v65
h266v-125q0 -72 -28.5 -127.5t-81 -86t-121.5 -30.5h-108q-69 0 -120.5 31.5zM236 -224l15 10q30 20 44.5 46.5t14.5 61.5v31h72v-31q0 -56 -21 -95t-65 -67l-19 -12z" />
    <glyph glyph-name="uni0123" unicode="&#x123;" horiz-adv-x="578" 
d="M129 -167.5q-43 35.5 -48 93.5h72q4 -30 27.5 -48.5t57.5 -18.5h83q52 0 80.5 34.5t28.5 96.5v77q-22 -30 -57.5 -48.5t-68.5 -18.5h-73q-51 0 -91 24t-62 67t-22 100v117q0 89 51.5 144t135.5 55h70q32 0 66 -18t53 -46v56h70v-509q0 -91 -48 -142t-133 -51h-83
q-66 0 -109 35.5zM304 64q50 0 85.5 39.5t40.5 100.5v123q-4 51 -37.5 83.5t-79.5 32.5h-68q-53 0 -85 -37t-32 -98v-117q0 -56 29.5 -91.5t75.5 -35.5h71zM236 594q0 56 21 95t65 67l19 12l41 -56l-15 -10q-30 -20 -44.5 -46.5t-14.5 -61.5v-31h-72v31z" />
    <glyph glyph-name="Hcircumflex" unicode="&#x124;" horiz-adv-x="694" 
d="M80 700h74v-314h386v314h74v-700h-74v320h-386v-320h-74v700zM317 943h55l125 -162h-68l-84 112l-84 -112h-68z" />
    <glyph glyph-name="hcircumflex" unicode="&#x125;" horiz-adv-x="574" 
d="M76 700h72v-270q23 35 59 56t73 21h70q69 0 111.5 -47t42.5 -123v-337h-72v339q0 46 -23 75t-61 29h-66q-47 0 -85.5 -36.5t-48.5 -93.5v-313h-72v700zM261 943h55l125 -162h-68l-84 112l-84 -112h-68z" />
    <glyph glyph-name="Hbar" unicode="&#x126;" horiz-adv-x="746" 
d="M720 510h-80v-510h-74v320h-386v-320h-74v510h-80v60h80v130h74v-130h386v130h74v-130h80v-60zM566 510h-386v-124h386v124z" />
    <glyph glyph-name="hbar" unicode="&#x127;" horiz-adv-x="614" 
d="M501.5 460q42.5 -47 42.5 -123v-337h-72v339q0 46 -23 75t-61 29h-66q-47 0 -85.5 -36.5t-48.5 -93.5v-313h-72v568h-90v58h90v74h72v-74h128v-58h-128v-138q23 35 59 56t73 21h70q69 0 111.5 -47z" />
    <glyph glyph-name="Itilde" unicode="&#x128;" horiz-adv-x="254" 
d="M90 700h74v-700h-74v700zM147.5 783.5q-16.5 10.5 -34.5 29.5q-16 15 -24 21t-19 6h-10q-15 0 -26 -14t-12 -37h-56q1 45 27.5 73t66.5 28h10q25 0 42.5 -11t37.5 -31q12 -13 20 -19t17 -6h10q14 0 24.5 14t11.5 37h56q-1 -45 -27 -73t-65 -28h-10q-23 0 -39.5 10.5z" />
    <glyph glyph-name="itilde" unicode="&#x129;" horiz-adv-x="236" 
d="M82 499h72v-499h-72v499zM138.5 582.5q-16.5 10.5 -34.5 29.5q-16 15 -24 21t-19 6h-10q-15 0 -26 -14t-12 -37h-56q1 45 27.5 73t66.5 28h10q25 0 42.5 -11t37.5 -31q12 -13 20 -19t17 -6h10q14 0 24.5 14t11.5 37h56q-1 -45 -27 -73t-65 -28h-10q-23 0 -39.5 10.5z" />
    <glyph glyph-name="Imacron" unicode="&#x12a;" horiz-adv-x="254" 
d="M90 700h74v-700h-74v700zM0 843h255v-52h-255v52z" />
    <glyph glyph-name="imacron" unicode="&#x12b;" horiz-adv-x="236" 
d="M82 499h72v-499h-72v499zM-9 642h255v-52h-255v52z" />
    <glyph glyph-name="Ibreve" unicode="&#x12c;" horiz-adv-x="254" 
d="M90 700h74v-700h-74v700zM20.5 809q-38.5 36 -38.5 95v8h58v-8q0 -37 22 -59t59 -22h12q37 0 59.5 22t22.5 59v8h57v-8q0 -59 -38.5 -95t-100.5 -36h-12q-62 0 -100.5 36z" />
    <glyph glyph-name="ibreve" unicode="&#x12d;" horiz-adv-x="236" 
d="M82 499h72v-499h-72v499zM11.5 608q-38.5 36 -38.5 95v8h58v-8q0 -37 22 -59t59 -22h12q37 0 59.5 22t22.5 59v8h57v-8q0 -59 -38.5 -95t-100.5 -36h-12q-62 0 -100.5 36z" />
    <glyph glyph-name="Iogonek" unicode="&#x12e;" horiz-adv-x="254" 
d="M90 700h74v-700h-74v700zM63.5 -183q-28.5 26 -28.5 70v10q0 31 16.5 59.5t44.5 43.5h68q-31 -16 -49 -42.5t-18 -56.5v-10q0 -20 12.5 -33t35.5 -13h10q13 0 28.5 5.5t27.5 14.5v-56q-10 -8 -27.5 -13t-33.5 -5h-10q-48 0 -76.5 26z" />
    <glyph glyph-name="iogonek" unicode="&#x12f;" horiz-adv-x="260" 
d="M91 589q-15 15 -15 39t15 39t39 15t39 -15t15 -39t-15 -39t-39 -15t-39 15zM94 499h72v-499h-72v499zM65.5 -183q-28.5 26 -28.5 70v10q0 31 16.5 59.5t44.5 43.5h68q-31 -16 -49 -42.5t-18 -56.5v-10q0 -20 12.5 -33t35.5 -13h10q13 0 28.5 5.5t27.5 14.5v-56
q-10 -8 -27.5 -13t-33.5 -5h-10q-48 0 -76.5 26z" />
    <glyph glyph-name="Idotaccent" unicode="&#x130;" horiz-adv-x="254" 
d="M90 700h74v-700h-74v700zM88 796q-15 15 -15 39t15 39t39 15t39 -15t15 -39t-15 -39t-39 -15t-39 15z" />
    <glyph glyph-name="dotlessi" unicode="&#x131;" horiz-adv-x="236" 
d="M82 499h72v-499h-72v499z" />
    <glyph glyph-name="IJ" unicode="&#x132;" horiz-adv-x="802" 
d="M90 700h74v-700h-74v700zM349 20.5q-43 28.5 -67 80t-24 118.5h74q0 -73 32 -117t85 -44h87q56 0 88 46t32 128v468h74v-468q0 -113 -51 -176.5t-143 -63.5h-87q-57 0 -100 28.5z" />
    <glyph glyph-name="ij" unicode="&#x133;" horiz-adv-x="502" 
d="M91 589q-15 15 -15 39t15 39t39 15t39 -15t15 -39t-15 -39t-39 -15t-39 15zM94 499h72v-499h-72v499zM333 589q-15 15 -15 39t15 39t39 15t39 -15t15 -39t-15 -39t-39 -15t-39 15zM204 -135h35q52 0 74.5 28t22.5 92v514h72v-509q0 -101 -39 -145t-130 -44h-35v64z" />
    <glyph glyph-name="Jcircumflex" unicode="&#x134;" horiz-adv-x="578" 
d="M125 20.5q-43 28.5 -67 80t-24 118.5h74q0 -73 32 -117t85 -44h87q56 0 88 46t32 128v468h74v-468q0 -113 -51 -176.5t-143 -63.5h-87q-57 0 -100 28.5zM441 943h55l125 -162h-68l-84 112l-84 -112h-68z" />
    <glyph glyph-name="jcircumflex" unicode="&#x135;" horiz-adv-x="254" 
d="M-32 -135h35q52 0 74.5 28t22.5 92v514h72v-509q0 -101 -39 -145t-130 -44h-35v64zM108 742h55l125 -162h-68l-84 112l-84 -112h-68z" />
    <glyph glyph-name="uni0136" unicode="&#x136;" horiz-adv-x="630" 
d="M512 0l-270 335l-88 -93v-242h-74v700h74v-366l340 366h92l-293 -311l311 -389h-92zM213 -224l15 10q30 20 44.5 46.5t14.5 61.5v31h72v-31q0 -56 -21 -95t-65 -67l-19 -12z" />
    <glyph glyph-name="uni0137" unicode="&#x137;" horiz-adv-x="511" 
d="M413 0l-196 236l-69 -69v-167h-72v700h72v-445l247 244h88l-216 -214l232 -285h-86zM164 -224l15 10q30 20 44.5 46.5t14.5 61.5v31h72v-31q0 -56 -21 -95t-65 -67l-19 -12z" />
    <glyph glyph-name="kgreenlandic" unicode="&#x138;" horiz-adv-x="523" 
d="M425 0l-199 229l-78 -78v-151h-72v499h72v-260l257 260h88l-220 -222l238 -277h-86z" />
    <glyph glyph-name="Lacute" unicode="&#x139;" horiz-adv-x="560" 
d="M97 17q-17 17 -17 48v635h74v-634h380v-66h-389q-31 0 -48 17zM169 933h82l-99 -152h-66z" />
    <glyph glyph-name="lacute" unicode="&#x13a;" horiz-adv-x="268" 
d="M108 31.5q-32 31.5 -32 104.5v564h72v-564q0 -38 15.5 -55t50.5 -17h34v-64h-34q-74 0 -106 31.5zM164 933h82l-99 -152h-66z" />
    <glyph glyph-name="uni013B" unicode="&#x13b;" horiz-adv-x="560" 
d="M97 17q-17 17 -17 48v635h74v-634h380v-66h-389q-31 0 -48 17zM200 -224l15 10q30 20 44.5 46.5t14.5 61.5v31h72v-31q0 -56 -21 -95t-65 -67l-19 -12z" />
    <glyph glyph-name="uni013C" unicode="&#x13c;" horiz-adv-x="268" 
d="M108 31.5q-32 31.5 -32 104.5v564h72v-564q0 -38 15.5 -55t50.5 -17h34v-64h-34q-74 0 -106 31.5zM52 -224l15 10q30 20 44.5 46.5t14.5 61.5v31h72v-31q0 -56 -21 -95t-65 -67l-19 -12z" />
    <glyph glyph-name="Lcaron" unicode="&#x13d;" horiz-adv-x="560" 
d="M97 17q-17 17 -17 48v635h74v-634h380v-66h-389q-31 0 -48 17zM386 551l15 10q30 20 44.5 46.5t14.5 61.5v31h72v-31q0 -56 -21 -95t-65 -67l-19 -12z" />
    <glyph glyph-name="lcaron" unicode="&#x13e;" horiz-adv-x="398" 
d="M108 31.5q-32 31.5 -32 104.5v564h72v-564q0 -38 15.5 -55t50.5 -17h34v-64h-34q-74 0 -106 31.5zM236 551l15 10q30 20 44.5 46.5t14.5 61.5v31h72v-31q0 -56 -21 -95t-65 -67l-19 -12z" />
    <glyph glyph-name="Ldot" unicode="&#x13f;" horiz-adv-x="560" 
d="M97 17q-17 17 -17 48v635h74v-634h380v-66h-389q-31 0 -48 17zM351 238q-15 15 -15 39t15 39t39 15t39 -15t15 -39t-15 -39t-39 -15t-39 15z" />
    <glyph glyph-name="ldot" unicode="&#x140;" horiz-adv-x="384" 
d="M108 31.5q-32 31.5 -32 104.5v564h72v-564q0 -38 15.5 -55t50.5 -17h34v-64h-34q-74 0 -106 31.5zM279 218q-15 15 -15 39t15 39t39 15t39 -15t15 -39t-15 -39t-39 -15t-39 15z" />
    <glyph glyph-name="Lslash" unicode="&#x141;" horiz-adv-x="590" 
d="M564 66v-66h-389q-31 0 -48 17t-17 48v200l-84 -49v69l84 49v366h74v-322l132 77v-69l-132 -77v-243h380z" />
    <glyph glyph-name="lslash" unicode="&#x142;" horiz-adv-x="301" 
d="M281 64v-64h-34q-74 0 -106 31.5t-32 104.5v143l-87 -51v69l87 51v352h72v-310l85 49v-69l-85 -49v-185q0 -38 15.5 -55t50.5 -17h34z" />
    <glyph glyph-name="Nacute" unicode="&#x143;" horiz-adv-x="690" 
d="M80 700h70l388 -583v583h72v-700h-70l-388 579v-579h-72v700zM397 933h82l-99 -152h-66z" />
    <glyph glyph-name="nacute" unicode="&#x144;" horiz-adv-x="572" 
d="M76 499h70v-74q23 36 60 59t74 23h68q69 0 111.5 -47t42.5 -123v-337h-72v339q0 46 -23 75t-61 29h-64q-47 0 -85.5 -37t-48.5 -95v-311h-72v499zM346 732h82l-99 -152h-66z" />
    <glyph glyph-name="uni0145" unicode="&#x145;" horiz-adv-x="690" 
d="M80 700h70l388 -583v583h72v-700h-70l-388 579v-579h-72v700zM236 -224l15 10q30 20 44.5 46.5t14.5 61.5v31h72v-31q0 -56 -21 -95t-65 -67l-19 -12z" />
    <glyph glyph-name="uni0146" unicode="&#x146;" horiz-adv-x="572" 
d="M76 499h70v-74q23 36 60 59t74 23h68q69 0 111.5 -47t42.5 -123v-337h-72v339q0 46 -23 75t-61 29h-64q-47 0 -85.5 -37t-48.5 -95v-311h-72v499zM176 -224l15 10q30 20 44.5 46.5t14.5 61.5v31h72v-31q0 -56 -21 -95t-65 -67l-19 -12z" />
    <glyph glyph-name="Ncaron" unicode="&#x147;" horiz-adv-x="690" 
d="M80 700h70l388 -583v583h72v-700h-70l-388 579v-579h-72v700zM193 943h68l84 -112l84 112h68l-125 -162h-55z" />
    <glyph glyph-name="ncaron" unicode="&#x148;" horiz-adv-x="572" 
d="M76 499h70v-74q23 36 60 59t74 23h68q69 0 111.5 -47t42.5 -123v-337h-72v339q0 46 -23 75t-61 29h-64q-47 0 -85.5 -37t-48.5 -95v-311h-72v499zM142 742h68l84 -112l84 112h68l-125 -162h-55z" />
    <glyph glyph-name="napostrophe" unicode="&#x149;" horiz-adv-x="691" 
d="M195 499h70v-74q23 36 60 59t74 23h68q69 0 111.5 -47t42.5 -123v-337h-72v339q0 46 -23 75t-61 29h-64q-47 0 -85.5 -37t-48.5 -95v-311h-72v499zM16 551l15 10q30 20 44.5 46.5t14.5 61.5v31h72v-31q0 -56 -21 -95t-65 -67l-19 -12z" />
    <glyph glyph-name="Eng" unicode="&#x14a;" horiz-adv-x="690" 
d="M406 -135h35q52 0 74.5 28t22.5 92v18l-386 576v-579h-72v700h70l388 -583v583h72v-710q0 -101 -39 -145t-130 -44h-35v64z" />
    <glyph glyph-name="eng" unicode="&#x14b;" horiz-adv-x="572" 
d="M298 -135h35q52 0 74.5 28t22.5 92v354q0 46 -23 75t-61 29h-64q-47 0 -85.5 -37t-48.5 -95v-311h-72v499h70v-74q23 36 60 59t74 23h68q69 0 111.5 -47t42.5 -123v-347q0 -101 -39 -145t-130 -44h-35v64z" />
    <glyph glyph-name="Omacron" unicode="&#x14c;" horiz-adv-x="696" 
d="M172 23q-53 31 -82.5 88t-29.5 132v214q0 75 29.5 132t82.5 88t123 31h106q70 0 123 -31t82.5 -88t29.5 -132v-214q0 -75 -29.5 -131.5t-83 -88t-122.5 -31.5h-107q-69 0 -122 31zM399 58q73 0 118 51t45 134v214q0 83 -45 134t-118 51h-102q-73 0 -118 -51t-45 -134
v-214q0 -83 44.5 -134t117.5 -51h103zM221 843h255v-52h-255v52z" />
    <glyph glyph-name="omacron" unicode="&#x14d;" horiz-adv-x="570" 
d="M107 44q-51 52 -51 137v137q0 85 51.5 137t136.5 52h82q85 0 136.5 -52t51.5 -137v-137q0 -85 -52 -137t-138 -52h-82q-84 0 -135 52zM324 56q54 0 86 34.5t32 90.5v137q0 56 -32 90.5t-84 34.5h-82q-52 0 -84 -34.5t-32 -90.5v-137q0 -57 31 -91t83 -34h82zM158 642h255
v-52h-255v52z" />
    <glyph glyph-name="Obreve" unicode="&#x14e;" horiz-adv-x="696" 
d="M172 23q-53 31 -82.5 88t-29.5 132v214q0 75 29.5 132t82.5 88t123 31h106q70 0 123 -31t82.5 -88t29.5 -132v-214q0 -75 -29.5 -131.5t-83 -88t-122.5 -31.5h-107q-69 0 -122 31zM399 58q73 0 118 51t45 134v214q0 83 -45 134t-118 51h-102q-73 0 -118 -51t-45 -134
v-214q0 -83 44.5 -134t117.5 -51h103zM241.5 809q-38.5 36 -38.5 95v8h58v-8q0 -37 22 -59t59 -22h12q37 0 59.5 22t22.5 59v8h57v-8q0 -59 -38.5 -95t-100.5 -36h-12q-62 0 -100.5 36z" />
    <glyph glyph-name="obreve" unicode="&#x14f;" horiz-adv-x="570" 
d="M107 44q-51 52 -51 137v137q0 85 51.5 137t136.5 52h82q85 0 136.5 -52t51.5 -137v-137q0 -85 -52 -137t-138 -52h-82q-84 0 -135 52zM324 56q54 0 86 34.5t32 90.5v137q0 56 -32 90.5t-84 34.5h-82q-52 0 -84 -34.5t-32 -90.5v-137q0 -57 31 -91t83 -34h82zM178.5 608
q-38.5 36 -38.5 95v8h58v-8q0 -37 22 -59t59 -22h12q37 0 59.5 22t22.5 59v8h57v-8q0 -59 -38.5 -95t-100.5 -36h-12q-62 0 -100.5 36z" />
    <glyph glyph-name="Ohungarumlaut" unicode="&#x150;" horiz-adv-x="696" 
d="M172 23q-53 31 -82.5 88t-29.5 132v214q0 75 29.5 132t82.5 88t123 31h106q70 0 123 -31t82.5 -88t29.5 -132v-214q0 -75 -29.5 -131.5t-83 -88t-122.5 -31.5h-107q-69 0 -122 31zM399 58q73 0 118 51t45 134v214q0 83 -45 134t-118 51h-102q-73 0 -118 -51t-45 -134
v-214q0 -83 44.5 -134t117.5 -51h103zM322 933h78l-95 -152h-62zM451 933h78l-95 -152h-62z" />
    <glyph glyph-name="ohungarumlaut" unicode="&#x151;" horiz-adv-x="570" 
d="M107 44q-51 52 -51 137v137q0 85 51.5 137t136.5 52h82q85 0 136.5 -52t51.5 -137v-137q0 -85 -52 -137t-138 -52h-82q-84 0 -135 52zM324 56q54 0 86 34.5t32 90.5v137q0 56 -32 90.5t-84 34.5h-82q-52 0 -84 -34.5t-32 -90.5v-137q0 -57 31 -91t83 -34h82zM259 732h78
l-95 -152h-62zM388 732h78l-95 -152h-62z" />
    <glyph glyph-name="OE" unicode="&#x152;" horiz-adv-x="1076" 
d="M172 23.5q-53 31.5 -82.5 89t-29.5 132.5v208q0 75 29.5 133t83.5 90t124 32h108q49 0 92 -20.5t71 -56.5v69h458v-64h-384v-246h344v-64h-344v-262h384v-64h-391q-29 0 -47.5 16t-18.5 41v25q-27 -40 -74.5 -65t-96.5 -25h-104q-69 0 -122 31.5zM396 58q77 0 124.5 52.5
t47.5 138.5v204q0 84 -45.5 136.5t-119.5 52.5h-104q-74 0 -119.5 -52.5t-45.5 -136.5v-208q0 -84 44.5 -135.5t117.5 -51.5h100z" />
    <glyph glyph-name="oe" unicode="&#x153;" horiz-adv-x="930" 
d="M510 233v-60q0 -53 31 -85t83 -32h74q50 0 80 27.5t30 73.5h70q0 -74 -49.5 -119.5t-130.5 -45.5h-74q-51 0 -90.5 19.5t-62.5 56.5q-48 -76 -151 -76h-78q-84 0 -135 52t-51 137v137q0 85 51 137t135 52h82q50 0 87.5 -20t61.5 -57q24 37 62.5 57t88.5 20h80
q79 0 127.5 -51t48.5 -135v-88h-370zM438 318q0 56 -31.5 90.5t-82.5 34.5h-82q-51 0 -82.5 -34.5t-31.5 -90.5v-137q0 -56 31.5 -90.5t82.5 -34.5h78q53 0 85.5 34.5t32.5 90.5v137zM510 295h298v26q0 55 -28 88.5t-76 33.5h-80q-52 0 -83 -35t-31 -92v-21z" />
    <glyph glyph-name="Racute" unicode="&#x154;" horiz-adv-x="650" 
d="M80 700h340q77 0 123.5 -43.5t46.5 -114.5v-73q0 -53 -34 -93.5t-91 -57.5v-1q30 -16 54.5 -51t37.5 -79l55 -187h-76l-55 187q-14 49 -48.5 79t-75.5 30h-203v-296h-74v700zM394 362q55 0 88.5 29.5t33.5 77.5v77q0 40 -27 64t-71 24h-264v-272h240zM374 933h82
l-99 -152h-66z" />
    <glyph glyph-name="racute" unicode="&#x155;" horiz-adv-x="355" 
d="M76 499h70v-77q20 35 60.5 57t84.5 22h44v-65h-44q-64 0 -103.5 -40.5t-39.5 -107.5v-288h-72v499zM252 732h82l-99 -152h-66z" />
    <glyph glyph-name="uni0156" unicode="&#x156;" horiz-adv-x="650" 
d="M80 700h340q77 0 123.5 -43.5t46.5 -114.5v-73q0 -53 -34 -93.5t-91 -57.5v-1q30 -16 54.5 -51t37.5 -79l55 -187h-76l-55 187q-14 49 -48.5 79t-75.5 30h-203v-296h-74v700zM394 362q55 0 88.5 29.5t33.5 77.5v77q0 40 -27 64t-71 24h-264v-272h240zM227 -224l15 10
q30 20 44.5 46.5t14.5 61.5v31h72v-31q0 -56 -21 -95t-65 -67l-19 -12z" />
    <glyph glyph-name="uni0157" unicode="&#x157;" horiz-adv-x="355" 
d="M76 499h70v-77q20 35 60.5 57t84.5 22h44v-65h-44q-64 0 -103.5 -40.5t-39.5 -107.5v-288h-72v499zM2 -224l15 10q30 20 44.5 46.5t14.5 61.5v31h72v-31q0 -56 -21 -95t-65 -67l-19 -12z" />
    <glyph glyph-name="Rcaron" unicode="&#x158;" horiz-adv-x="650" 
d="M80 700h340q77 0 123.5 -43.5t46.5 -114.5v-73q0 -53 -34 -93.5t-91 -57.5v-1q30 -16 54.5 -51t37.5 -79l55 -187h-76l-55 187q-14 49 -48.5 79t-75.5 30h-203v-296h-74v700zM394 362q55 0 88.5 29.5t33.5 77.5v77q0 40 -27 64t-71 24h-264v-272h240zM170 943h68l84 -112
l84 112h68l-125 -162h-55z" />
    <glyph glyph-name="rcaron" unicode="&#x159;" horiz-adv-x="355" 
d="M76 499h70v-77q20 35 60.5 57t84.5 22h44v-65h-44q-64 0 -103.5 -40.5t-39.5 -107.5v-288h-72v499zM48 742h68l84 -112l84 112h68l-125 -162h-55z" />
    <glyph glyph-name="Sacute" unicode="&#x15a;" horiz-adv-x="627" 
d="M153 17.5q-46 25.5 -71.5 72t-25.5 107.5h72q0 -62 36.5 -100.5t96.5 -38.5h111q59 0 95 26.5t36 69.5v64q0 34 -26.5 58t-72.5 31l-180 30q-76 13 -118 54t-42 103v54q0 73 54.5 116.5t144.5 43.5h113q85 0 137 -51.5t52 -135.5h-72q0 55 -32 88t-85 33h-113
q-57 0 -91 -25.5t-34 -68.5v-54q0 -35 25.5 -59t70.5 -32l179 -31q78 -14 121 -53.5t43 -100.5v-64q0 -73 -56 -117.5t-147 -44.5h-115q-60 0 -106 25.5zM370 933h82l-99 -152h-66z" />
    <glyph glyph-name="sacute" unicode="&#x15b;" horiz-adv-x="520" 
d="M96 35q-46 43 -46 113h70q0 -42 27 -68t71 -26h87q43 0 70 17.5t27 45.5v34q0 19 -15 33.5t-39 19.5l-173 30q-52 9 -83.5 39.5t-31.5 71.5v33q0 58 44 93.5t116 35.5h86q70 0 113 -39.5t43 -104.5h-70q-1 37 -24.5 59.5t-61.5 22.5h-86q-40 0 -64 -18.5t-24 -48.5v-29
q0 -19 16.5 -34t42.5 -19l172 -30q50 -9 80.5 -39t30.5 -72v-40q0 -55 -46.5 -89t-122.5 -34h-87q-76 0 -122 43zM313 732h82l-99 -152h-66z" />
    <glyph glyph-name="Scircumflex" unicode="&#x15c;" horiz-adv-x="627" 
d="M153 17.5q-46 25.5 -71.5 72t-25.5 107.5h72q0 -62 36.5 -100.5t96.5 -38.5h111q59 0 95 26.5t36 69.5v64q0 34 -26.5 58t-72.5 31l-180 30q-76 13 -118 54t-42 103v54q0 73 54.5 116.5t144.5 43.5h113q85 0 137 -51.5t52 -135.5h-72q0 55 -32 88t-85 33h-113
q-57 0 -91 -25.5t-34 -68.5v-54q0 -35 25.5 -59t70.5 -32l179 -31q78 -14 121 -53.5t43 -100.5v-64q0 -73 -56 -117.5t-147 -44.5h-115q-60 0 -106 25.5zM290 943h55l125 -162h-68l-84 112l-84 -112h-68z" />
    <glyph glyph-name="scircumflex" unicode="&#x15d;" horiz-adv-x="520" 
d="M96 35q-46 43 -46 113h70q0 -42 27 -68t71 -26h87q43 0 70 17.5t27 45.5v34q0 19 -15 33.5t-39 19.5l-173 30q-52 9 -83.5 39.5t-31.5 71.5v33q0 58 44 93.5t116 35.5h86q70 0 113 -39.5t43 -104.5h-70q-1 37 -24.5 59.5t-61.5 22.5h-86q-40 0 -64 -18.5t-24 -48.5v-29
q0 -19 16.5 -34t42.5 -19l172 -30q50 -9 80.5 -39t30.5 -72v-40q0 -55 -46.5 -89t-122.5 -34h-87q-76 0 -122 43zM233 742h55l125 -162h-68l-84 112l-84 -112h-68z" />
    <glyph glyph-name="Scedilla" unicode="&#x15e;" horiz-adv-x="627" 
d="M534 318.5q43 -39.5 43 -100.5v-64q0 -73 -56 -117.5t-147 -44.5h-24l-21 -46h7q39 0 62.5 -21t23.5 -55v-11q0 -37 -29 -59.5t-76 -22.5h-55v48h53q22 0 36 9.5t14 24.5v11q0 15 -12.5 24.5t-32.5 9.5h-47v44l19 44h-33q-60 0 -106 25.5t-71.5 72t-25.5 107.5h72
q0 -62 36.5 -100.5t96.5 -38.5h111q59 0 95 26.5t36 69.5v64q0 34 -26.5 58t-72.5 31l-180 30q-76 13 -118 54t-42 103v54q0 73 54.5 116.5t144.5 43.5h113q85 0 137 -51.5t52 -135.5h-72q0 55 -32 88t-85 33h-113q-57 0 -91 -25.5t-34 -68.5v-54q0 -35 25.5 -59t70.5 -32
l179 -31q78 -14 121 -53.5z" />
    <glyph glyph-name="scedilla" unicode="&#x15f;" horiz-adv-x="520" 
d="M443.5 227q30.5 -30 30.5 -72v-40q0 -55 -46.5 -89t-122.5 -34h-12l-21 -46h7q39 0 62.5 -21t23.5 -55v-11q0 -37 -29 -59.5t-76 -22.5h-55v48h53q22 0 36 9.5t14 24.5v11q0 15 -12.5 24.5t-32.5 9.5h-47v44l19 44h-17q-76 0 -122 43t-46 113h70q0 -42 27 -68t71 -26h87
q43 0 70 17.5t27 45.5v34q0 19 -15 33.5t-39 19.5l-173 30q-52 9 -83.5 39.5t-31.5 71.5v33q0 58 44 93.5t116 35.5h86q70 0 113 -39.5t43 -104.5h-70q-1 37 -24.5 59.5t-61.5 22.5h-86q-40 0 -64 -18.5t-24 -48.5v-29q0 -19 16.5 -34t42.5 -19l172 -30q50 -9 80.5 -39z" />
    <glyph glyph-name="Scaron" unicode="&#x160;" horiz-adv-x="627" 
d="M153 17.5q-46 25.5 -71.5 72t-25.5 107.5h72q0 -62 36.5 -100.5t96.5 -38.5h111q59 0 95 26.5t36 69.5v64q0 34 -26.5 58t-72.5 31l-180 30q-76 13 -118 54t-42 103v54q0 73 54.5 116.5t144.5 43.5h113q85 0 137 -51.5t52 -135.5h-72q0 55 -32 88t-85 33h-113
q-57 0 -91 -25.5t-34 -68.5v-54q0 -35 25.5 -59t70.5 -32l179 -31q78 -14 121 -53.5t43 -100.5v-64q0 -73 -56 -117.5t-147 -44.5h-115q-60 0 -106 25.5zM166 943h68l84 -112l84 112h68l-125 -162h-55z" />
    <glyph glyph-name="scaron" unicode="&#x161;" horiz-adv-x="520" 
d="M96 35q-46 43 -46 113h70q0 -42 27 -68t71 -26h87q43 0 70 17.5t27 45.5v34q0 19 -15 33.5t-39 19.5l-173 30q-52 9 -83.5 39.5t-31.5 71.5v33q0 58 44 93.5t116 35.5h86q70 0 113 -39.5t43 -104.5h-70q-1 37 -24.5 59.5t-61.5 22.5h-86q-40 0 -64 -18.5t-24 -48.5v-29
q0 -19 16.5 -34t42.5 -19l172 -30q50 -9 80.5 -39t30.5 -72v-40q0 -55 -46.5 -89t-122.5 -34h-87q-76 0 -122 43zM109 742h68l84 -112l84 112h68l-125 -162h-55z" />
    <glyph glyph-name="uni0162" unicode="&#x162;" horiz-adv-x="578" 
d="M315 0l-25 -54h7q39 0 62.5 -21t23.5 -55v-11q0 -37 -29 -59.5t-76 -22.5h-55v48h53q22 0 36 9.5t14 24.5v11q0 15 -12.5 24.5t-32.5 9.5h-47v44l22 52h-4v636h-222v64h518v-64h-222v-636h-11z" />
    <glyph glyph-name="uni0163" unicode="&#x163;" horiz-adv-x="382" 
d="M306.5 -75q23.5 -21 23.5 -55v-11q0 -37 -29 -59.5t-76 -22.5h-55v48h53q22 0 36 9.5t14 24.5v11q0 15 -12.5 24.5t-32.5 9.5h-47v44l25 60q-43 12 -62.5 45t-19.5 93v289h-88v64h88v151h72v-151h130v-64h-130v-289q0 -44 17.5 -63t58.5 -19h54v-64h-54h-10l-25 -54h7
q39 0 62.5 -21z" />
    <glyph glyph-name="Tcaron" unicode="&#x164;" horiz-adv-x="578" 
d="M252 636h-222v64h518v-64h-222v-636h-74v636zM137 943h68l84 -112l84 112h68l-125 -162h-55z" />
    <glyph glyph-name="tcaron" unicode="&#x165;" horiz-adv-x="532" 
d="M158.5 34q-34.5 34 -34.5 112v289h-88v64h88v151h72v-151h130v-64h-130v-289q0 -44 17.5 -63t58.5 -19h54v-64h-54q-79 0 -113.5 34zM370 551l15 10q30 20 44.5 46.5t14.5 61.5v31h72v-31q0 -56 -21 -95t-65 -67l-19 -12z" />
    <glyph glyph-name="Tbar" unicode="&#x166;" horiz-adv-x="578" 
d="M326 636v-275h156v-60h-156v-301h-74v301h-164v60h164v275h-222v64h518v-64h-222z" />
    <glyph glyph-name="tbar" unicode="&#x167;" horiz-adv-x="372" 
d="M200 435v-136h126v-62h-126v-91q0 -44 17.5 -63t58.5 -19h54v-64h-54q-79 0 -113.5 34t-34.5 112v91h-92v62h92v136h-88v64h88v151h72v-151h130v-64h-130z" />
    <glyph glyph-name="Utilde" unicode="&#x168;" horiz-adv-x="692" 
d="M179 20.5q-49 28.5 -76 81t-27 120.5v478h74v-480q0 -73 39 -117.5t103 -44.5h108q64 0 103 44.5t39 117.5v480h74v-478q0 -68 -27 -120.5t-76 -81t-113 -28.5h-108q-64 0 -113 28.5zM366.5 783.5q-16.5 10.5 -34.5 29.5q-16 15 -24 21t-19 6h-10q-15 0 -26 -14t-12 -37
h-56q1 45 27.5 73t66.5 28h10q25 0 42.5 -11t37.5 -31q12 -13 20 -19t17 -6h10q14 0 24.5 14t11.5 37h56q-1 -45 -27 -73t-65 -28h-10q-23 0 -39.5 10.5z" />
    <glyph glyph-name="utilde" unicode="&#x169;" horiz-adv-x="570" 
d="M113 39q-43 47 -43 123v337h72v-339q0 -47 23 -75.5t60 -28.5h62q46 0 85 37t50 93v313h72v-499h-70v76q-23 -36 -61 -60t-74 -24h-64q-69 0 -112 47zM305.5 582.5q-16.5 10.5 -34.5 29.5q-16 15 -24 21t-19 6h-10q-15 0 -26 -14t-12 -37h-56q1 45 27.5 73t66.5 28h10
q25 0 42.5 -11t37.5 -31q12 -13 20 -19t17 -6h10q14 0 24.5 14t11.5 37h56q-1 -45 -27 -73t-65 -28h-10q-23 0 -39.5 10.5z" />
    <glyph glyph-name="Umacron" unicode="&#x16a;" horiz-adv-x="692" 
d="M179 20.5q-49 28.5 -76 81t-27 120.5v478h74v-480q0 -73 39 -117.5t103 -44.5h108q64 0 103 44.5t39 117.5v480h74v-478q0 -68 -27 -120.5t-76 -81t-113 -28.5h-108q-64 0 -113 28.5zM219 843h255v-52h-255v52z" />
    <glyph glyph-name="umacron" unicode="&#x16b;" horiz-adv-x="570" 
d="M113 39q-43 47 -43 123v337h72v-339q0 -47 23 -75.5t60 -28.5h62q46 0 85 37t50 93v313h72v-499h-70v76q-23 -36 -61 -60t-74 -24h-64q-69 0 -112 47zM158 642h255v-52h-255v52z" />
    <glyph glyph-name="Ubreve" unicode="&#x16c;" horiz-adv-x="692" 
d="M179 20.5q-49 28.5 -76 81t-27 120.5v478h74v-480q0 -73 39 -117.5t103 -44.5h108q64 0 103 44.5t39 117.5v480h74v-478q0 -68 -27 -120.5t-76 -81t-113 -28.5h-108q-64 0 -113 28.5zM239.5 809q-38.5 36 -38.5 95v8h58v-8q0 -37 22 -59t59 -22h12q37 0 59.5 22t22.5 59
v8h57v-8q0 -59 -38.5 -95t-100.5 -36h-12q-62 0 -100.5 36z" />
    <glyph glyph-name="ubreve" unicode="&#x16d;" horiz-adv-x="570" 
d="M113 39q-43 47 -43 123v337h72v-339q0 -47 23 -75.5t60 -28.5h62q46 0 85 37t50 93v313h72v-499h-70v76q-23 -36 -61 -60t-74 -24h-64q-69 0 -112 47zM178.5 608q-38.5 36 -38.5 95v8h58v-8q0 -37 22 -59t59 -22h12q37 0 59.5 22t22.5 59v8h57v-8q0 -59 -38.5 -95
t-100.5 -36h-12q-62 0 -100.5 36z" />
    <glyph glyph-name="Uring" unicode="&#x16e;" horiz-adv-x="692" 
d="M179 20.5q-49 28.5 -76 81t-27 120.5v478h74v-480q0 -73 39 -117.5t103 -44.5h108q64 0 103 44.5t39 117.5v480h74v-478q0 -68 -27 -120.5t-76 -81t-113 -28.5h-108q-64 0 -113 28.5zM269.5 771.5q-29.5 28.5 -29.5 74.5t29.5 74.5t76.5 28.5t76.5 -28.5t29.5 -74.5
t-29.5 -74.5t-76.5 -28.5t-76.5 28.5zM387 806q15 15 15 40t-15 40t-41 15t-41 -15t-15 -40t15 -40t41 -15t41 15z" />
    <glyph glyph-name="uring" unicode="&#x16f;" horiz-adv-x="570" 
d="M113 39q-43 47 -43 123v337h72v-339q0 -47 23 -75.5t60 -28.5h62q46 0 85 37t50 93v313h72v-499h-70v76q-23 -36 -61 -60t-74 -24h-64q-69 0 -112 47zM208.5 570.5q-29.5 28.5 -29.5 74.5t29.5 74.5t76.5 28.5t76.5 -28.5t29.5 -74.5t-29.5 -74.5t-76.5 -28.5t-76.5 28.5
zM326 605q15 15 15 40t-15 40t-41 15t-41 -15t-15 -40t15 -40t41 -15t41 15z" />
    <glyph glyph-name="Uhungarumlaut" unicode="&#x170;" horiz-adv-x="692" 
d="M179 20.5q-49 28.5 -76 81t-27 120.5v478h74v-480q0 -73 39 -117.5t103 -44.5h108q64 0 103 44.5t39 117.5v480h74v-478q0 -68 -27 -120.5t-76 -81t-113 -28.5h-108q-64 0 -113 28.5zM320 933h78l-95 -152h-62zM449 933h78l-95 -152h-62z" />
    <glyph glyph-name="uhungarumlaut" unicode="&#x171;" horiz-adv-x="570" 
d="M113 39q-43 47 -43 123v337h72v-339q0 -47 23 -75.5t60 -28.5h62q46 0 85 37t50 93v313h72v-499h-70v76q-23 -36 -61 -60t-74 -24h-64q-69 0 -112 47zM259 732h78l-95 -152h-62zM388 732h78l-95 -152h-62z" />
    <glyph glyph-name="Uogonek" unicode="&#x172;" horiz-adv-x="692" 
d="M616 700v-478q0 -86 -42 -145.5t-115 -77.5q-30 -16 -47.5 -42t-17.5 -56v-10q0 -20 12.5 -33t35.5 -13h10q13 0 28.5 5.5t27.5 14.5v-56q-10 -8 -27.5 -13t-33.5 -5h-10q-48 0 -76.5 26t-28.5 70v10q0 27 13 52.5t35 42.5h-88q-64 0 -113 28.5t-76 81t-27 120.5v478h74
v-480q0 -73 39 -117.5t103 -44.5h108q64 0 103 44.5t39 117.5v480h74z" />
    <glyph glyph-name="uogonek" unicode="&#x173;" horiz-adv-x="570" 
d="M513.5 -149.5q15.5 5.5 27.5 14.5v-56q-10 -8 -27.5 -13t-33.5 -5h-10q-48 0 -76.5 26t-28.5 70v10q0 31 16.5 59.5t44.5 43.5h-2v76q-23 -36 -61 -60t-74 -24h-64q-69 0 -112 47t-43 123v337h72v-339q0 -47 23 -75.5t60 -28.5h62q46 0 85 37t50 93v313h72v-499
q-31 -16 -49 -42.5t-18 -56.5v-10q0 -20 12.5 -33t35.5 -13h10q13 0 28.5 5.5z" />
    <glyph glyph-name="Wcircumflex" unicode="&#x174;" horiz-adv-x="844" 
d="M175 15.5q-16 15.5 -22 49.5l-119 635h73l109 -604h1l176 567h31q18 0 29 -10.5t18 -32.5l156 -524h1l109 604h73l-119 -635q-6 -34 -22 -49.5t-44 -15.5h-30l-170 564h-1l-175 -564h-30q-28 0 -44 15.5zM394 943h55l125 -162h-68l-84 112l-84 -112h-68z" />
    <glyph glyph-name="wcircumflex" unicode="&#x175;" horiz-adv-x="723" 
d="M691 499l-108 -441q-8 -30 -22 -44t-38 -14h-34l-125 377l-129 -377h-34q-23 0 -38 14t-22 44l-109 441h76l93 -419l135 405h26q29 0 39 -32l122 -370l92 416h76zM334 742h55l125 -162h-68l-84 112l-84 -112h-68z" />
    <glyph glyph-name="Ycircumflex" unicode="&#x176;" horiz-adv-x="622" 
d="M274 269l-258 431h80l215 -364l215 364h80l-258 -431v-269h-74v269zM283 943h55l125 -162h-68l-84 112l-84 -112h-68z" />
    <glyph glyph-name="ycircumflex" unicode="&#x177;" horiz-adv-x="572" 
d="M128 -167.5q-43 35.5 -48 93.5h72q4 -30 27.5 -48.5t57.5 -18.5h78q52 0 80.5 34.5t28.5 96.5v92q-24 -36 -60.5 -59t-72.5 -23h-64q-70 0 -113.5 47t-43.5 123v329h72v-331q0 -47 23.5 -75.5t61.5 -28.5h62q46 0 85 37t50 93v305h72v-509q0 -91 -48 -142t-133 -51h-78
q-66 0 -109 35.5zM257 742h55l125 -162h-68l-84 112l-84 -112h-68z" />
    <glyph glyph-name="Ydieresis" unicode="&#x178;" horiz-adv-x="622" 
d="M274 269l-258 431h80l215 -364l215 364h80l-258 -431v-269h-74v269zM175.5 794.5q-13.5 13.5 -13.5 35.5t13.5 35.5t35.5 13.5t35.5 -13.5t13.5 -35.5t-13.5 -35.5t-35.5 -13.5t-35.5 13.5zM374.5 794.5q-13.5 13.5 -13.5 35.5t13.5 35.5t35.5 13.5t35.5 -13.5
t13.5 -35.5t-13.5 -35.5t-35.5 -13.5t-35.5 13.5z" />
    <glyph glyph-name="Zacute" unicode="&#x179;" horiz-adv-x="578" 
d="M40 33l396 604h-378v63h480v-33l-396 -604h386v-63h-488v33zM341 933h82l-99 -152h-66z" />
    <glyph glyph-name="zacute" unicode="&#x17a;" horiz-adv-x="472" 
d="M36 32l296 406h-284v61h388v-32l-296 -406h291v-61h-395v32zM288 732h82l-99 -152h-66z" />
    <glyph glyph-name="Zdotaccent" unicode="&#x17b;" horiz-adv-x="578" 
d="M40 33l396 604h-378v63h480v-33l-396 -604h386v-63h-488v33zM250 796q-15 15 -15 39t15 39t39 15t39 -15t15 -39t-15 -39t-39 -15t-39 15z" />
    <glyph glyph-name="zdotaccent" unicode="&#x17c;" horiz-adv-x="472" 
d="M36 32l296 406h-284v61h388v-32l-296 -406h291v-61h-395v32zM197 595q-15 15 -15 39t15 39t39 15t39 -15t15 -39t-15 -39t-39 -15t-39 15z" />
    <glyph glyph-name="Zcaron" unicode="&#x17d;" horiz-adv-x="578" 
d="M40 33l396 604h-378v63h480v-33l-396 -604h386v-63h-488v33zM137 943h68l84 -112l84 112h68l-125 -162h-55z" />
    <glyph glyph-name="zcaron" unicode="&#x17e;" horiz-adv-x="472" 
d="M36 32l296 406h-284v61h388v-32l-296 -406h291v-61h-395v32zM84 742h68l84 -112l84 112h68l-125 -162h-55z" />
    <glyph glyph-name="uni018F" unicode="&#x18f;" horiz-adv-x="708" 
d="M531.5 677q55.5 -31 86 -87.5t30.5 -130.5v-204q0 -78 -30.5 -137.5t-86 -92.5t-127.5 -33h-114q-68 0 -120.5 32t-81 90t-28.5 134v112h514v99q0 82 -46.5 132.5t-123.5 50.5h-106q-73 0 -117 -44t-44 -117h-74q0 67 29.5 118.5t82.5 80t123 28.5h106q72 0 127.5 -31z
M527 112q47 54 47 143v41h-440v-48q0 -86 43 -138t113 -52h114q76 0 123 54z" />
    <glyph glyph-name="florin" unicode="&#x192;" horiz-adv-x="601" 
d="M56 -104h38q43 0 67 24t38 80l108 437h-85v64h100l10 37q24 89 64.5 127.5t110.5 38.5h38v-62h-38q-40 0 -63.5 -24t-39.5 -80l-10 -37h108v-64h-123l-108 -437q-22 -89 -62 -127.5t-110 -38.5h-43v62z" />
    <glyph glyph-name="Ohorn" unicode="&#x1a0;" horiz-adv-x="766" 
d="M781 698v-12q0 -81 -39.5 -126.5t-110.5 -46.5q5 -30 5 -56v-214q0 -75 -29.5 -131.5t-83 -88t-122.5 -31.5h-107q-69 0 -122 31t-82.5 88t-29.5 132v214q0 75 29.5 132t82.5 88t123 31h106q75 0 130.5 -35.5t82.5 -99.5h18q40 0 60.5 29t20.5 84v12h68zM562 457
q0 83 -45 134t-118 51h-102q-73 0 -118 -51t-45 -134v-214q0 -83 44.5 -134t117.5 -51h103q73 0 118 51t45 134v214z" />
    <glyph glyph-name="ohorn" unicode="&#x1a1;" horiz-adv-x="634" 
d="M645 497v-12q0 -76 -34.5 -121t-96.5 -51v-132q0 -85 -52 -137t-138 -52h-82q-84 0 -135 52t-51 137v137q0 85 51.5 137t136.5 52h82q70 0 118 -36t64 -98q34 4 51.5 32.5t17.5 79.5v12h68zM442 318q0 56 -32 90.5t-84 34.5h-82q-52 0 -84 -34.5t-32 -90.5v-137
q0 -57 31 -91t83 -34h82q54 0 86 34.5t32 90.5v137z" />
    <glyph glyph-name="Uhorn" unicode="&#x1af;" horiz-adv-x="766" 
d="M769 700v-12q0 -82 -40 -127.5t-111 -45.5h-2v-293q0 -68 -27 -120.5t-76 -81t-113 -28.5h-108q-64 0 -113 28.5t-76 81t-27 120.5v478h74v-480q0 -73 39 -117.5t103 -44.5h108q64 0 103 44.5t39 117.5v480h74v-125h4q40 0 60.5 29t20.5 84v12h68z" />
    <glyph glyph-name="uhorn" unicode="&#x1b0;" horiz-adv-x="642" 
d="M626 499v-12q0 -76 -34.5 -121t-97.5 -51v-315h-70v76q-23 -36 -61 -60t-74 -24h-64q-69 0 -112 47t-43 123v337h72v-339q0 -47 23 -75.5t60 -28.5h62q46 0 85 37t50 93v313h72v-124q64 12 64 112v12h68z" />
    <glyph glyph-name="uni01CD" unicode="&#x1cd;" horiz-adv-x="647" 
d="M477 194h-307l-72 -194h-76l269 700h34q33 0 48 -40l154 -404h1v-2l97 -254h-76zM193 256h261l-130 348h-1zM172 943h68l84 -112l84 112h68l-125 -162h-55z" />
    <glyph glyph-name="uni01CE" unicode="&#x1ce;" horiz-adv-x="556" 
d="M103.5 30q-43.5 38 -43.5 102v32q0 63 45 101t119 38h64q33 0 68 -10t60 -27v83q0 42 -26 68.5t-69 26.5h-80q-43 0 -69 -20t-26 -53h-72q0 61 46 98.5t121 37.5h80q74 0 119.5 -43.5t45.5 -114.5v-349h-68v70q-23 -36 -60.5 -57t-77.5 -21h-60q-73 0 -116.5 38zM282 55
q47 0 84 29t50 77v37q-20 19 -55.5 30.5t-72.5 11.5h-64q-41 0 -66.5 -21t-25.5 -55v-32q0 -35 24 -56t64 -21h62zM131 742h68l84 -112l84 112h68l-125 -162h-55z" />
    <glyph glyph-name="uni01CF" unicode="&#x1cf;" horiz-adv-x="254" 
d="M90 700h74v-700h-74v700zM-25 943h68l84 -112l84 112h68l-125 -162h-55z" />
    <glyph glyph-name="uni01D0" unicode="&#x1d0;" horiz-adv-x="236" 
d="M82 499h72v-499h-72v499zM-34 742h68l84 -112l84 112h68l-125 -162h-55z" />
    <glyph glyph-name="uni01D1" unicode="&#x1d1;" horiz-adv-x="696" 
d="M172 23q-53 31 -82.5 88t-29.5 132v214q0 75 29.5 132t82.5 88t123 31h106q70 0 123 -31t82.5 -88t29.5 -132v-214q0 -75 -29.5 -131.5t-83 -88t-122.5 -31.5h-107q-69 0 -122 31zM399 58q73 0 118 51t45 134v214q0 83 -45 134t-118 51h-102q-73 0 -118 -51t-45 -134
v-214q0 -83 44.5 -134t117.5 -51h103zM196 943h68l84 -112l84 112h68l-125 -162h-55z" />
    <glyph glyph-name="uni01D2" unicode="&#x1d2;" horiz-adv-x="570" 
d="M107 44q-51 52 -51 137v137q0 85 51.5 137t136.5 52h82q85 0 136.5 -52t51.5 -137v-137q0 -85 -52 -137t-138 -52h-82q-84 0 -135 52zM324 56q54 0 86 34.5t32 90.5v137q0 56 -32 90.5t-84 34.5h-82q-52 0 -84 -34.5t-32 -90.5v-137q0 -57 31 -91t83 -34h82zM133 742h68
l84 -112l84 112h68l-125 -162h-55z" />
    <glyph glyph-name="uni01D3" unicode="&#x1d3;" horiz-adv-x="692" 
d="M179 20.5q-49 28.5 -76 81t-27 120.5v478h74v-480q0 -73 39 -117.5t103 -44.5h108q64 0 103 44.5t39 117.5v480h74v-478q0 -68 -27 -120.5t-76 -81t-113 -28.5h-108q-64 0 -113 28.5zM194 943h68l84 -112l84 112h68l-125 -162h-55z" />
    <glyph glyph-name="uni01D4" unicode="&#x1d4;" horiz-adv-x="570" 
d="M113 39q-43 47 -43 123v337h72v-339q0 -47 23 -75.5t60 -28.5h62q46 0 85 37t50 93v313h72v-499h-70v76q-23 -36 -61 -60t-74 -24h-64q-69 0 -112 47zM133 742h68l84 -112l84 112h68l-125 -162h-55z" />
    <glyph glyph-name="uni01D5" unicode="&#x1d5;" horiz-adv-x="692" 
d="M179 20.5q-49 28.5 -76 81t-27 120.5v478h74v-480q0 -73 39 -117.5t103 -44.5h108q64 0 103 44.5t39 117.5v480h74v-478q0 -68 -27 -120.5t-76 -81t-113 -28.5h-108q-64 0 -113 28.5zM219 987h255v-52h-255v52zM210.5 794.5q-13.5 13.5 -13.5 35.5t13.5 35.5t35.5 13.5
t35.5 -13.5t13.5 -35.5t-13.5 -35.5t-35.5 -13.5t-35.5 13.5zM409.5 794.5q-13.5 13.5 -13.5 35.5t13.5 35.5t35.5 13.5t35.5 -13.5t13.5 -35.5t-13.5 -35.5t-35.5 -13.5t-35.5 13.5z" />
    <glyph glyph-name="uni01D6" unicode="&#x1d6;" horiz-adv-x="570" 
d="M113 39q-43 47 -43 123v337h72v-339q0 -47 23 -75.5t60 -28.5h62q46 0 85 37t50 93v313h72v-499h-70v76q-23 -36 -61 -60t-74 -24h-64q-69 0 -112 47zM158 786h255v-52h-255v52zM149.5 593.5q-13.5 13.5 -13.5 35.5t13.5 35.5t35.5 13.5t35.5 -13.5t13.5 -35.5
t-13.5 -35.5t-35.5 -13.5t-35.5 13.5zM348.5 593.5q-13.5 13.5 -13.5 35.5t13.5 35.5t35.5 13.5t35.5 -13.5t13.5 -35.5t-13.5 -35.5t-35.5 -13.5t-35.5 13.5z" />
    <glyph glyph-name="uni01D7" unicode="&#x1d7;" horiz-adv-x="692" 
d="M179 20.5q-49 28.5 -76 81t-27 120.5v478h74v-480q0 -73 39 -117.5t103 -44.5h108q64 0 103 44.5t39 117.5v480h74v-478q0 -68 -27 -120.5t-76 -81t-113 -28.5h-108q-64 0 -113 28.5zM379 1041h70l-76 -116h-58zM210.5 794.5q-13.5 13.5 -13.5 35.5t13.5 35.5t35.5 13.5
t35.5 -13.5t13.5 -35.5t-13.5 -35.5t-35.5 -13.5t-35.5 13.5zM409.5 794.5q-13.5 13.5 -13.5 35.5t13.5 35.5t35.5 13.5t35.5 -13.5t13.5 -35.5t-13.5 -35.5t-35.5 -13.5t-35.5 13.5z" />
    <glyph glyph-name="uni01D8" unicode="&#x1d8;" horiz-adv-x="570" 
d="M113 39q-43 47 -43 123v337h72v-339q0 -47 23 -75.5t60 -28.5h62q46 0 85 37t50 93v313h72v-499h-70v76q-23 -36 -61 -60t-74 -24h-64q-69 0 -112 47zM318 840h70l-76 -116h-58zM149.5 593.5q-13.5 13.5 -13.5 35.5t13.5 35.5t35.5 13.5t35.5 -13.5t13.5 -35.5
t-13.5 -35.5t-35.5 -13.5t-35.5 13.5zM348.5 593.5q-13.5 13.5 -13.5 35.5t13.5 35.5t35.5 13.5t35.5 -13.5t13.5 -35.5t-13.5 -35.5t-35.5 -13.5t-35.5 13.5z" />
    <glyph glyph-name="uni01D9" unicode="&#x1d9;" horiz-adv-x="692" 
d="M179 20.5q-49 28.5 -76 81t-27 120.5v478h74v-480q0 -73 39 -117.5t103 -44.5h108q64 0 103 44.5t39 117.5v480h74v-478q0 -68 -27 -120.5t-76 -81t-113 -28.5h-108q-64 0 -113 28.5zM217 1060h61l68 -91l68 91h61l-104 -135h-50zM210.5 794.5q-13.5 13.5 -13.5 35.5
t13.5 35.5t35.5 13.5t35.5 -13.5t13.5 -35.5t-13.5 -35.5t-35.5 -13.5t-35.5 13.5zM409.5 794.5q-13.5 13.5 -13.5 35.5t13.5 35.5t35.5 13.5t35.5 -13.5t13.5 -35.5t-13.5 -35.5t-35.5 -13.5t-35.5 13.5z" />
    <glyph glyph-name="uni01DA" unicode="&#x1da;" horiz-adv-x="570" 
d="M113 39q-43 47 -43 123v337h72v-339q0 -47 23 -75.5t60 -28.5h62q46 0 85 37t50 93v313h72v-499h-70v76q-23 -36 -61 -60t-74 -24h-64q-69 0 -112 47zM156 859h61l68 -91l68 91h61l-104 -135h-50zM149.5 593.5q-13.5 13.5 -13.5 35.5t13.5 35.5t35.5 13.5t35.5 -13.5
t13.5 -35.5t-13.5 -35.5t-35.5 -13.5t-35.5 13.5zM348.5 593.5q-13.5 13.5 -13.5 35.5t13.5 35.5t35.5 13.5t35.5 -13.5t13.5 -35.5t-13.5 -35.5t-35.5 -13.5t-35.5 13.5z" />
    <glyph glyph-name="uni01DB" unicode="&#x1db;" horiz-adv-x="692" 
d="M179 20.5q-49 28.5 -76 81t-27 120.5v478h74v-480q0 -73 39 -117.5t103 -44.5h108q64 0 103 44.5t39 117.5v480h74v-478q0 -68 -27 -120.5t-76 -81t-113 -28.5h-108q-64 0 -113 28.5zM237 1041h70l64 -116h-58zM210.5 794.5q-13.5 13.5 -13.5 35.5t13.5 35.5t35.5 13.5
t35.5 -13.5t13.5 -35.5t-13.5 -35.5t-35.5 -13.5t-35.5 13.5zM409.5 794.5q-13.5 13.5 -13.5 35.5t13.5 35.5t35.5 13.5t35.5 -13.5t13.5 -35.5t-13.5 -35.5t-35.5 -13.5t-35.5 13.5z" />
    <glyph glyph-name="uni01DC" unicode="&#x1dc;" horiz-adv-x="570" 
d="M113 39q-43 47 -43 123v337h72v-339q0 -47 23 -75.5t60 -28.5h62q46 0 85 37t50 93v313h72v-499h-70v76q-23 -36 -61 -60t-74 -24h-64q-69 0 -112 47zM176 840h70l64 -116h-58zM149.5 593.5q-13.5 13.5 -13.5 35.5t13.5 35.5t35.5 13.5t35.5 -13.5t13.5 -35.5
t-13.5 -35.5t-35.5 -13.5t-35.5 13.5zM348.5 593.5q-13.5 13.5 -13.5 35.5t13.5 35.5t35.5 13.5t35.5 -13.5t13.5 -35.5t-13.5 -35.5t-35.5 -13.5t-35.5 13.5z" />
    <glyph glyph-name="Gcaron" unicode="&#x1e6;" horiz-adv-x="684" 
d="M168.5 23.5q-51.5 31.5 -80 89.5t-28.5 133v208q0 75 29.5 132.5t82.5 89.5t122 32h106q66 0 116.5 -28t78.5 -79t28 -117h-72q0 71 -41.5 114.5t-109.5 43.5h-106q-72 0 -116 -51.5t-44 -136.5v-208q0 -85 42.5 -136.5t112.5 -51.5h108q71 0 115 49t44 129v60h-194v65
h266v-125q0 -72 -28.5 -127.5t-81 -86t-121.5 -30.5h-108q-69 0 -120.5 31.5zM194 943h68l84 -112l84 112h68l-125 -162h-55z" />
    <glyph glyph-name="gcaron" unicode="&#x1e7;" horiz-adv-x="578" 
d="M129 -167.5q-43 35.5 -48 93.5h72q4 -30 27.5 -48.5t57.5 -18.5h83q52 0 80.5 34.5t28.5 96.5v77q-22 -30 -57.5 -48.5t-68.5 -18.5h-73q-51 0 -91 24t-62 67t-22 100v117q0 89 51.5 144t135.5 55h70q32 0 66 -18t53 -46v56h70v-509q0 -91 -48 -142t-133 -51h-83
q-66 0 -109 35.5zM304 64q50 0 85.5 39.5t40.5 100.5v123q-4 51 -37.5 83.5t-79.5 32.5h-68q-53 0 -85 -37t-32 -98v-117q0 -56 29.5 -91.5t75.5 -35.5h71zM126 742h68l84 -112l84 112h68l-125 -162h-55z" />
    <glyph glyph-name="Aringacute" unicode="&#x1fa;" horiz-adv-x="647" 
d="M477 194h-307l-72 -194h-76l269 700h34q33 0 48 -40l154 -404h1v-2l97 -254h-76zM193 256h261l-130 348h-1zM247.5 771.5q-29.5 28.5 -29.5 74.5t29.5 74.5t76.5 28.5t76.5 -28.5t29.5 -74.5t-29.5 -74.5t-76.5 -28.5t-76.5 28.5zM365 806q15 15 15 40t-15 40t-41 15
t-41 -15t-15 -40t15 -40t41 -15t41 15zM376 1142h82l-99 -152h-66z" />
    <glyph glyph-name="aringacute" unicode="&#x1fb;" horiz-adv-x="556" 
d="M103.5 30q-43.5 38 -43.5 102v32q0 63 45 101t119 38h64q33 0 68 -10t60 -27v83q0 42 -26 68.5t-69 26.5h-80q-43 0 -69 -20t-26 -53h-72q0 61 46 98.5t121 37.5h80q74 0 119.5 -43.5t45.5 -114.5v-349h-68v70q-23 -36 -60.5 -57t-77.5 -21h-60q-73 0 -116.5 38zM282 55
q47 0 84 29t50 77v37q-20 19 -55.5 30.5t-72.5 11.5h-64q-41 0 -66.5 -21t-25.5 -55v-32q0 -35 24 -56t64 -21h62zM206.5 570.5q-29.5 28.5 -29.5 74.5t29.5 74.5t76.5 28.5t76.5 -28.5t29.5 -74.5t-29.5 -74.5t-76.5 -28.5t-76.5 28.5zM324 605q15 15 15 40t-15 40t-41 15
t-41 -15t-15 -40t15 -40t41 -15t41 15zM335 941h82l-99 -152h-66z" />
    <glyph glyph-name="AEacute" unicode="&#x1fc;" horiz-adv-x="926" 
d="M391 700h485v-64h-384v-246h344v-64h-344v-262h384v-64h-393q-31 0 -48 17.5t-17 48.5v128h-228l-106 -194h-76zM418 256v352h-1l-193 -352h194zM597 933h82l-99 -152h-66z" />
    <glyph glyph-name="aeacute" unicode="&#x1fd;" horiz-adv-x="908" 
d="M104.5 30.5q-44.5 38.5 -44.5 101.5v32q0 64 45 102t121 38h64q32 0 67.5 -10.5t60.5 -27.5v83q0 42 -26 68t-69 26h-80q-43 0 -70 -20t-27 -52h-72q0 61 46.5 98.5t122.5 37.5h80q44 0 80 -19.5t56 -53.5h1q21 33 60.5 53t83.5 20h78q79 0 127.5 -51t48.5 -135v-88h-368
v-62q0 -53 31 -84t83 -31h72q50 0 80 27.5t30 73.5h70q0 -74 -49.5 -119.5t-130.5 -45.5h-72q-53 0 -93.5 21.5t-62.5 63.5h-1q-64 -85 -165 -85h-60q-73 0 -117.5 38.5zM786 295v26q0 55 -28 88.5t-76 33.5h-78q-52 0 -83 -35t-31 -92v-21h296zM284 56q47 0 84 28.5
t50 76.5v37q-20 19 -55.5 30.5t-72.5 11.5h-64q-44 0 -69 -20t-25 -56v-32q0 -34 24.5 -55t65.5 -21h62zM512 732h82l-99 -152h-66z" />
    <glyph glyph-name="Oslashacute" unicode="&#x1fe;" horiz-adv-x="696" 
d="M575 636q61 -69 61 -179v-214q0 -75 -29.5 -131.5t-83 -88t-122.5 -31.5h-107q-71 0 -126 33l-47 -70h-67l71 106q-65 70 -65 182v214q0 75 29.5 132t82.5 88t123 31h106q75 0 131 -36l43 65h67zM167 124l326 489q-40 29 -94 29h-102q-73 0 -118 -51t-45 -134v-214
q0 -70 33 -119zM532 572l-325 -488q38 -26 89 -26h103q73 0 118 51t45 134v214q0 66 -30 115zM396 933h82l-99 -152h-66z" />
    <glyph glyph-name="oslashacute" unicode="&#x1ff;" horiz-adv-x="570" 
d="M463 454q24 -25 37.5 -60t13.5 -76v-137q0 -85 -52 -137t-138 -52h-82q-48 0 -89 19l-32 -46h-70l55 79q-24 25 -37 60t-13 77v137q0 85 51.5 137t136.5 52h82q49 0 90 -19l33 47h70zM148 104l229 328q-24 11 -51 11h-82q-52 0 -84 -34.5t-32 -90.5v-137q0 -45 20 -77z
M421 395l-229 -329q23 -10 50 -10h82q54 0 86 34.5t32 90.5v137q0 46 -21 77zM333 732h82l-99 -152h-66z" />
    <glyph glyph-name="uni0218" unicode="&#x218;" horiz-adv-x="627" 
d="M153 17.5q-46 25.5 -71.5 72t-25.5 107.5h72q0 -62 36.5 -100.5t96.5 -38.5h111q59 0 95 26.5t36 69.5v64q0 34 -26.5 58t-72.5 31l-180 30q-76 13 -118 54t-42 103v54q0 73 54.5 116.5t144.5 43.5h113q85 0 137 -51.5t52 -135.5h-72q0 55 -32 88t-85 33h-113
q-57 0 -91 -25.5t-34 -68.5v-54q0 -35 25.5 -59t70.5 -32l179 -31q78 -14 121 -53.5t43 -100.5v-64q0 -73 -56 -117.5t-147 -44.5h-115q-60 0 -106 25.5zM218 -224l15 10q30 20 44.5 46.5t14.5 61.5v31h72v-31q0 -56 -21 -95t-65 -67l-19 -12z" />
    <glyph glyph-name="uni0219" unicode="&#x219;" horiz-adv-x="520" 
d="M96 35q-46 43 -46 113h70q0 -42 27 -68t71 -26h87q43 0 70 17.5t27 45.5v34q0 19 -15 33.5t-39 19.5l-173 30q-52 9 -83.5 39.5t-31.5 71.5v33q0 58 44 93.5t116 35.5h86q70 0 113 -39.5t43 -104.5h-70q-1 37 -24.5 59.5t-61.5 22.5h-86q-40 0 -64 -18.5t-24 -48.5v-29
q0 -19 16.5 -34t42.5 -19l172 -30q50 -9 80.5 -39t30.5 -72v-40q0 -55 -46.5 -89t-122.5 -34h-87q-76 0 -122 43zM161 -224l15 10q30 20 44.5 46.5t14.5 61.5v31h72v-31q0 -56 -21 -95t-65 -67l-19 -12z" />
    <glyph glyph-name="uni021A" unicode="&#x21a;" horiz-adv-x="578" 
d="M252 636h-222v64h518v-64h-222v-636h-74v636zM179 -224l15 10q30 20 44.5 46.5t14.5 61.5v31h72v-31q0 -56 -21 -95t-65 -67l-19 -12z" />
    <glyph glyph-name="uni021B" unicode="&#x21b;" horiz-adv-x="382" 
d="M158.5 34q-34.5 34 -34.5 112v289h-88v64h88v151h72v-151h130v-64h-130v-289q0 -44 17.5 -63t58.5 -19h54v-64h-54q-79 0 -113.5 34zM126 -224l15 10q30 20 44.5 46.5t14.5 61.5v31h72v-31q0 -56 -21 -95t-65 -67l-19 -12z" />
    <glyph glyph-name="uni0237" unicode="&#x237;" horiz-adv-x="254" 
d="M-32 -135h35q52 0 74.5 28t22.5 92v514h72v-509q0 -101 -39 -145t-130 -44h-35v64z" />
    <glyph glyph-name="uni0251" unicode="&#x251;" horiz-adv-x="580" 
d="M141 16q-40 24 -62.5 67t-22.5 100v120q0 60 23.5 106.5t65 72t94.5 25.5h72q35 0 67.5 -18t51.5 -48v58h70v-383q0 -52 46 -52h24v-64h-34q-41 0 -65.5 19.5t-30.5 56.5h-1q-27 -41 -64.5 -62.5t-79.5 -21.5h-63q-51 0 -91 24zM299 56q32 0 61.5 20.5t48.5 53.5t21 68
v126q-7 54 -39 86.5t-78 32.5h-72q-49 0 -81 -39t-32 -101v-120q0 -56 30 -91.5t76 -35.5h65z" />
    <glyph glyph-name="uni0259" unicode="&#x259;" horiz-adv-x="548" 
d="M98.5 43q-48.5 51 -48.5 135v88h370v60q0 53 -31 85t-83 32h-74q-50 0 -80 -27.5t-30 -73.5h-70q0 74 49.5 119.5t130.5 45.5h74q84 0 135 -49.5t51 -131.5v-143q0 -86 -51 -138.5t-135 -52.5h-80q-79 0 -127.5 51zM306 56q52 0 83 35t31 92v21h-298v-26q0 -55 28 -88.5
t76 -33.5h80z" />
    <glyph glyph-name="uni02BB" unicode="&#x2bb;" horiz-adv-x="241" 
d="M34 594q0 56 21 95t65 67l19 12l41 -56l-15 -10q-30 -20 -44.5 -46.5t-14.5 -61.5v-31h-72v31z" />
    <glyph glyph-name="uni02BC" unicode="&#x2bc;" horiz-adv-x="241" 
d="M34 551l15 10q30 20 44.5 46.5t14.5 61.5v31h72v-31q0 -56 -21 -95t-65 -67l-19 -12z" />
    <glyph glyph-name="uni02BE" unicode="&#x2be;" 
d="M0 572q26 0 41 15t15 40t-15 40t-41 15v48q47 0 76.5 -28.5t29.5 -74.5t-29.5 -74.5t-76.5 -28.5v48z" />
    <glyph glyph-name="uni02BF" unicode="&#x2bf;" 
d="M-76.5 552.5q-29.5 28.5 -29.5 74.5t29.5 74.5t76.5 28.5v-48q-26 0 -41 -15t-15 -40t15 -40t41 -15v-48q-47 0 -76.5 28.5z" />
    <glyph glyph-name="circumflex" unicode="&#x2c6;" horiz-adv-x="404" 
d="M229 742l125 -162h-68l-84 112l-84 -112h-68l124 162h55z" />
    <glyph glyph-name="caron" unicode="&#x2c7;" horiz-adv-x="404" 
d="M50 742h68l84 -112l84 112h68l-125 -162h-55z" />
    <glyph glyph-name="uni02C8" unicode="&#x2c8;" 
d="M-36 727h72v-147h-72v147z" />
    <glyph glyph-name="uni02C9" unicode="&#x2c9;" horiz-adv-x="492" 
d="M74 660h344v-52h-344v52z" />
    <glyph glyph-name="uni02CA" unicode="&#x2ca;" 
d="M-86 589l122 143l52 -49l-138 -127z" />
    <glyph glyph-name="uni02CB" unicode="&#x2cb;" 
d="M-86 683l52 49l122 -143l-36 -33z" />
    <glyph glyph-name="uni02CC" unicode="&#x2cc;" 
d="M-33 -40h72v-147h-72v147z" />
    <glyph glyph-name="breve" unicode="&#x2d8;" horiz-adv-x="390" 
d="M88.5 608q-38.5 36 -38.5 95v8h58v-8q0 -37 22 -59t59 -22h12q37 0 59.5 22t22.5 59v8h57v-8q0 -59 -38.5 -95t-100.5 -36h-12q-62 0 -100.5 36z" />
    <glyph glyph-name="dotaccent" unicode="&#x2d9;" horiz-adv-x="208" 
d="M65 595q-15 15 -15 39t15 39t39 15t39 -15t15 -39t-15 -39t-39 -15t-39 15z" />
    <glyph glyph-name="ring" unicode="&#x2da;" horiz-adv-x="312" 
d="M79.5 570.5q-29.5 28.5 -29.5 74.5t29.5 74.5t76.5 28.5t76.5 -28.5t29.5 -74.5t-29.5 -74.5t-76.5 -28.5t-76.5 28.5zM197 605q15 15 15 40t-15 40t-41 15t-41 -15t-15 -40t15 -40t41 -15t41 15z" />
    <glyph glyph-name="ogonek" unicode="&#x2db;" horiz-adv-x="276" 
d="M78.5 -183q-28.5 26 -28.5 70v10q0 31 16.5 59.5t44.5 43.5h68q-31 -16 -49 -42.5t-18 -56.5v-10q0 -20 12.5 -33t35.5 -13h10q13 0 28.5 5.5t27.5 14.5v-56q-10 -8 -27.5 -13t-33.5 -5h-10q-48 0 -76.5 26z" />
    <glyph glyph-name="tilde" unicode="&#x2dc;" horiz-adv-x="423" 
d="M231.5 582.5q-16.5 10.5 -34.5 29.5q-16 15 -24 21t-19 6h-10q-15 0 -26 -14t-12 -37h-56q1 45 27.5 73t66.5 28h10q25 0 42.5 -11t37.5 -31q12 -13 20 -19t17 -6h10q14 0 24.5 14t11.5 37h56q-1 -45 -27 -73t-65 -28h-10q-23 0 -39.5 10.5z" />
    <glyph glyph-name="hungarumlaut" unicode="&#x2dd;" horiz-adv-x="386" 
d="M129 732h78l-95 -152h-62zM258 732h78l-95 -152h-62z" />
    <glyph glyph-name="gravecomb" unicode="&#x300;" 
d="M-131 732h82l83 -152h-66z" />
    <glyph glyph-name="acutecomb" unicode="&#x301;" 
d="M52 732h82l-99 -152h-66z" />
    <glyph glyph-name="uni0302" unicode="&#x302;" 
d="M-28 742h55l125 -162h-68l-84 112l-84 -112h-68z" />
    <glyph glyph-name="tildecomb" unicode="&#x303;" 
d="M20.5 582.5q-16.5 10.5 -34.5 29.5q-16 15 -24 21t-19 6h-10q-15 0 -26 -14t-12 -37h-56q1 45 27.5 73t66.5 28h10q25 0 42.5 -11t37.5 -31q12 -13 20 -19t17 -6h10q14 0 24.5 14t11.5 37h56q-1 -45 -27 -73t-65 -28h-10q-23 0 -39.5 10.5z" />
    <glyph glyph-name="uni0304" unicode="&#x304;" 
d="M-127 642h255v-52h-255v52z" />
    <glyph glyph-name="uni0306" unicode="&#x306;" 
d="M-106.5 608q-38.5 36 -38.5 95v8h58v-8q0 -37 22 -59t59 -22h12q37 0 59.5 22t22.5 59v8h57v-8q0 -59 -38.5 -95t-100.5 -36h-12q-62 0 -100.5 36z" />
    <glyph glyph-name="uni0307" unicode="&#x307;" 
d="M-39 595q-15 15 -15 39t15 39t39 15t39 -15t15 -39t-15 -39t-39 -15t-39 15z" />
    <glyph glyph-name="uni0308" unicode="&#x308;" 
d="M-135.5 593.5q-13.5 13.5 -13.5 35.5t13.5 35.5t35.5 13.5t35.5 -13.5t13.5 -35.5t-13.5 -35.5t-35.5 -13.5t-35.5 13.5zM63.5 593.5q-13.5 13.5 -13.5 35.5t13.5 35.5t35.5 13.5t35.5 -13.5t13.5 -35.5t-13.5 -35.5t-35.5 -13.5t-35.5 13.5z" />
    <glyph glyph-name="hookabovecomb" unicode="&#x309;" 
d="M-35 582q0 21 12.5 35t35.5 29q17 12 25.5 20t8.5 19v11q0 33 -36 33h-20q-42 0 -42 -42h-58q0 94 100 94h20q47 0 71.5 -21.5t24.5 -63.5v-11q0 -23 -13 -38t-37 -32q-15 -10 -22.5 -17.5t-7.5 -15.5v-16h-62v16z" />
    <glyph glyph-name="uni030A" unicode="&#x30a;" 
d="M-76.5 570.5q-29.5 28.5 -29.5 74.5t29.5 74.5t76.5 28.5t76.5 -28.5t29.5 -74.5t-29.5 -74.5t-76.5 -28.5t-76.5 28.5zM41 605q15 15 15 40t-15 40t-41 15t-41 -15t-15 -40t15 -40t41 -15t41 15z" />
    <glyph glyph-name="uni030B" unicode="&#x30b;" 
d="M-26 732h78l-95 -152h-62zM103 732h78l-95 -152h-62z" />
    <glyph glyph-name="uni030C" unicode="&#x30c;" 
d="M-152 742h68l84 -112l84 112h68l-125 -162h-55z" />
    <glyph glyph-name="uni031B" unicode="&#x31b;" 
d="M-115 507h22q40 0 60.5 29t20.5 84v12h68v-12q0 -82 -40 -127.5t-111 -45.5h-20v60z" />
    <glyph glyph-name="dotbelowcomb" unicode="&#x323;" 
d="M-39 -164q-15 15 -15 39t15 39t39 15t39 -15t15 -39t-15 -39t-39 -15t-39 15z" />
    <glyph glyph-name="uni0324" unicode="&#x324;" 
d="M-135.5 -155.5q-13.5 13.5 -13.5 35.5t13.5 35.5t35.5 13.5t35.5 -13.5t13.5 -35.5t-13.5 -35.5t-35.5 -13.5t-35.5 13.5zM63.5 -155.5q-13.5 13.5 -13.5 35.5t13.5 35.5t35.5 13.5t35.5 -13.5t13.5 -35.5t-13.5 -35.5t-35.5 -13.5t-35.5 13.5z" />
    <glyph glyph-name="uni0326" unicode="&#x326;" 
d="M-110 -224l15 10q30 20 44.5 46.5t14.5 61.5v31h72v-31q0 -56 -21 -95t-65 -67l-19 -12z" />
    <glyph glyph-name="uni0327" unicode="&#x327;" 
d="M-66 -175h53q22 0 36 9.5t14 24.5v11q0 15 -12.5 24.5t-32.5 9.5h-47v44l28 66h59l-31 -68h7q39 0 62.5 -21t23.5 -55v-11q0 -37 -29 -59.5t-76 -22.5h-55v48z" />
    <glyph glyph-name="uni0328" unicode="&#x328;" 
d="M-69.5 -183q-28.5 26 -28.5 70v10q0 31 16.5 59.5t44.5 43.5h68q-31 -16 -49 -42.5t-18 -56.5v-10q0 -20 12.5 -33t35.5 -13h10q13 0 28.5 5.5t27.5 14.5v-56q-10 -8 -27.5 -13t-33.5 -5h-10q-48 0 -76.5 26z" />
    <glyph glyph-name="uni032E" unicode="&#x32e;" 
d="M-106.5 -166q-38.5 36 -38.5 95v8h58v-8q0 -37 22 -59t59 -22h12q37 0 59.5 22t22.5 59v8h57v-8q0 -59 -38.5 -95t-100.5 -36h-12q-62 0 -100.5 36z" />
    <glyph glyph-name="uni0331" unicode="&#x331;" 
d="M-127 -74h255v-52h-255v52z" />
    <glyph glyph-name="uni0394" unicode="&#x394;" horiz-adv-x="705" 
d="M56 64l270 636h60l263 -636v-64h-593v64zM573 66l-217 530l-224 -530h441z" />
    <glyph glyph-name="uni03A9" unicode="&#x3a9;" horiz-adv-x="764" 
d="M56 66h199v114q-79 8 -123 57.5t-44 128.5v121q0 104 62.5 162.5t173.5 58.5h114q110 0 172 -58.5t62 -162.5v-121q0 -80 -43 -129t-120 -57v-114h199v-66h-273v244h49q54 0 84 32t30 90v121q0 73 -42 114t-118 41h-114q-76 0 -119 -41t-43 -114v-121q0 -58 31 -90
t87 -32h49v-244h-273v66z" />
    <glyph glyph-name="uni03BC" unicode="&#x3bc;" horiz-adv-x="570" 
d="M494 499v-499h-70v76q-23 -36 -61 -60t-74 -24h-60q-57 0 -87 36v-211h-72v682h72v-347q0 -45 23 -70.5t64 -25.5h58q46 0 85 37t50 93v313h72z" />
    <glyph glyph-name="pi" unicode="&#x3c0;" horiz-adv-x="721" 
d="M545 435v-289q0 -44 17.5 -63t58.5 -19h44v-64h-44q-79 0 -113.5 34t-34.5 112v289h-230v-435h-72v435h-115v64h609v-64h-120z" />
    <glyph glyph-name="uni0E01" unicode="&#xe01;" horiz-adv-x="602" 
d="M120 269q0 73 -80 88q7 52 36 98t73.5 74.5t95.5 28.5h118q71 0 115 -43.5t44 -114.5v-400h-72v400q0 42 -26.5 68t-69.5 26h-109q-42 0 -76.5 -30t-51.5 -79q35 -17 55 -48t20 -68v-269h-72v269z" />
    <glyph glyph-name="uni0E02" unicode="&#xe02;" horiz-adv-x="555" 
d="M222 16q-16 16 -16 44v164q0 22 8 40t23 42q16 27 23.5 44t7.5 39v36q0 35 -19.5 56.5t-51.5 21.5h-23q-32 0 -49.5 -9.5t-28.5 -30.5l1 -1q16 8 34 8q41 0 65.5 -24t24.5 -64q0 -41 -26.5 -66.5t-69.5 -25.5q-42 0 -68.5 26t-26.5 68v38q0 63 38.5 99.5t105.5 36.5h29
q60 0 95 -36.5t35 -96.5v-36q0 -29 -8 -50.5t-23 -47.5q-12 -20 -18 -35t-6 -32v-163h68q27 0 42 18.5t15 51.5v419h72v-419q0 -62 -33 -96.5t-92 -34.5h-84q-28 0 -44 16zM158.5 349q12.5 13 12.5 33q0 21 -12.5 33t-33.5 12t-33.5 -12t-12.5 -33q0 -20 12.5 -33t33.5 -13
t33.5 13z" />
    <glyph glyph-name="uni0E03" unicode="&#xe03;" horiz-adv-x="568" 
d="M235 16q-16 16 -16 44v174q0 19 8 34.5t26 43.5t27.5 47t9.5 42v45q0 27 -6 40.5t-21 13.5h-4l-52 -49l-54 49h-10q-48 0 -51 -54l1 -1q13 8 33 8q40 0 65 -24t25 -63q0 -41 -26 -66t-69 -25q-42 0 -67.5 26t-25.5 69v39q0 78 29 113.5t91 35.5h15l44 -43l42 43h12
q46 0 69.5 -27.5t23.5 -80.5v-49q0 -28 -9 -50t-27 -53q-14 -24 -20.5 -39.5t-6.5 -32.5v-165h68q27 0 42 18.5t15 51.5v419h72v-419q0 -62 -33 -96.5t-92 -34.5h-84q-28 0 -44 16zM153.5 333.5q12.5 12.5 12.5 32.5t-12.5 32t-32.5 12t-32.5 -12t-12.5 -32t12.5 -32.5
t32.5 -12.5t32.5 12.5z" />
    <glyph glyph-name="uni0E04" unicode="&#xe04;" horiz-adv-x="628" 
d="M499.5 508q48.5 -50 48.5 -132v-376h-72v376q0 53 -29 85.5t-76 32.5h-106q-52 0 -84 -32.5t-32 -85.5v-269h2l62 152q20 49 44 69t60 20q45 0 72 -26t27 -70q0 -42 -27.5 -68.5t-71.5 -26.5q-22 0 -41.5 10t-30.5 27l-87 -194h-78v376q0 82 51 132t134 50h106
q80 0 128.5 -50zM282 287q-13 -13 -13 -35t13 -35t35 -13t35 13t13 35t-13 35t-35 13t-35 -13z" />
    <glyph glyph-name="uni0E05" unicode="&#xe05;" horiz-adv-x="632" 
d="M515 512q37 -46 37 -128v-384h-72v384q0 51 -17 79.5t-47 28.5h-12l-87 -77l-86 77h-12q-32 0 -51 -29t-19 -79v-276h2l62 149q20 49 44 69t60 20q45 0 72 -26t27 -70q0 -42 -27.5 -68.5t-71.5 -26.5q-23 0 -41.5 10t-30.5 27l-88 -192h-77v384q0 82 38 128t105 46h22
l72 -69l73 69h22q66 0 103 -46zM282 285q-13 -13 -13 -35t13 -35t35 -13t35 13t13 35t-13 35t-35 13t-35 -13z" />
    <glyph glyph-name="uni0E06" unicode="&#xe06;" horiz-adv-x="647" 
d="M129.5 19.5q-30.5 29.5 -30.5 77.5q0 56 34.5 88.5t90.5 32.5v16q0 19 10 35.5t31 42.5q22 27 33.5 46.5t11.5 42.5v45q0 27 -6 40.5t-21 13.5h-6l-54 -49l-56 49h-12q-48 0 -51 -54l1 -1q13 8 33 8q40 0 65 -24t25 -63q0 -41 -26 -66t-69 -25q-42 0 -67.5 26t-25.5 69
v39q0 78 29 113.5t91 35.5h17l46 -43l44 43h14q46 0 69.5 -27.5t23.5 -80.5v-49q0 -29 -11.5 -51.5t-32.5 -50.5q-18 -24 -26 -39t-8 -32v-15q46 -8 100.5 -42.5t98.5 -82.5v462h72v-550h-72q-43 61 -98 103t-101 50v-142q-14 -10 -37 -15.5t-50 -5.5q-49 0 -79.5 29.5z
M165.5 333.5q12.5 12.5 12.5 32.5t-12.5 32t-32.5 12t-32.5 -12t-12.5 -32t12.5 -32.5t32.5 -12.5t32.5 12.5zM230 47v115h-8q-31 0 -48 -17.5t-17 -47.5q0 -26 13.5 -40.5t36.5 -14.5q18 0 23 5z" />
    <glyph glyph-name="uni0E07" unicode="&#xe07;" horiz-adv-x="504" 
d="M396.5 533.5q27.5 -26.5 27.5 -70.5v-345q0 -56 -29 -87t-81 -31h-43q-19 0 -35 10t-26 28l-178 319h78l165 -295h33q21 0 32.5 14.5t11.5 41.5v255q-13 -6 -33 -6q-44 0 -70.5 26.5t-26.5 69.5q0 44 27.5 70.5t73.5 26.5t73.5 -26.5zM358 428q13 13 13 35t-13 35t-35 13
t-35 -13t-13 -35t13 -35t35 -13t35 13z" />
    <glyph glyph-name="uni0E08" unicode="&#xe08;" horiz-adv-x="580" 
d="M456.5 514q43.5 -44 43.5 -116v-260q0 -68 -34 -103t-98 -35h-75q-29 0 -45 16t-16 44v104q-13 -6 -33 -6q-44 0 -70.5 26.5t-26.5 69.5q0 44 27.5 70.5t73.5 26.5t73.5 -26.5t27.5 -70.5v-192h60q33 0 48.5 18.5t15.5 57.5v260q0 44 -23.5 70t-62.5 26h-124
q-48 0 -77 -31.5t-29 -82.5h-72q0 80 49 129t129 49h124q71 0 114.5 -44zM238 219q13 13 13 35t-13 35t-35 13t-35 -13t-13 -35t13 -35t35 -13t35 13z" />
    <glyph glyph-name="uni0E09" unicode="&#xe09;" horiz-adv-x="621" 
d="M548 151q21 -25 21 -63q0 -44 -27.5 -71t-71.5 -27q-45 0 -73 27t-28 71v4l-123 -92h-76v145q-13 -5 -27 -5q-44 0 -70.5 26.5t-26.5 69.5q0 44 27.5 70.5t72.5 26.5q43 0 69.5 -26.5t26.5 -70.5v-169l221 160v171q0 44 -23.5 70t-62.5 26h-137q-48 0 -77 -29t-29 -76
h-72q0 76 49 122.5t129 46.5h137q71 0 114.5 -44t43.5 -116v-183l-44 -33q36 -6 57 -31zM111 201q13 -13 34 -13t34 13t13 35t-12.5 35t-33.5 13q-22 0 -35 -13t-13 -35t13 -35zM503 52q13 13 13 35t-13 36t-34 14t-34 -14t-13 -36t13 -35t34 -13t34 13z" />
    <glyph glyph-name="uni0E0A" unicode="&#xe0a;" horiz-adv-x="556" 
d="M480.5 473.5q-29.5 -48.5 -76.5 -72.5q32 -10 51.5 -34t19.5 -55v-181q0 -62 -33 -96.5t-92 -34.5h-84q-28 0 -44 16t-16 44v164q0 22 8 40t23 42q16 27 23.5 44t7.5 39v36q0 35 -19.5 56.5t-51.5 21.5h-23q-32 0 -49.5 -9.5t-28.5 -30.5l1 -1q16 8 34 8q41 0 65.5 -24
t24.5 -64q0 -41 -26.5 -66.5t-69.5 -25.5q-42 0 -68.5 26t-26.5 68v38q0 63 38.5 99.5t105.5 36.5h29q60 0 95 -36.5t35 -96.5v-2q47 10 78.5 56t38.5 114l1 10h67l-1 -10q-7 -71 -36.5 -119.5zM91.5 415q-12.5 -12 -12.5 -33q0 -20 12.5 -33t33.5 -13t33.5 13t12.5 33
q0 21 -12.5 33t-33.5 12t-33.5 -12zM403 313q0 57 -70 64q-2 -24 -9.5 -42t-21.5 -44q-12 -20 -18 -35t-6 -32v-165h68q27 0 42 18.5t15 51.5v184z" />
    <glyph glyph-name="uni0E0B" unicode="&#xe0b;" horiz-adv-x="569" 
d="M493.5 473.5q-29.5 -48.5 -76.5 -72.5q32 -10 51.5 -34t19.5 -55v-181q0 -62 -33 -96.5t-92 -34.5h-84q-28 0 -44 16t-16 44v174q0 19 8 34.5t26 43.5t27.5 47t9.5 42v45q0 27 -6 40.5t-21 13.5h-4l-52 -49l-54 49h-10q-48 0 -51 -54l1 -1q13 8 33 8q40 0 65 -24t25 -63
q0 -41 -26 -66t-69 -25q-42 0 -67.5 26t-25.5 69v39q0 78 29 113.5t91 35.5h15l44 -43l42 43h12q46 0 69.5 -27.5t23.5 -80.5v-25q44 13 73 58t36 110l1 10h67l-1 -10q-7 -71 -36.5 -119.5zM88.5 398q-12.5 -12 -12.5 -32t12.5 -32.5t32.5 -12.5t32.5 12.5t12.5 32.5
t-12.5 32t-32.5 12t-32.5 -12zM416 313q0 54 -64 63q-3 -20 -10.5 -35.5t-22.5 -42.5q-14 -23 -21 -38.5t-7 -33.5v-167h68q27 0 42 18.5t15 51.5v184z" />
    <glyph glyph-name="uni0E0C" unicode="&#xe0c;" horiz-adv-x="899" 
d="M819 550v-550h-72q-42 59 -100.5 101t-109.5 52v-144q-12 -8 -33 -13.5t-44 -5.5q-50 0 -76.5 28t-26.5 78q0 48 28 81t74 37v186q0 42 -27 68t-71 26h-116q-42 0 -76.5 -30t-51.5 -79q35 -17 54 -47.5t19 -68.5v-93q16 7 34 7q44 0 70 -26t26 -70t-27.5 -70.5
t-73.5 -26.5t-73.5 26.5t-27.5 70.5v182q0 73 -78 88q7 52 36 98t73.5 74.5t95.5 28.5h125q71 0 115 -43.5t44 -114.5v-186q55 -10 115.5 -44.5t102.5 -81.5v462h72zM478 160h-8q-26 0 -41 -17.5t-15 -46.5q0 -28 10 -42t34 -14q6 0 12 1.5t8 3.5v115zM184 122
q-13 -13 -13 -35t13 -35t35 -13t35 13t13 35t-13 35t-35 13t-35 -13z" />
    <glyph glyph-name="uni0E0D" unicode="&#xe0d;" horiz-adv-x="907" 
d="M827 550v-412q0 -64 -33 -101t-97 -37h-192q-28 0 -44 16t-16 44v340q0 42 -27 68t-71 26h-102q-42 0 -76.5 -30t-51.5 -79q35 -17 54 -47.5t19 -68.5v-93q16 7 34 7q44 0 70 -26t26 -70t-27.5 -70.5t-73.5 -26.5t-73.5 26.5t-27.5 70.5v182q0 73 -78 88q7 52 36 98
t73.5 74.5t95.5 28.5h111q71 0 115 -43.5t44 -114.5v-336h171q38 0 53.5 18t15.5 56v412h72zM184 122q-13 -13 -13 -35t13 -35t35 -13t35 13t13 35t-13 35t-35 13t-35 -13zM713.5 -161q36.5 34 49.5 101h64q-13 -90 -70 -140.5t-146 -50.5q-82 0 -131.5 30t-49.5 83
q0 40 25 63.5t66 23.5t66 -24t25 -63q0 -34 -23 -54q12 -3 32 -3q56 0 92.5 34zM553.5 -170q12.5 12 12.5 32t-12.5 32.5t-32.5 12.5t-32.5 -12.5t-12.5 -32.5t12.5 -32t32.5 -12t32.5 12z" />
    <glyph glyph-name="uni0E0E" unicode="&#xe0e;" horiz-adv-x="621" 
d="M497 514.5q44 -43.5 44 -114.5v-487q0 -62 -30 -102t-92 -59l-120 80q-3 -38 -27.5 -60t-62.5 -22q-42 0 -68 25.5t-26 66.5q0 42 26 67.5t68 25.5q20 0 38 -6t41 -21l131 -85q28 9 39 30t11 60v487q0 42 -26.5 68t-69.5 26h-97q-42 0 -75.5 -29.5t-49.5 -79.5
q37 -17 60 -48.5t23 -67.5v-182q0 -43 -27.5 -70t-71.5 -27t-71.5 27t-27.5 70q0 44 26.5 70t69.5 26q15 0 30 -5v91q0 32 -24 56.5t-64 31.5q7 52 35 98t71.5 74.5t93.5 28.5h108q71 0 115 -43.5zM170 52q13 13 13 35t-13 35t-35 13t-35 -13t-13 -35t13 -35t35 -13t35 13z
M241.5 -190.5q12.5 12.5 12.5 32.5q0 21 -12.5 34t-32.5 13t-33 -13t-13 -34t12.5 -33t33.5 -12q20 0 32.5 12.5z" />
    <glyph glyph-name="uni0E0F" unicode="&#xe0f;" horiz-adv-x="621" 
d="M497 514.5q44 -43.5 44 -114.5v-495q0 -58 -27.5 -94.5t-83.5 -54.5l-78 73l-52 -73l-58 58q-7 -30 -29.5 -47t-53.5 -17q-41 0 -66.5 24.5t-25.5 65.5q0 42 25 66.5t66 24.5q23 0 41.5 -8.5t35.5 -25.5l58 -58l53 70l90 -81q33 13 33 77v495q0 42 -26.5 68t-69.5 26h-97
q-42 0 -75 -29.5t-50 -79.5q37 -17 60 -48.5t23 -67.5v-182q0 -43 -27.5 -70t-71.5 -27t-71.5 27t-27.5 70q0 44 26.5 70t69.5 26q15 0 30 -5v91q0 32 -24 56.5t-64 31.5q7 52 35 98t71.5 74.5t93.5 28.5h108q71 0 115 -43.5zM170 52q13 13 13 35t-13 35t-35 13t-35 -13
t-13 -35t13 -35t35 -13t35 13zM191.5 -192.5q12.5 12.5 12.5 32.5q0 21 -12.5 34t-33.5 13q-20 0 -32.5 -13t-12.5 -34q0 -20 12.5 -32.5t33.5 -12.5q20 0 32.5 12.5z" />
    <glyph glyph-name="uni0E10" unicode="&#xe10;" horiz-adv-x="545" 
d="M386 286q-93 54 -333 89q0 91 42.5 138t125.5 47q24 0 44.5 -5.5t49.5 -16.5q27 -10 46.5 -15.5t41.5 -5.5q24 0 46 8.5t38 24.5v-66q-14 -14 -35 -21.5t-43 -7.5q-25 0 -45 5t-53 16q-27 10 -47.5 15t-43.5 5q-43 0 -66.5 -18.5t-26.5 -54.5q208 -33 329 -105v-180
q0 -65 -34.5 -101.5t-95.5 -36.5h-62q-29 0 -45 16t-16 44v59q-13 -5 -27 -5q-44 0 -70.5 26t-26.5 69t27.5 69.5t72.5 26.5q43 0 68.5 -26t25.5 -70v-149h47q38 0 52 18.5t14 59.5v148zM144 175q13 -13 34 -13t34 13t13 34t-12.5 34t-33.5 13q-22 0 -35 -13t-13 -34t13 -34
zM483 -32.5q20 -19.5 20 -51.5v-82q0 -44 -30 -73t-76 -34l-61 58l-50 -58l-57 57q-8 -27 -31.5 -44.5t-53.5 -17.5q-42 0 -69 25.5t-27 66.5q0 42 26 67.5t68 25.5q23 0 41.5 -10.5t37.5 -29.5l66 -63l46 51l78 -72q21 5 31.5 19.5t10.5 34.5v15q-10 -6 -26 -6
q-32 0 -51.5 19t-19.5 51t20.5 51.5t53.5 19.5t53 -19.5zM406 -108q9 -9 24 -9t24 9t9 24t-9 24t-24 9t-24 -9t-9 -24t9 -24zM175.5 -219.5q12.5 12.5 12.5 33.5q0 22 -12.5 35t-33.5 13t-34 -13t-13 -35q0 -21 13 -33.5t34 -12.5t33.5 12.5z" />
    <glyph glyph-name="uni0E11" unicode="&#xe11;" horiz-adv-x="655" 
d="M195 167q0 29 9 54t25 54l11 19q24 42 36 72.5t12 70.5v11q0 52 -31 52h-2l-48 -48l-50 48h-10q-50 0 -53 -55l1 -1q13 8 33 8q40 0 65 -24t25 -63q0 -41 -26 -66t-69 -25q-42 0 -67.5 26t-25.5 69v40q0 77 30 113t92 36h14l41 -42l39 42h9q91 0 91 -108v-5q0 -12 -3 -24
h2l22 31l77 106h21q52 0 81 -35t29 -98v-425h-72v425q0 32 -10 49.5t-28 17.5h-4l-100 -132q-53 -70 -73.5 -110.5t-20.5 -78.5v-171h-72v167zM155.5 332.5q12.5 12.5 12.5 32.5t-12.5 32t-32.5 12t-32.5 -12t-12.5 -32t12.5 -32.5t32.5 -12.5t32.5 12.5z" />
    <glyph glyph-name="uni0E12" unicode="&#xe12;" horiz-adv-x="919" 
d="M839 550v-550h-70q-42 60 -95 102.5t-97 51.5v-143q-14 -10 -35 -15.5t-46 -5.5q-48 0 -74 28t-26 79q0 47 28 79t74 36v172q0 51 -17.5 79.5t-48.5 28.5h-12l-94 -77l-93 77h-12q-32 0 -50.5 -28.5t-18.5 -79.5v-322h14q49 0 88 26t62 74q-12 -5 -28 -5q-41 0 -67.5 26
t-26.5 69q0 44 27.5 70.5t73.5 26.5t73 -27.5t27 -74.5q0 -58 -30.5 -115.5t-85.5 -94.5t-124 -37h-75v384q0 82 38.5 128t106.5 46h22l79 -69l80 69h22q66 0 103 -46t37 -128v-170q106 -20 199 -124v460h72zM260 217q13 -13 35 -13t35 13t13 35t-13 35t-35 13t-35 -13
t-13 -35t13 -35zM518 158h-8q-56 0 -56 -61q0 -30 10 -43.5t31 -13.5q18 0 23 5v113z" />
    <glyph glyph-name="uni0E13" unicode="&#xe13;" horiz-adv-x="893" 
d="M842 143.5q15 -23.5 15 -54.5q0 -44 -27.5 -71.5t-72.5 -27.5q-46 0 -73.5 26.5t-27.5 69.5q0 22 10 40q-78 -27 -158 -126h-68v400q0 42 -27 68t-71 26h-97q-42 0 -76.5 -30t-51.5 -79q35 -17 54 -47.5t19 -68.5v-93q16 7 34 7q44 0 70 -26t26 -70t-27.5 -70.5
t-73.5 -26.5t-73.5 26.5t-27.5 70.5v182q0 73 -78 88q7 52 36 98t73.5 74.5t95.5 28.5h106q71 0 115 -43.5t44 -114.5v-316q45 46 100.5 76t117.5 36v354h72v-372q27 -11 42 -34.5zM791 52.5q13 13.5 13 35.5t-13 35.5t-35 13.5t-35 -13.5t-13 -35.5t13 -35.5t35 -13.5
t35 13.5zM184 122q-13 -13 -13 -35t13 -35t35 -13t35 13t13 35t-13 35t-35 13t-35 -13z" />
    <glyph glyph-name="uni0E14" unicode="&#xe14;" horiz-adv-x="630" 
d="M500 508q50 -50 50 -132v-376h-72v376q0 53 -30 85.5t-78 32.5h-106q-50 0 -81 -33.5t-31 -88.5v-311h17q57 0 101.5 29.5t64.5 78.5q-12 -6 -30 -6q-41 0 -67.5 26t-26.5 69q0 44 27.5 70.5t73.5 26.5t73 -27.5t27 -74.5q0 -70 -33.5 -128t-92.5 -91.5t-130 -33.5h-76
v372q0 84 50.5 135t133.5 51h106q80 0 130 -50zM277 223q13 -13 35 -13t35 13t13 35t-13 35t-35 13t-35 -13t-13 -35t13 -35z" />
    <glyph glyph-name="uni0E15" unicode="&#xe15;" horiz-adv-x="634" 
d="M517 512q37 -46 37 -128v-384h-72v384q0 51 -16.5 79.5t-46.5 28.5h-12l-88 -77l-87 77h-12q-32 0 -50 -28.5t-18 -79.5v-323h17q58 0 103 27.5t64 74.5q-12 -6 -30 -6q-41 0 -67.5 26t-26.5 69q0 44 27.5 70.5t73.5 26.5t73 -27.5t27 -74.5q0 -69 -34 -125.5t-93 -89
t-130 -32.5h-76v384q0 82 38 128t106 46h22l73 -69l74 69h22q65 0 102 -46zM278 217q13 -13 35 -13t35 13t13 35t-13 35t-35 13t-35 -13t-13 -35t13 -35z" />
    <glyph glyph-name="uni0E16" unicode="&#xe16;" horiz-adv-x="602" 
d="M478 514.5q44 -43.5 44 -114.5v-400h-72v400q0 42 -26.5 68t-69.5 26h-109q-42 0 -76.5 -30t-51.5 -79q35 -17 54 -47.5t19 -68.5v-93q16 7 34 7q44 0 70 -26t26 -70t-27.5 -70.5t-73.5 -26.5t-73.5 26.5t-27.5 70.5v182q0 73 -78 88q7 52 36 98t73.5 74.5t95.5 28.5h118
q71 0 115 -43.5zM184 122q-13 -13 -13 -35t13 -35t35 -13t35 13t13 35t-13 35t-35 13t-35 -13z" />
    <glyph glyph-name="uni0E17" unicode="&#xe17;" horiz-adv-x="649" 
d="M536.5 521q32.5 -37 32.5 -102v-419h-72v419q0 34 -13.5 53.5t-37.5 19.5h-4l-199 -492h-83v373q-14 -6 -33 -6q-44 0 -70.5 26.5t-26.5 69.5q0 44 27.5 70.5t73.5 26.5t73.5 -26.5t27.5 -70.5v-340h1l171 435h42q58 0 90.5 -37zM166 428q13 13 13 35t-13 35t-35 13
t-35 -13t-13 -35t13 -35t35 -13t35 13z" />
    <glyph glyph-name="uni0E18" unicode="&#xe18;" horiz-adv-x="564" 
d="M122 16q-16 16 -16 44v204h72v-200h167q38 0 53.5 18t15.5 56v125q-46 26 -138.5 50t-219.5 42q0 101 42.5 153t125.5 52q24 0 45.5 -5.5t52.5 -16.5q28 -10 49 -15.5t43 -5.5q24 0 46 8.5t38 24.5v-66q-14 -14 -35 -21.5t-43 -7.5q-25 0 -46 5t-56 16q-32 10 -52 15
t-43 5q-41 0 -65 -23.5t-28 -69.5q110 -17 203.5 -44t152.5 -64v-157q0 -68 -35.5 -103t-104.5 -35h-180q-28 0 -44 16z" />
    <glyph glyph-name="uni0E19" unicode="&#xe19;" horiz-adv-x="636" 
d="M585 143.5q15 -23.5 15 -54.5q0 -44 -27.5 -71.5t-72.5 -27.5q-46 0 -73.5 26.5t-27.5 69.5q0 24 11 40q-48 -14 -96.5 -48t-83.5 -78h-70v373q-14 -6 -33 -6q-44 0 -70.5 26.5t-26.5 69.5q0 44 27.5 70.5t73.5 26.5t73.5 -26.5t27.5 -70.5v-379q43 44 108.5 74.5
t130.5 37.5v354h72v-372q27 -11 42 -34.5zM166 428q13 13 13 35t-13 35t-35 13t-35 -13t-13 -35t13 -35t35 -13t35 13zM534 52.5q13 13.5 13 35.5t-13 35.5t-35 13.5t-35 -13.5t-13 -35.5t13 -35.5t35 -13.5t35 13.5z" />
    <glyph glyph-name="uni0E1A" unicode="&#xe1a;" horiz-adv-x="647" 
d="M567 550v-412q0 -64 -33 -101t-97 -37h-217q-28 0 -44 16t-16 44v313q-14 -6 -33 -6q-44 0 -70.5 26.5t-26.5 69.5q0 44 27.5 70.5t73.5 26.5t73.5 -26.5t27.5 -70.5v-399h194q38 0 53.5 18t15.5 56v412h72zM166 428q13 13 13 35t-13 35t-35 13t-35 -13t-13 -35t13 -35
t35 -13t35 13z" />
    <glyph glyph-name="uni0E1B" unicode="&#xe1b;" horiz-adv-x="649" 
d="M569 762v-624q0 -64 -33 -101t-97 -37h-219q-28 0 -44 16t-16 44v313q-14 -6 -33 -6q-44 0 -70.5 26.5t-26.5 69.5q0 44 27.5 70.5t73.5 26.5t73.5 -26.5t27.5 -70.5v-399h196q38 0 53.5 18t15.5 56v624h72zM166 428q13 13 13 35t-13 35t-35 13t-35 -13t-13 -35t13 -35
t35 -13t35 13z" />
    <glyph glyph-name="uni0E1C" unicode="&#xe1c;" horiz-adv-x="621" 
d="M541 550v-494q0 -25 -14.5 -40.5t-38.5 -15.5h-24l-152 229l-155 -229h-24q-24 0 -38.5 15t-14.5 40v408q0 44 27.5 70.5t73.5 26.5t74 -26.5t28 -70.5q0 -43 -26.5 -69.5t-70.5 -26.5q-21 0 -34 6v-284l148 220h10q15 0 25 -16l134 -202v459h72zM146 498
q-13 -13 -13 -35t13 -35t35 -13t35.5 13t13.5 35t-13.5 35t-35.5 13t-35 -13z" />
    <glyph glyph-name="uni0E1D" unicode="&#xe1d;" horiz-adv-x="623" 
d="M543 762v-706q0 -25 -14.5 -40.5t-38.5 -15.5h-24l-153 229l-156 -229h-24q-24 0 -38.5 15t-14.5 40v408q0 44 27.5 70.5t73.5 26.5t74 -26.5t28 -70.5q0 -43 -26.5 -69.5t-70.5 -26.5q-21 0 -34 6v-284l149 220h10q15 0 25 -16l135 -202v671h72zM146 498
q-13 -13 -13 -35t13 -35t35 -13t35.5 13t13.5 35t-13.5 35t-35.5 13t-35 -13z" />
    <glyph glyph-name="uni0E1E" unicode="&#xe1e;" horiz-adv-x="699" 
d="M619 550v-490q0 -29 -16.5 -44.5t-46.5 -15.5h-30l-136 390l-137 -390h-30q-30 0 -46.5 15.5t-16.5 44.5v313q-14 -6 -33 -6q-44 0 -70.5 26.5t-26.5 69.5q0 44 27.5 70.5t73.5 26.5q45 0 72.5 -26.5t27.5 -70.5v-363h1l141 398h16q8 0 15 -6t11 -17l132 -375h1v450h71z
M166 428q13 13 13 35t-13 35t-35 13t-35 -13t-13 -35t13 -35t35 -13t35 13z" />
    <glyph glyph-name="uni0E1F" unicode="&#xe1f;" horiz-adv-x="701" 
d="M621 762v-702q0 -29 -16.5 -44.5t-46.5 -15.5h-30l-137 390l-138 -390h-30q-30 0 -46.5 15.5t-16.5 44.5v313q-14 -6 -33 -6q-44 0 -70.5 26.5t-26.5 69.5q0 44 27.5 70.5t73.5 26.5q45 0 72.5 -26.5t27.5 -70.5v-363h1l142 398h16q8 0 15 -6t11 -17l133 -375h1v662h71z
M166 428q13 13 13 35t-13 35t-35 13t-35 -13t-13 -35t13 -35t35 -13t35 13z" />
    <glyph glyph-name="uni0E20" unicode="&#xe20;" horiz-adv-x="621" 
d="M497 514.5q44 -43.5 44 -114.5v-400h-72v400q0 42 -26.5 68t-69.5 26h-97q-42 0 -75.5 -29.5t-49.5 -79.5q37 -17 60 -48.5t23 -67.5v-182q0 -43 -27.5 -70t-71.5 -27t-71.5 27t-27.5 70q0 44 26.5 70t69.5 26q15 0 30 -5v91q0 32 -24 56.5t-64 31.5q7 52 35 98
t71.5 74.5t93.5 28.5h108q71 0 115 -43.5zM170 52q13 13 13 35t-13 35t-35 13t-35 -13t-13 -35t13 -35t35 -13t35 13z" />
    <glyph glyph-name="uni0E21" unicode="&#xe21;" horiz-adv-x="625" 
d="M545 550v-550h-70q-40 58 -101.5 101t-121.5 55v-145q-14 -10 -37 -15.5t-50 -5.5q-49 0 -79.5 29.5t-30.5 77.5q0 56 34.5 88.5t90.5 32.5v155q-13 -6 -33 -6q-44 0 -70.5 26.5t-26.5 69.5q0 44 27.5 70.5t73.5 26.5t73.5 -26.5t27.5 -70.5v-247q59 -11 120 -46t101 -80
v460h72zM186 428q13 13 13 35t-13 35t-35 13t-35 -13t-13 -35t13 -35t35 -13t35 13zM186 162h-8q-31 0 -48 -17.5t-17 -47.5q0 -26 13.5 -40.5t36.5 -14.5q18 0 23 5v115z" />
    <glyph glyph-name="uni0E22" unicode="&#xe22;" horiz-adv-x="595" 
d="M515 550v-412q0 -64 -33 -101t-97 -37h-247q-28 0 -44 16t-16 44v61q0 47 19.5 81.5t57.5 53.5v1q-45 17 -66 47.5t-21 80.5q0 79 38.5 127t100.5 48q46 0 74 -26.5t28 -70.5q0 -43 -26.5 -69.5t-70.5 -26.5q-25 0 -45.5 11t-31.5 31q-2 -8 -2 -24q0 -51 29 -74t92 -23
h42v-62h-42q-104 0 -104 -105v-57h224q37 0 53 17t16 57v412h72zM172 498q-13 -13 -13 -35t13 -35t35 -13t35.5 13t13.5 35t-13.5 35t-35.5 13t-35 -13z" />
    <glyph glyph-name="uni0E23" unicode="&#xe23;" horiz-adv-x="502" 
d="M139.5 469q-24.5 -27 -27.5 -75q84 -16 159.5 -42.5t133.5 -60.5v-204q0 -44 -27.5 -70.5t-73.5 -26.5t-73.5 26.5t-27.5 70.5q0 43 26.5 69.5t70.5 26.5q20 0 33 -6v82q-93 54 -293 90q0 98 44 154.5t122 56.5q24 0 44.5 -5.5t51.5 -17.5q26 -10 42 -15t34 -5
q24 0 46 8.5t38 24.5v-66q-14 -14 -35 -21.5t-43 -7.5q-21 0 -40 5t-46 15q-30 11 -49.5 16t-43.5 5q-41 0 -65.5 -27zM339 52q13 13 13 35t-13 35t-35 13t-35 -13t-13 -35t13 -35t35 -13t35 13z" />
    <glyph glyph-name="uni0E24" unicode="&#xe24;" horiz-adv-x="604" 
d="M480 514.5q44 -43.5 44 -114.5v-600h-72v600q0 42 -26.5 68t-69.5 26h-110q-41 0 -76 -30t-52 -79q35 -17 53.5 -47.5t18.5 -68.5v-93q16 7 34 7q44 0 70 -26t26 -70t-27.5 -70.5t-73.5 -26.5t-73.5 26.5t-27.5 70.5v182q0 73 -78 88q7 52 36 98t73.5 74.5t94.5 28.5h121
q71 0 115 -43.5zM184 122q-13 -13 -13 -35t13 -35t35 -13t35 13t13 35t-13 35t-35 13t-35 -13z" />
    <glyph glyph-name="uni0E25" unicode="&#xe25;" horiz-adv-x="585" 
d="M461.5 514q43.5 -44 43.5 -116v-398h-72v57q-5 105 -52 163.5t-125 58.5q-50 0 -77.5 -26t-27.5 -72v-4q14 6 34 6q44 0 70 -26t26 -70t-27.5 -70.5t-73.5 -26.5t-73.5 26.5t-27.5 70.5v82q0 82 47 128t130 46q58 0 104.5 -25t71.5 -70h1v150q0 44 -23.5 70t-62.5 26
h-111q-49 0 -78.5 -29t-29.5 -76h-70q0 76 49 122.5t129 46.5h111q71 0 114.5 -44zM215 122q-13 13 -35 13t-35 -13t-13 -35t13 -35t35 -13t35 13t13 35t-13 35z" />
    <glyph glyph-name="uni0E26" unicode="&#xe26;" horiz-adv-x="621" 
d="M497 514.5q44 -43.5 44 -114.5v-600h-72v600q0 42 -26.5 68t-69.5 26h-97q-42 0 -75.5 -29.5t-49.5 -79.5q37 -17 60 -48.5t23 -67.5v-182q0 -43 -27.5 -70t-71.5 -27t-71.5 27t-27.5 70q0 44 26.5 70t69.5 26q15 0 30 -5v91q0 32 -24 56.5t-64 31.5q7 52 35 98
t71.5 74.5t93.5 28.5h108q71 0 115 -43.5zM170 52q13 13 13 35t-13 35t-35 13t-35 -13t-13 -35t13 -35t35 -13t35 13z" />
    <glyph glyph-name="uni0E27" unicode="&#xe27;" horiz-adv-x="533" 
d="M409.5 514q43.5 -44 43.5 -116v-311q0 -44 -27.5 -70.5t-73.5 -26.5t-73.5 26.5t-27.5 70.5q0 43 26.5 69.5t70.5 26.5q20 0 33 -6v221q0 44 -23.5 70t-62.5 26h-91q-43 0 -69.5 -32.5t-26.5 -85.5h-72q0 82 46 132t122 50h91q71 0 114.5 -44zM387 52q13 13 13 35t-13 35
t-35 13t-35 -13t-13 -35t13 -35t35 -13t35 13z" />
    <glyph glyph-name="uni0E28" unicode="&#xe28;" horiz-adv-x="629" 
d="M481 518q67 -47 67 -142v-376h-72v376q0 53 -30 85.5t-79 32.5h-102q-52 0 -84 -32.5t-32 -85.5v-269h2l62 152q20 49 44 69t60 20q45 0 72 -26t27 -70q0 -42 -27.5 -68.5t-71.5 -26.5q-22 0 -41.5 10t-30.5 27l-87 -194h-78v376q0 82 51 132t134 50h102q57 0 82 11
t36 41l3 8h71l-2 -8q-16 -68 -76 -92zM282 287q-13 -13 -13 -35t13 -35t35 -13t35 13t13 35t-13 35t-35 13t-35 -13z" />
    <glyph glyph-name="uni0E29" unicode="&#xe29;" horiz-adv-x="698" 
d="M682 348l-1 -7q-16 -108 -103 -129v-74q0 -64 -33 -101t-97 -37h-228q-28 0 -44 16t-16 44v313q-14 -6 -33 -6q-44 0 -70.5 26.5t-26.5 69.5q0 44 27.5 70.5t73.5 26.5t73.5 -26.5t27.5 -70.5v-399h205q38 0 53.5 18t15.5 56v69h-126q-44 0 -71.5 26t-27.5 69
q0 42 26 67.5t69 25.5q42 0 68 -25t26 -66q0 -24 -11 -38h47v286h72v-280q39 17 46 69l1 7h57zM166 428q13 13 13 35t-13 35t-35 13t-35 -13t-13 -35t13 -35t35 -13t35 13zM408 269.5q12 12.5 12 32.5t-12 32t-32 12q-19 0 -31.5 -12t-12.5 -32t12 -32.5t32 -12.5t32 12.5z
" />
    <glyph glyph-name="uni0E2A" unicode="&#xe2a;" horiz-adv-x="585" 
d="M450 517q27 -19 41 -49.5t14 -69.5v-398h-72v57q-5 105 -52 163.5t-125 58.5q-50 0 -77.5 -26t-27.5 -72v-4q14 6 34 6q44 0 70 -26t26 -70t-27.5 -70.5t-73.5 -26.5t-73.5 26.5t-27.5 70.5v82q0 82 47 128t130 46q58 0 104.5 -25t71.5 -70h1v150q0 44 -23.5 70t-62.5 26
h-111q-49 0 -78.5 -29t-29.5 -76h-70q0 76 49 122.5t129 46.5h121q43 0 63.5 11t31.5 41l3 8h72l-2 -8q-18 -70 -75 -93zM215 122q-13 13 -35 13t-35 -13t-13 -35t13 -35t35 -13t35 13t13 35t-13 35z" />
    <glyph glyph-name="uni0E2B" unicode="&#xe2b;" horiz-adv-x="643" 
d="M553.5 351q6.5 -17 6.5 -47v-304h-72v309q0 16 -4.5 23.5t-16.5 7.5l-231 -340h-76v373q-14 -6 -33 -6q-44 0 -70.5 26.5t-26.5 69.5q0 44 27.5 70.5t73.5 26.5t73.5 -26.5t27.5 -70.5v-366l195 289q-20 14 -31 34t-11 44q0 43 27 69.5t71 26.5q45 0 72.5 -26.5
t27.5 -69.5q0 -27 -13.5 -48.5t-38.5 -33.5v-1q16 -13 22.5 -30zM518 429q13 13 13 35t-13 35t-35 13q-21 0 -34 -13t-13 -35t12.5 -35t34.5 -13t35 13zM166 428q13 13 13 35t-13 35t-35 13t-35 -13t-13 -35t13 -35t35 -13t35 13z" />
    <glyph glyph-name="uni0E2C" unicode="&#xe2c;" horiz-adv-x="703" 
d="M715 746l-1 -6q-8 -49 -32 -84.5t-61 -54.5v-541q0 -29 -16.5 -44.5t-46.5 -15.5h-30l-137 390l-138 -390h-30q-30 0 -46.5 15.5t-16.5 44.5v313q-14 -6 -33 -6q-44 0 -70.5 26.5t-26.5 69.5q0 44 27.5 70.5t73.5 26.5q45 0 72.5 -26.5t27.5 -70.5v-363h1l142 398h16
q8 0 15 -6t11 -17l133 -375h1v483h-12q-47 0 -76 26t-29 68q0 43 27 69t71 26q43 0 69 -25t26 -68q0 -10 -3 -18l1 -1q12 9 22.5 31t14.5 49l1 6h53zM566 643q13 13 13 34t-13 34t-34 13t-34 -13t-13 -34t13 -34t34 -13t34 13zM166 428q13 13 13 35t-13 35t-35 13t-35 -13
t-13 -35t13 -35t35 -13t35 13z" />
    <glyph glyph-name="uni0E2D" unicode="&#xe2d;" horiz-adv-x="594" 
d="M470.5 514q43.5 -44 43.5 -116v-260q0 -64 -33 -101t-97 -37h-233q-28 0 -44 16t-16 44v198q0 44 27.5 70.5t73.5 26.5t73.5 -26.5t27.5 -70.5q0 -43 -26 -69.5t-70 -26.5q-20 0 -34 6v-104h215q37 0 50.5 17.5t13.5 56.5v260q0 44 -23.5 70t-62.5 26h-128
q-49 0 -78.5 -29t-29.5 -76h-70q0 76 49 122.5t129 46.5h128q71 0 114.5 -44zM157 293q-13 -13 -13 -35t13 -35t35 -13t35 13t13 35t-13 35t-35 13t-35 -13z" />
    <glyph glyph-name="uni0E2E" unicode="&#xe2e;" horiz-adv-x="598" 
d="M506 478.5q12 -31.5 12 -69.5v-271q0 -64 -33 -101t-97 -37h-239q-28 0 -44 16t-16 44v160q0 44 27.5 70.5t73.5 26.5t73.5 -26.5t27.5 -70.5q0 -43 -26 -69.5t-70 -26.5q-21 0 -34 6v-66h221q37 0 51 18t14 56v271q0 30 -5 50h-2q-36 -109 -144 -109h-115q-57 0 -89 27
t-32 76t34.5 77t96.5 28h189q14 0 34 -2q3 15 7 47l1 10h61l-1 -10q-6 -49 -10 -74q22 -19 34 -50.5zM363.5 429q27.5 25 40.5 73q-6 2 -26 2h-189q-31 0 -48.5 -13.5t-17.5 -37.5q0 -23 16 -36t44 -13h113q40 0 67.5 25zM155 255q-13 -13 -13 -35t13 -35t35 -13t35 13
t13 35t-13 35t-35 13t-35 -13z" />
    <glyph glyph-name="uni0E2F" unicode="&#xe2f;" horiz-adv-x="546" 
d="M466 550v-374q0 -87 -39 -131.5t-115 -44.5h-34v64h34q82 0 82 112v212q-23 -35 -66.5 -54.5t-93.5 -19.5q-92 0 -148 40.5t-56 106.5q0 46 28 73.5t74 27.5t73.5 -27t27.5 -71q0 -30 -14.5 -51.5t-38.5 -32.5q23 -6 56 -6q72 0 113.5 45.5t44.5 130.5h72zM96.5 499.5
q-13.5 -13.5 -13.5 -35.5t13.5 -35.5t35.5 -13.5t35 13.5t13 35.5t-13 35.5t-35 13.5t-35.5 -13.5z" />
    <glyph glyph-name="uni0E30" unicode="&#xe30;" horiz-adv-x="504" 
d="M103 344q-53 37 -53 97q0 43 27.5 69.5t72.5 26.5q44 0 71.5 -26.5t27.5 -69.5q0 -22 -12 -42t-32 -30v-1q15 -3 42 -3q60 0 98 43.5t45 121.5h68q-7 -105 -63.5 -164t-151.5 -59q-87 0 -140 37zM184 407q13 13 13 34t-13 34t-34 13t-34 -13t-13 -34t13 -34t34 -13t34 13
zM103 42q-53 37 -53 97q0 43 27.5 69.5t72.5 26.5q44 0 71.5 -26.5t27.5 -69.5q0 -22 -12 -42t-32 -30v-1q15 -3 42 -3q60 0 98 43.5t45 121.5h68q-7 -105 -63.5 -164t-151.5 -59q-87 0 -140 37zM184 105q13 13 13 34t-13 34t-34 13t-34 -13t-13 -34t13 -34t34 -13t34 13z
" />
    <glyph glyph-name="uni0E31" unicode="&#xe31;" 
d="M-308 672.5q-53 32.5 -53 90.5q0 41 26.5 66.5t69.5 25.5q44 0 70 -24t26 -66q0 -20 -10 -37t-26 -26l1 -1q20 -4 47 -4q68 0 107 40.5t41 111.5h67q-3 -98 -61.5 -153.5t-159.5 -55.5q-92 0 -145 32.5zM-231.5 729.5q12.5 12.5 12.5 33.5t-12.5 33.5t-33.5 12.5
t-33.5 -12.5t-12.5 -33.5t12.5 -33.5t33.5 -12.5t33.5 12.5z" />
    <glyph glyph-name="uni0E32" unicode="&#xe32;" horiz-adv-x="517" 
d="M365 398q0 44 -23.5 70t-62.5 26h-75q-44 0 -71 -32.5t-27 -85.5h-70q0 82 46 132t122 50h75q71 0 114.5 -44t43.5 -116v-398h-72v398z" />
    <glyph glyph-name="uni0E33" unicode="&#xe33;" horiz-adv-x="517" 
d="M-206 671q-30 29 -30 77t30 77t79 29t79 -29t30 -77t-30 -77t-79 -29t-79 29zM-86.5 708q15.5 15 15.5 40t-15.5 40t-40.5 15t-40.5 -15t-15.5 -40t15.5 -40t40.5 -15t40.5 15zM365 398q0 44 -23.5 70t-62.5 26h-75q-44 0 -71 -32.5t-27 -85.5h-70q0 82 46 132t122 50h75
q71 0 114.5 -44t43.5 -116v-398h-72v398z" />
    <glyph glyph-name="uni0E34" unicode="&#xe34;" 
d="M-288 677q-90 10 -229 10q18 82 76.5 128t143.5 46q64 0 113.5 -28.5t76.5 -80t27 -118.5q-118 33 -208 43zM-201.5 777q-39.5 28 -99.5 28q-46 0 -80 -19t-49 -53q69 2 142 -6t133 -24q-7 46 -46.5 74z" />
    <glyph glyph-name="uni0E35" unicode="&#xe35;" 
d="M-80 904v-270q-118 33 -208 43t-229 10q18 81 76 127.5t142 46.5q48 0 86 -15.5t63 -44.5v103h70zM-288 727q73 -8 133 -24q-7 46 -46.5 74t-99.5 28q-46 0 -80 -19t-49 -53q69 2 142 -6z" />
    <glyph glyph-name="uni0E36" unicode="&#xe36;" 
d="M-55 778.5q-20 -23.5 -54 -28.5q14 -22 21.5 -52.5t7.5 -63.5q-118 33 -208 43t-229 10q18 82 76.5 128t143.5 46q47 0 80 -15q3 37 28 59t63 22q41 0 66 -25t25 -65q0 -35 -20 -58.5zM-94 804.5q12 12.5 12 32.5t-12 32.5t-32 12.5t-32 -12.5t-12 -32.5t12 -32.5
t32 -12.5t32 12.5zM-288 727q73 -8 133 -24q-7 46 -46.5 74t-99.5 28q-46 0 -80 -19t-49 -53q69 2 142 -6z" />
    <glyph glyph-name="uni0E37" unicode="&#xe37;" 
d="M-80 904v-270q-118 33 -208 43t-229 10q18 82 73.5 128t135.5 46q23 0 39 -4v47h66v-68q34 -18 57 -44v112h66zM-288 727q73 -8 133 -24q-7 45 -51 73.5t-104 28.5q-89 0 -120 -72q69 2 142 -6z" />
    <glyph glyph-name="uni0E38" unicode="&#xe38;" 
d="M-106.5 -100q26.5 -26 26.5 -69v-195h-72v106q-15 -5 -29 -5q-42 0 -67.5 26t-25.5 68q0 43 27 69t71 26q43 0 69.5 -26zM-142 -204q13 13 13 35t-13 35t-35 13t-35 -13t-13 -35t13 -35t35 -13t35 13z" />
    <glyph glyph-name="uni0E39" unicode="&#xe39;" 
d="M-80 -76v-217q0 -34 -18.5 -51.5t-53.5 -17.5h-129q-31 0 -31 29v80q-14 -6 -32 -6q-41 0 -66.5 25.5t-25.5 66.5q0 42 26.5 67.5t69.5 25.5t69.5 -25.5t26.5 -67.5v-137h76q22 0 22 24v204h66zM-306.5 -200.5q12.5 12.5 12.5 33.5t-12.5 33.5t-33.5 12.5t-33.5 -12.5
t-12.5 -33.5t12.5 -33.5t33.5 -12.5t33.5 12.5z" />
    <glyph glyph-name="uni0E3A" unicode="&#xe3a;" 
d="M-157.5 -172.5q-15.5 15.5 -15.5 41.5q0 25 15.5 41t41.5 16q25 0 41 -16t16 -41q0 -26 -16 -41.5t-41 -15.5q-26 0 -41.5 15.5z" />
    <glyph glyph-name="uni0E3F" unicode="&#xe3f;" horiz-adv-x="662" 
d="M588.5 316.5q29.5 -37.5 29.5 -87.5v-48q0 -82 -52 -131.5t-141 -49.5h-70v-110h-72v110h-138q-29 0 -47 18t-18 47v635h203v110h72v-110h21q89 0 143.5 -42.5t54.5 -112.5v-53q0 -37 -17 -70.5t-47 -53.5v-1q49 -13 78.5 -50.5zM154 384h242q47 0 75.5 29.5t28.5 78.5
v53q0 40 -34.5 64.5t-89.5 24.5h-222v-250zM544 229q0 42 -30 67.5t-79 25.5h-281v-256h261q60 0 94.5 31.5t34.5 83.5v48z" />
    <glyph glyph-name="uni0E40" unicode="&#xe40;" horiz-adv-x="312" 
d="M256 157q26 -26 26 -70t-27.5 -70.5t-73.5 -26.5t-73.5 26.5t-27.5 70.5v463h72v-373q14 6 34 6q44 0 70 -26zM216 52q13 13 13 35t-13 35t-35 13t-35 -13t-13 -35t13 -35t35 -13t35 13z" />
    <glyph glyph-name="uni0E41" unicode="&#xe41;" horiz-adv-x="586" 
d="M256 157q26 -26 26 -70t-27.5 -70.5t-73.5 -26.5t-73.5 26.5t-27.5 70.5v463h72v-373q14 6 34 6q44 0 70 -26zM530 157q26 -26 26 -70t-27.5 -70.5t-73.5 -26.5t-73.5 26.5t-27.5 70.5v463h72v-373q14 6 34 6q44 0 70 -26zM216 52q13 13 13 35t-13 35t-35 13t-35 -13
t-13 -35t13 -35t35 -13t35 13zM490 52q13 13 13 35t-13 35t-35 13t-35 -13t-13 -35t13 -35t35 -13t35 13z" />
    <glyph glyph-name="uni0E42" unicode="&#xe42;" horiz-adv-x="398" 
d="M76 857q-22 -23 -24 -64q65 -21 113.5 -48t72.5 -55v-513q14 6 33 6q44 0 70 -26t26 -70t-27.5 -70.5t-73.5 -26.5t-73.5 26.5t-27.5 70.5v583q-27 24 -75.5 47t-109.5 39q0 88 41 137t115 49q24 0 43.5 -5.5t46.5 -17.5q24 -10 39 -15t34 -5t38 8.5t35 24.5v-66
q-14 -14 -33.5 -21.5t-39.5 -7.5q-23 0 -41 5.5t-42 16.5q-26 11 -42.5 16t-37.5 5q-38 0 -60 -23zM231 122q-13 -13 -13 -35t13 -35t35 -13t35 13t13 35t-13 35t-35 13t-35 -13z" />
    <glyph glyph-name="uni0E43" unicode="&#xe43;" horiz-adv-x="413" 
d="M357 157q26 -26 26 -70t-27.5 -70.5t-73.5 -26.5t-73.5 26.5t-27.5 70.5v491q0 19 10 36.5t30 42.5q25 32 38 56.5t13 56.5v30q0 39 -23.5 63.5t-60.5 24.5h-35q-37 0 -59.5 -14t-32.5 -39l1 -1q17 10 38 10q41 0 66 -25t25 -66q0 -42 -27 -68t-71 -26t-71.5 28t-27.5 74
v36q0 69 44 110t116 41h35q68 0 109.5 -41t41.5 -107v-30q0 -41 -14.5 -70.5t-39.5 -62.5q-17 -23 -25 -37.5t-8 -29.5v-393q14 6 34 6q44 0 70 -26zM59 786.5q-13 -12.5 -13 -33.5t13 -34t34 -13t34 13t13 34t-13 33.5t-34 12.5t-34 -12.5zM317 52q13 13 13 35t-13 35
t-35 13t-35 -13t-13 -35t13 -35t35 -13t35 13z" />
    <glyph glyph-name="uni0E44" unicode="&#xe44;" horiz-adv-x="432" 
d="M376 157q26 -26 26 -70t-27.5 -70.5t-73.5 -26.5t-73.5 26.5t-27.5 70.5v777l-121 -164h-10q-10 0 -15.5 5t-11.5 16l-124 215h68l86 -156l118 162h10q37 0 54.5 -16.5t17.5 -51.5v-697q14 6 34 6q44 0 70 -26zM336 52q13 13 13 35t-13 35t-35 13t-35 -13t-13 -35t13 -35
t35 -13t35 13z" />
    <glyph glyph-name="uni0E45" unicode="&#xe45;" horiz-adv-x="517" 
d="M365 398q0 44 -23.5 70t-62.5 26h-75q-44 0 -71 -32.5t-27 -85.5h-70q0 82 46 132t122 50h75q71 0 114.5 -44t43.5 -116v-598h-72v598z" />
    <glyph glyph-name="uni0E46" unicode="&#xe46;" horiz-adv-x="553" 
d="M447.5 522.5q25.5 -35.5 25.5 -105.5v-489q0 -91 -36 -133.5t-112 -42.5h-34v64h34q39 0 57.5 27t18.5 85v489q0 79 -33 79h-12l-80 -85l-80 85h-10q-27 0 -46 -26t-23 -72q19 7 38 7q44 0 71.5 -27t27.5 -70q0 -44 -27.5 -71t-73.5 -27q-47 0 -75 29.5t-28 82.5v26
q0 99 36 154.5t101 55.5h20l70 -75l68 75h27q50 0 75.5 -35.5zM117.5 343.5q-13.5 -13.5 -13.5 -35.5t13.5 -35.5t35.5 -13.5t35 13.5t13 35.5t-13 35.5t-35 13.5t-35.5 -13.5z" />
    <glyph glyph-name="uni0E47" unicode="&#xe47;" 
d="M-104 778q22 -22 22 -57q0 -37 -25.5 -59t-67.5 -22q-47 0 -84 17.5t-57 49.5l-33 -63h-18q-51 0 -81.5 32t-30.5 85q0 62 40.5 94t120.5 32h107q31 0 47 19.5t16 56.5h58q0 -62 -29.5 -94.5t-86.5 -32.5h-112q-51 0 -75 -18.5t-24 -56.5q0 -28 12 -45.5t32 -17.5h4
l44 84h28q17 -71 62 -84q-5 12 -5 25q0 35 21 56t56 21q37 0 59 -22zM-136.5 694.5q10.5 10.5 10.5 26.5q0 17 -10.5 27t-26.5 10t-26 -10t-10 -27t10 -27t26 -10t26.5 10.5z" />
    <glyph glyph-name="uni0E48" unicode="&#xe48;" 
d="M-150 843h70v-199h-70v199z" />
    <glyph glyph-name="uni0E49" unicode="&#xe49;" 
d="M-7 864q-8 -106 -74 -165t-175 -59q-80 0 -126 10v34q75 4 99 40q-7 -2 -20 -2q-35 0 -57 21t-22 55q0 38 23.5 60.5t62.5 22.5t62.5 -22.5t23.5 -60.5q0 -30 -10 -57.5t-28 -46.5v-1q78 2 122.5 45.5t53.5 125.5h65zM-325 770.5q11 -10.5 28 -10.5t28 10.5t11 27.5
t-11 28t-28 11t-28 -11t-11 -28t11 -27.5z" />
    <glyph glyph-name="uni0E4A" unicode="&#xe4a;" 
d="M-7 854q0 -109 -31 -159.5t-100 -50.5h-53l-13 31q12 20 19 43.5t7 44.5q0 28 -6 45t-16 17h-2l-63 -74l-67 74h-8q-40 0 -62 -37q9 3 19 3q36 0 57 -20t21 -54q0 -36 -22.5 -57.5t-59.5 -21.5t-59.5 24.5t-22.5 64.5q0 68 38.5 109.5t102.5 41.5h13l50 -59l49 59h18
q35 0 57 -30.5t22 -80.5q0 -19 -4.5 -38.5t-12.5 -33.5l1 -1q37 -1 54.5 38t17.5 122h56zM-361 743.5q-10 9.5 -26 9.5q-17 0 -27 -10t-10 -26t10 -26.5t27 -10.5q16 0 26 10t10 27t-10 26.5z" />
    <glyph glyph-name="uni0E4B" unicode="&#xe4b;" 
d="M-148 741h-114v58h114v97h65v-97h114v-58h-114v-97h-65v97z" />
    <glyph glyph-name="uni0E4C" unicode="&#xe4c;" 
d="M-8 889q-7 -58 -43 -90t-94 -32h-38q10 -17 10 -38q0 -40 -26.5 -64.5t-69.5 -24.5t-69.5 25.5t-26.5 66.5q0 42 26.5 67.5t69.5 25.5h126q27 0 45 17t24 47h66zM-235.5 698.5q12.5 12.5 12.5 33.5q0 20 -12.5 32.5t-33.5 12.5t-33.5 -12.5t-12.5 -32.5q0 -21 12.5 -33.5
t33.5 -12.5t33.5 12.5z" />
    <glyph glyph-name="uni0E4D" unicode="&#xe4d;" 
d="M-206 671q-30 29 -30 77t30 77t79 29t79 -29t30 -77t-30 -77t-79 -29t-79 29zM-86.5 708q15.5 15 15.5 40t-15.5 40t-40.5 15t-40.5 -15t-15.5 -40t15.5 -40t40.5 -15t40.5 15z" />
    <glyph glyph-name="uni0E4E" unicode="&#xe4e;" 
d="M-201.5 925.5q-15.5 -11.5 -15.5 -36.5t18.5 -39.5t56.5 -20.5v-48q-44 12 -88 12q-74 0 -74 -53q0 -23 16.5 -36t46.5 -13q50 0 77 19v-52q-27 -18 -78 -18q-59 0 -92.5 26t-33.5 73q0 87 111 98q-11 9 -17.5 24.5t-6.5 29.5q0 45 34 70.5t94 25.5q22 0 44.5 -4
t38.5 -11v-48q-45 13 -83 13q-33 0 -48.5 -11.5z" />
    <glyph glyph-name="uni0E4F" unicode="&#xe4f;" horiz-adv-x="681" 
d="M191.5 27.5q-64.5 35.5 -100 99.5t-35.5 148q0 85 35.5 150t100 100.5t149.5 35.5q84 0 148.5 -35.5t100 -100.5t35.5 -150q0 -84 -35.5 -148t-100 -99.5t-148.5 -35.5q-85 0 -149.5 35.5zM455.5 82.5q49.5 27.5 77 77.5t27.5 115q0 66 -27.5 116.5t-77 78.5t-114.5 28
t-115 -28t-77.5 -78.5t-27.5 -116.5q0 -65 27.5 -115t77.5 -77.5t115 -27.5t114.5 27.5zM231.5 167q-41.5 41 -41.5 108t41.5 108t109.5 41t110 -41t42 -108t-42 -108t-110 -41t-109.5 41zM406 210.5q25 24.5 25 64.5t-25 64.5t-65 24.5t-64.5 -24.5t-24.5 -64.5t24.5 -64.5
t64.5 -24.5t65 24.5z" />
    <glyph glyph-name="uni0E50" unicode="&#xe50;" horiz-adv-x="630" 
d="M172 22q-53 30 -82.5 84t-29.5 125v38q0 71 29.5 125t82.5 83.5t123 29.5h40q70 0 123 -29.5t82.5 -83.5t29.5 -125v-38q0 -71 -29.5 -125t-82.5 -84t-123 -30h-40q-70 0 -123 30zM334 56q74 0 119 48t45 127v38q0 78 -45 126t-119 48h-38q-74 0 -119 -48t-45 -126v-38
q0 -79 45 -127t119 -48h38z" />
    <glyph glyph-name="uni0E51" unicode="&#xe51;" horiz-adv-x="626" 
d="M286 24h30q82 0 130 56t48 149v40q0 78 -45 126t-119 48h-38q-74 0 -119 -43.5t-45 -114.5v-25q0 -52 27.5 -81t76.5 -30v1q-12 11 -19.5 27t-7.5 34q0 41 27.5 66.5t72.5 25.5q46 0 73.5 -26t27.5 -69q0 -53 -39 -83t-107 -30q-101 0 -152.5 42t-51.5 124v24
q0 66 29.5 116.5t82.5 78t123 27.5h40q70 0 123 -29.5t82.5 -83.5t29.5 -125v-40q0 -80 -30.5 -141t-87 -94.5t-132.5 -33.5h-30v64zM340.5 170.5q13.5 13.5 13.5 35.5t-13.5 35t-35.5 13t-35 -13t-13 -35t13 -35.5t35 -13.5t35.5 13.5z" />
    <glyph glyph-name="uni0E52" unicode="&#xe52;" horiz-adv-x="730" 
d="M630.5 467q29.5 -37 29.5 -109v-181q0 -80 -51.5 -128.5t-136.5 -48.5h-200q-85 0 -137.5 48.5t-52.5 128.5v285q0 81 -17 124.5t-59 70.5l46 53q57 -40 79.5 -95t22.5 -153v-281q0 -53 32.5 -85t85.5 -32h199q53 0 85.5 31.5t32.5 82.5v180q0 82 -42 82h-8l-62 -88h-20
q-12 43 -34.5 67.5t-50.5 24.5h-22q-27 0 -42 -21.5t-15 -60.5v-23q16 8 39 8q44 0 70 -26t26 -70t-27.5 -71t-73.5 -27t-74 27t-28 71v103q0 72 33 112.5t92 40.5h22q33 0 59.5 -19t41.5 -54l49 70h22q57 0 86.5 -37zM362 286q-13 13 -35 13t-35.5 -13t-13.5 -35
t13.5 -35.5t35.5 -13.5t35 13.5t13 35.5t-13 35z" />
    <glyph glyph-name="uni0E53" unicode="&#xe53;" horiz-adv-x="654" 
d="M146 20.5q-41 30.5 -63.5 85.5t-22.5 127v34q0 72 20 126t56 84t83 30h18l96 -108l94 108h18q63 0 98 -39.5t35 -110.5v-357h-72v361q0 38 -13 59t-36 21h-10l-114 -126l-111 122h-8q-36 0 -59 -46.5t-23 -123.5v-34q0 -40 6 -74.5t17 -52.5l2 -1q4 34 29 56.5t61 22.5
q46 0 73.5 -26.5t27.5 -70.5t-29.5 -70.5t-77.5 -26.5q-54 0 -95 30.5zM282 51.5q13 13.5 13 35.5t-13 35.5t-35 13.5t-35 -13.5t-13 -35.5t13 -35.5t35 -13.5t35 13.5z" />
    <glyph glyph-name="uni0E54" unicode="&#xe54;" horiz-adv-x="619" 
d="M478.5 109q30.5 -18 53.5 -27.5t71 -26.5l-16 -63q-39 14 -67.5 19.5t-56.5 5.5q-29 0 -85 -12q-22 -5 -46 -9t-46 -4q-111 0 -168.5 60.5t-57.5 178.5v30q0 71 30 125t84 83.5t124 29.5h92q74 0 109.5 49t35.5 152h68q0 -136 -51.5 -200.5t-161.5 -64.5h-92
q-75 0 -120.5 -47.5t-45.5 -126.5v-30q0 -91 37 -133t117 -42q30 0 80 8q46 8 72 8v1q-66 45 -94.5 84.5t-28.5 90.5q0 46 28 73t74 27t73.5 -27t27.5 -71q0 -43 -26 -69.5t-70 -26.5q26 -27 56.5 -45zM381.5 285.5q-13.5 -13.5 -13.5 -35.5t13.5 -35.5t35.5 -13.5t35 13.5
t13 35.5t-13 35.5t-35 13.5t-35.5 -13.5z" />
    <glyph glyph-name="uni0E55" unicode="&#xe55;" horiz-adv-x="619" 
d="M478.5 109q30.5 -18 53.5 -27.5t71 -26.5l-16 -63q-39 14 -67.5 19.5t-56.5 5.5q-29 0 -85 -12q-22 -5 -46 -9t-46 -4q-111 0 -168.5 60.5t-57.5 178.5v30q0 85 41.5 144.5t114.5 81.5q-31 29 -31 75t29.5 74.5t77.5 28.5t77.5 -28.5t29.5 -74.5q0 -36 -21 -63h12
q74 0 109.5 49t35.5 152h68q0 -136 -51.5 -200.5t-161.5 -64.5h-92q-75 0 -120.5 -47.5t-45.5 -126.5v-30q0 -91 37 -133t117 -42q30 0 80 8q46 8 72 8v1q-66 45 -94.5 84.5t-28.5 90.5q0 46 28 73t74 27t73.5 -27t27.5 -71q0 -43 -26 -69.5t-70 -26.5q26 -27 56.5 -45z
M253 601q-15 -15 -15 -39q0 -25 15 -40t39 -15t38.5 15t14.5 40q0 24 -14.5 39t-38.5 15t-39 -15zM381.5 285.5q-13.5 -13.5 -13.5 -35.5t13.5 -35.5t35.5 -13.5t35 13.5t13 35.5t-13 35.5t-35 13.5t-35.5 -13.5z" />
    <glyph glyph-name="uni0E56" unicode="&#xe56;" horiz-adv-x="628" 
d="M457.5 478q52.5 -29 81.5 -82.5t29 -123.5v-39q0 -72 -29.5 -126.5t-83.5 -84.5t-124 -30h-40q-61 0 -111.5 22t-80 61.5t-29.5 90.5q0 45 28 72.5t74 27.5t73.5 -27t27.5 -71q0 -36 -18.5 -60t-51.5 -31q17 -10 41 -15.5t47 -5.5h40q74 0 119.5 49t45.5 129v38
q0 78 -44 124.5t-116 46.5h-40q-42 0 -84.5 -19t-71.5 -51h-40q-17 104 -47.5 169.5t-90.5 127.5l50 40q54 -54 87.5 -115t50.5 -138q29 23 69 36.5t77 13.5h40q69 0 121.5 -29zM136.5 203.5q-13.5 -13.5 -13.5 -35.5t13.5 -35.5t35.5 -13.5t35 13.5t13 35.5t-13 35.5
t-35 13.5t-35.5 -13.5z" />
    <glyph glyph-name="uni0E57" unicode="&#xe57;" horiz-adv-x="827" 
d="M146 20.5q-41 30.5 -63.5 85.5t-22.5 127v34q0 72 20 126t56 84t83 30h18l90 -108l88 108h18q63 0 98 -39.5t35 -110.5v-292h59q25 0 39.5 20t14.5 55v560h72v-560q0 -66 -32 -103t-89 -37h-136v361q0 38 -13 59t-36 21h-10l-108 -126l-105 122h-8q-36 0 -59 -46.5
t-23 -123.5v-34q0 -40 6 -74.5t17 -52.5l2 -1q4 34 29 56.5t61 22.5q46 0 73.5 -26.5t27.5 -70.5t-29.5 -70.5t-77.5 -26.5q-54 0 -95 30.5zM282 51.5q13 13.5 13 35.5t-13 35.5t-35 13.5t-35 -13.5t-13 -35.5t13 -35.5t35 -13.5t35 13.5z" />
    <glyph glyph-name="uni0E58" unicode="&#xe58;" horiz-adv-x="682" 
d="M594 307q28 -27 28 -73v-20q0 -65 -20 -115.5t-56 -78.5t-83 -28h-28q-53 0 -94.5 35t-63.5 96l-55 -129q-76 16 -119 77t-43 154v39q0 70 28 123.5t78.5 82.5t116.5 29h114q58 0 91 19.5t47.5 62.5t14.5 119h68q0 -100 -21 -157t-69 -82.5t-131 -25.5h-114
q-68 0 -109.5 -46.5t-41.5 -124.5v-39q0 -55 18.5 -97.5t48.5 -56.5l73 174h30q11 -89 46 -140t87 -51h28q33 0 56 25t30 66q-13 -6 -34 -6q-43 0 -69.5 26.5t-26.5 70.5t27.5 71t73.5 27t74 -27zM555.5 200.5q13.5 13.5 13.5 35.5t-13.5 35.5t-35.5 13.5t-35 -13.5
t-13 -35.5t13 -35.5t35 -13.5t35.5 13.5z" />
    <glyph glyph-name="uni0E59" unicode="&#xe59;" horiz-adv-x="714" 
d="M708 700v-80q0 -107 -11.5 -169t-36 -89.5t-66.5 -27.5h-10q-35 0 -56.5 21t-45.5 60q-16 27 -27.5 39.5t-26.5 12.5h-12q-14 0 -27 -13t-18 -31q10 -95 61 -166t132 -120l-37 -53q-82 47 -137.5 119.5t-73.5 167.5q-12 64 -75 64h-20q-39 0 -64 -45t-25 -118v-29
q0 -41 9 -78.5t26 -58.5q5 36 30 57.5t63 21.5q46 0 73.5 -26.5t27.5 -70.5t-30 -71t-77 -27q-55 0 -99.5 32t-69.5 89.5t-25 130.5v30q0 67 19.5 118.5t55.5 80t83 28.5h26q52 0 85 -33q35 65 88 65h12q39 0 61 -21.5t44 -61.5q16 -28 26.5 -40t25.5 -12h8q25 0 35.5 51.5
t10.5 172.5v80h68zM224.5 123.5q-13.5 -13.5 -13.5 -35.5t13.5 -35.5t35.5 -13.5t35 13.5t13 35.5t-13 35.5t-35 13.5t-35.5 -13.5z" />
    <glyph glyph-name="uni0E5A" unicode="&#xe5a;" horiz-adv-x="760" 
d="M680 550v-550h-72v407q-24 -32 -63 -55.5t-79 -28.5v-147q0 -87 -39 -131.5t-115 -44.5h-34v64h34q82 0 82 112v212q-23 -35 -66.5 -54.5t-93.5 -19.5q-92 0 -148 40.5t-56 106.5q0 46 28 73.5t74 27.5t73.5 -27t27.5 -71q0 -30 -14.5 -51.5t-38.5 -32.5q23 -6 56 -6
q72 0 113.5 45.5t44.5 130.5h72v-165q60 7 99 52.5t43 112.5h72zM96.5 499.5q-13.5 -13.5 -13.5 -35.5t13.5 -35.5t35.5 -13.5t35 13.5t13 35.5t-13 35.5t-35 13.5t-35.5 -13.5z" />
    <glyph glyph-name="uni0E5B" unicode="&#xe5b;" horiz-adv-x="1188" 
d="M1158 306v-44q-23 -10 -51 -10q-22 0 -39 7t-26 19q-5 -26 -18.5 -50t-29.5 -38h-25q-3 37 -13 68t-23 46q0 -37 -11.5 -78.5t-30.5 -73.5h-36q-2 47 -14.5 90.5t-30.5 69.5q0 -43 -13 -99.5t-35 -105.5h-43q-1 68 -17.5 131.5t-43.5 100.5q1 -10 1 -31
q0 -144 -83.5 -223.5t-233.5 -79.5q-138 0 -215 76t-77 211q0 78 32 137.5t90.5 92t135.5 32.5q69 0 122 -28.5t82 -80t29 -119.5q0 -85 -45.5 -133t-126.5 -48q-77 0 -124.5 38.5t-47.5 101.5q0 47 28.5 75t74.5 28t74 -27.5t28 -73.5q0 -29 -16 -51t-43 -32q14 -3 32 -3
q46 0 72 33t26 92q0 75 -46 120.5t-121 45.5q-84 0 -135 -55t-51 -145q0 -106 58.5 -165.5t163.5 -59.5q121 0 189.5 69t68.5 191q0 31 -4.5 69.5t-12.5 70.5h40q48 -47 84 -108.5t46 -114.5q8 45 8 88q0 48 -9 81h34q34 -31 61 -74t35 -81q8 35 8 67q0 36 -9 60h30
q29 -21 52.5 -54t31.5 -66q6 8 9.5 26.5t3.5 39.5v14h34q10 -26 25 -37.5t40 -11.5q28 0 51 10zM261.5 249.5q14.5 -14.5 38.5 -14.5q23 0 37.5 14.5t14.5 37.5q0 24 -14.5 38.5t-37.5 14.5q-24 0 -38.5 -14.5t-14.5 -38.5q0 -23 14.5 -37.5z" />
    <glyph glyph-name="uni1E0C" unicode="&#x1e0c;" horiz-adv-x="674" 
d="M97 17q-17 17 -17 48v635h290q74 0 130 -28.5t87 -81t31 -120.5v-220q0 -123 -62 -186.5t-182 -63.5h-229q-31 0 -48 17zM372 66q85 0 128.5 46.5t43.5 137.5v220q0 73 -48.5 118.5t-127.5 45.5h-214v-568h218zM308 -164q-15 15 -15 39t15 39t39 15t39 -15t15 -39
t-15 -39t-39 -15t-39 15z" />
    <glyph glyph-name="uni1E0D" unicode="&#x1e0d;" horiz-adv-x="578" 
d="M140 16q-40 24 -62 67t-22 100v120q0 60 23 106.5t65 72t96 25.5h74q34 0 65.5 -16t50.5 -44v253h72v-700h-70v74q-23 -37 -60 -59.5t-72 -22.5h-69q-51 0 -91 24zM298 56q32 0 62 20.5t49 53.5t21 68v126q-7 53 -39.5 86t-78.5 33h-70q-51 0 -82.5 -38.5t-31.5 -101.5
v-120q0 -56 29.5 -91.5t75.5 -35.5h65zM245 -164q-15 15 -15 39t15 39t39 15t39 -15t15 -39t-15 -39t-39 -15t-39 15z" />
    <glyph glyph-name="uni1E0E" unicode="&#x1e0e;" horiz-adv-x="674" 
d="M97 17q-17 17 -17 48v635h290q74 0 130 -28.5t87 -81t31 -120.5v-220q0 -123 -62 -186.5t-182 -63.5h-229q-31 0 -48 17zM372 66q85 0 128.5 46.5t43.5 137.5v220q0 73 -48.5 118.5t-127.5 45.5h-214v-568h218zM220 -74h255v-52h-255v52z" />
    <glyph glyph-name="uni1E0F" unicode="&#x1e0f;" horiz-adv-x="578" 
d="M140 16q-40 24 -62 67t-22 100v120q0 60 23 106.5t65 72t96 25.5h74q34 0 65.5 -16t50.5 -44v253h72v-700h-70v74q-23 -37 -60 -59.5t-72 -22.5h-69q-51 0 -91 24zM298 56q32 0 62 20.5t49 53.5t21 68v126q-7 53 -39.5 86t-78.5 33h-70q-51 0 -82.5 -38.5t-31.5 -101.5
v-120q0 -56 29.5 -91.5t75.5 -35.5h65zM157 -74h255v-52h-255v52z" />
    <glyph glyph-name="uni1E20" unicode="&#x1e20;" horiz-adv-x="684" 
d="M168.5 23.5q-51.5 31.5 -80 89.5t-28.5 133v208q0 75 29.5 132.5t82.5 89.5t122 32h106q66 0 116.5 -28t78.5 -79t28 -117h-72q0 71 -41.5 114.5t-109.5 43.5h-106q-72 0 -116 -51.5t-44 -136.5v-208q0 -85 42.5 -136.5t112.5 -51.5h108q71 0 115 49t44 129v60h-194v65
h266v-125q0 -72 -28.5 -127.5t-81 -86t-121.5 -30.5h-108q-69 0 -120.5 31.5zM219 843h255v-52h-255v52z" />
    <glyph glyph-name="uni1E21" unicode="&#x1e21;" horiz-adv-x="578" 
d="M129 -167.5q-43 35.5 -48 93.5h72q4 -30 27.5 -48.5t57.5 -18.5h83q52 0 80.5 34.5t28.5 96.5v77q-22 -30 -57.5 -48.5t-68.5 -18.5h-73q-51 0 -91 24t-62 67t-22 100v117q0 89 51.5 144t135.5 55h70q32 0 66 -18t53 -46v56h70v-509q0 -91 -48 -142t-133 -51h-83
q-66 0 -109 35.5zM304 64q50 0 85.5 39.5t40.5 100.5v123q-4 51 -37.5 83.5t-79.5 32.5h-68q-53 0 -85 -37t-32 -98v-117q0 -56 29.5 -91.5t75.5 -35.5h71zM151 642h255v-52h-255v52z" />
    <glyph glyph-name="uni1E24" unicode="&#x1e24;" horiz-adv-x="694" 
d="M80 700h74v-314h386v314h74v-700h-74v320h-386v-320h-74v700zM308 -164q-15 15 -15 39t15 39t39 15t39 -15t15 -39t-15 -39t-39 -15t-39 15z" />
    <glyph glyph-name="uni1E25" unicode="&#x1e25;" horiz-adv-x="574" 
d="M76 700h72v-270q23 35 59 56t73 21h70q69 0 111.5 -47t42.5 -123v-337h-72v339q0 46 -23 75t-61 29h-66q-47 0 -85.5 -36.5t-48.5 -93.5v-313h-72v700zM254 -164q-15 15 -15 39t15 39t39 15t39 -15t15 -39t-15 -39t-39 -15t-39 15z" />
    <glyph glyph-name="uni1E2A" unicode="&#x1e2a;" horiz-adv-x="694" 
d="M80 700h74v-314h386v314h74v-700h-74v320h-386v-320h-74v700zM240.5 -166q-38.5 36 -38.5 95v8h58v-8q0 -37 22 -59t59 -22h12q37 0 59.5 22t22.5 59v8h57v-8q0 -59 -38.5 -95t-100.5 -36h-12q-62 0 -100.5 36z" />
    <glyph glyph-name="uni1E2B" unicode="&#x1e2b;" horiz-adv-x="574" 
d="M76 700h72v-270q23 35 59 56t73 21h70q69 0 111.5 -47t42.5 -123v-337h-72v339q0 46 -23 75t-61 29h-66q-47 0 -85.5 -36.5t-48.5 -93.5v-313h-72v700zM186.5 -166q-38.5 36 -38.5 95v8h58v-8q0 -37 22 -59t59 -22h12q37 0 59.5 22t22.5 59v8h57v-8q0 -59 -38.5 -95
t-100.5 -36h-12q-62 0 -100.5 36z" />
    <glyph glyph-name="uni1E36" unicode="&#x1e36;" horiz-adv-x="560" 
d="M97 17q-17 17 -17 48v635h74v-634h380v-66h-389q-31 0 -48 17zM271 -164q-15 15 -15 39t15 39t39 15t39 -15t15 -39t-15 -39t-39 -15t-39 15z" />
    <glyph glyph-name="uni1E37" unicode="&#x1e37;" horiz-adv-x="268" 
d="M108 31.5q-32 31.5 -32 104.5v564h72v-564q0 -38 15.5 -55t50.5 -17h34v-64h-34q-74 0 -106 31.5zM123 -164q-15 15 -15 39t15 39t39 15t39 -15t15 -39t-15 -39t-39 -15t-39 15z" />
    <glyph glyph-name="uni1E38" unicode="&#x1e38;" horiz-adv-x="560" 
d="M97 17q-17 17 -17 48v635h74v-634h380v-66h-389q-31 0 -48 17zM271 -164q-15 15 -15 39t15 39t39 15t39 -15t15 -39t-15 -39t-39 -15t-39 15zM-10 843h255v-52h-255v52z" />
    <glyph glyph-name="uni1E39" unicode="&#x1e39;" horiz-adv-x="268" 
d="M108 31.5q-32 31.5 -32 104.5v564h72v-564q0 -38 15.5 -55t50.5 -17h34v-64h-34q-74 0 -106 31.5zM123 -164q-15 15 -15 39t15 39t39 15t39 -15t15 -39t-15 -39t-39 -15t-39 15zM-15 843h255v-52h-255v52z" />
    <glyph glyph-name="uni1E3A" unicode="&#x1e3a;" horiz-adv-x="560" 
d="M97 17q-17 17 -17 48v635h74v-634h380v-66h-389q-31 0 -48 17zM183 -74h255v-52h-255v52z" />
    <glyph glyph-name="uni1E3B" unicode="&#x1e3b;" horiz-adv-x="268" 
d="M108 31.5q-32 31.5 -32 104.5v564h72v-564q0 -38 15.5 -55t50.5 -17h34v-64h-34q-74 0 -106 31.5zM35 -74h255v-52h-255v52z" />
    <glyph glyph-name="uni1E42" unicode="&#x1e42;" horiz-adv-x="795" 
d="M80 700h71l250 -465l243 465h71v-700h-73v562l-202 -384q-11 -20 -19 -27.5t-18 -7.5h-22l-228 419v-562h-73v700zM359 -164q-15 15 -15 39t15 39t39 15t39 -15t15 -39t-15 -39t-39 -15t-39 15z" />
    <glyph glyph-name="uni1E43" unicode="&#x1e43;" horiz-adv-x="836" 
d="M727.5 464.5q38.5 -42.5 38.5 -117.5v-347h-72v349q0 44 -20 69t-53 25h-57q-43 0 -71 -29t-36 -82v-332h-72v343q0 47 -18.5 73.5t-50.5 26.5h-57q-41 0 -72 -36t-39 -94v-313h-72v499h70v-72q20 38 50 59t63 21h59q42 0 72.5 -20.5t46.5 -59.5q23 40 55 60t70 20h61
q66 0 104.5 -42.5zM382 -164q-15 15 -15 39t15 39t39 15t39 -15t15 -39t-15 -39t-39 -15t-39 15z" />
    <glyph glyph-name="uni1E44" unicode="&#x1e44;" horiz-adv-x="690" 
d="M80 700h70l388 -583v583h72v-700h-70l-388 579v-579h-72v700zM306 796q-15 15 -15 39t15 39t39 15t39 -15t15 -39t-15 -39t-39 -15t-39 15z" />
    <glyph glyph-name="uni1E45" unicode="&#x1e45;" horiz-adv-x="572" 
d="M76 499h70v-74q23 36 60 59t74 23h68q69 0 111.5 -47t42.5 -123v-337h-72v339q0 46 -23 75t-61 29h-64q-47 0 -85.5 -37t-48.5 -95v-311h-72v499zM255 595q-15 15 -15 39t15 39t39 15t39 -15t15 -39t-15 -39t-39 -15t-39 15z" />
    <glyph glyph-name="uni1E46" unicode="&#x1e46;" horiz-adv-x="690" 
d="M80 700h70l388 -583v583h72v-700h-70l-388 579v-579h-72v700zM307 -164q-15 15 -15 39t15 39t39 15t39 -15t15 -39t-15 -39t-39 -15t-39 15z" />
    <glyph glyph-name="uni1E47" unicode="&#x1e47;" horiz-adv-x="572" 
d="M76 499h70v-74q23 36 60 59t74 23h68q69 0 111.5 -47t42.5 -123v-337h-72v339q0 46 -23 75t-61 29h-64q-47 0 -85.5 -37t-48.5 -95v-311h-72v499zM247 -164q-15 15 -15 39t15 39t39 15t39 -15t15 -39t-15 -39t-39 -15t-39 15z" />
    <glyph glyph-name="uni1E48" unicode="&#x1e48;" horiz-adv-x="690" 
d="M80 700h70l388 -583v583h72v-700h-70l-388 579v-579h-72v700zM219 -74h255v-52h-255v52z" />
    <glyph glyph-name="uni1E49" unicode="&#x1e49;" horiz-adv-x="572" 
d="M76 499h70v-74q23 36 60 59t74 23h68q69 0 111.5 -47t42.5 -123v-337h-72v339q0 46 -23 75t-61 29h-64q-47 0 -85.5 -37t-48.5 -95v-311h-72v499zM159 -74h255v-52h-255v52z" />
    <glyph glyph-name="uni1E5A" unicode="&#x1e5a;" horiz-adv-x="650" 
d="M80 700h340q77 0 123.5 -43.5t46.5 -114.5v-73q0 -53 -34 -93.5t-91 -57.5v-1q30 -16 54.5 -51t37.5 -79l55 -187h-76l-55 187q-14 49 -48.5 79t-75.5 30h-203v-296h-74v700zM394 362q55 0 88.5 29.5t33.5 77.5v77q0 40 -27 64t-71 24h-264v-272h240zM298 -164
q-15 15 -15 39t15 39t39 15t39 -15t15 -39t-15 -39t-39 -15t-39 15z" />
    <glyph glyph-name="uni1E5B" unicode="&#x1e5b;" horiz-adv-x="355" 
d="M76 499h70v-77q20 35 60.5 57t84.5 22h44v-65h-44q-64 0 -103.5 -40.5t-39.5 -107.5v-288h-72v499zM73 -164q-15 15 -15 39t15 39t39 15t39 -15t15 -39t-15 -39t-39 -15t-39 15z" />
    <glyph glyph-name="uni1E5C" unicode="&#x1e5c;" horiz-adv-x="650" 
d="M80 700h340q77 0 123.5 -43.5t46.5 -114.5v-73q0 -53 -34 -93.5t-91 -57.5v-1q30 -16 54.5 -51t37.5 -79l55 -187h-76l-55 187q-14 49 -48.5 79t-75.5 30h-203v-296h-74v700zM394 362q55 0 88.5 29.5t33.5 77.5v77q0 40 -27 64t-71 24h-264v-272h240zM298 -164
q-15 15 -15 39t15 39t39 15t39 -15t15 -39t-15 -39t-39 -15t-39 15zM195 843h255v-52h-255v52z" />
    <glyph glyph-name="uni1E5D" unicode="&#x1e5d;" horiz-adv-x="355" 
d="M76 499h70v-77q20 35 60.5 57t84.5 22h44v-65h-44q-64 0 -103.5 -40.5t-39.5 -107.5v-288h-72v499zM73 -164q-15 15 -15 39t15 39t39 15t39 -15t15 -39t-15 -39t-39 -15t-39 15zM73 642h255v-52h-255v52z" />
    <glyph glyph-name="uni1E5E" unicode="&#x1e5e;" horiz-adv-x="650" 
d="M80 700h340q77 0 123.5 -43.5t46.5 -114.5v-73q0 -53 -34 -93.5t-91 -57.5v-1q30 -16 54.5 -51t37.5 -79l55 -187h-76l-55 187q-14 49 -48.5 79t-75.5 30h-203v-296h-74v700zM394 362q55 0 88.5 29.5t33.5 77.5v77q0 40 -27 64t-71 24h-264v-272h240zM210 -74h255v-52
h-255v52z" />
    <glyph glyph-name="uni1E5F" unicode="&#x1e5f;" horiz-adv-x="355" 
d="M76 499h70v-77q20 35 60.5 57t84.5 22h44v-65h-44q-64 0 -103.5 -40.5t-39.5 -107.5v-288h-72v499zM-15 -74h255v-52h-255v52z" />
    <glyph glyph-name="uni1E60" unicode="&#x1e60;" horiz-adv-x="627" 
d="M153 17.5q-46 25.5 -71.5 72t-25.5 107.5h72q0 -62 36.5 -100.5t96.5 -38.5h111q59 0 95 26.5t36 69.5v64q0 34 -26.5 58t-72.5 31l-180 30q-76 13 -118 54t-42 103v54q0 73 54.5 116.5t144.5 43.5h113q85 0 137 -51.5t52 -135.5h-72q0 55 -32 88t-85 33h-113
q-57 0 -91 -25.5t-34 -68.5v-54q0 -35 25.5 -59t70.5 -32l179 -31q78 -14 121 -53.5t43 -100.5v-64q0 -73 -56 -117.5t-147 -44.5h-115q-60 0 -106 25.5zM279 796q-15 15 -15 39t15 39t39 15t39 -15t15 -39t-15 -39t-39 -15t-39 15z" />
    <glyph glyph-name="uni1E61" unicode="&#x1e61;" horiz-adv-x="520" 
d="M96 35q-46 43 -46 113h70q0 -42 27 -68t71 -26h87q43 0 70 17.5t27 45.5v34q0 19 -15 33.5t-39 19.5l-173 30q-52 9 -83.5 39.5t-31.5 71.5v33q0 58 44 93.5t116 35.5h86q70 0 113 -39.5t43 -104.5h-70q-1 37 -24.5 59.5t-61.5 22.5h-86q-40 0 -64 -18.5t-24 -48.5v-29
q0 -19 16.5 -34t42.5 -19l172 -30q50 -9 80.5 -39t30.5 -72v-40q0 -55 -46.5 -89t-122.5 -34h-87q-76 0 -122 43zM222 595q-15 15 -15 39t15 39t39 15t39 -15t15 -39t-15 -39t-39 -15t-39 15z" />
    <glyph glyph-name="uni1E62" unicode="&#x1e62;" horiz-adv-x="627" 
d="M153 17.5q-46 25.5 -71.5 72t-25.5 107.5h72q0 -62 36.5 -100.5t96.5 -38.5h111q59 0 95 26.5t36 69.5v64q0 34 -26.5 58t-72.5 31l-180 30q-76 13 -118 54t-42 103v54q0 73 54.5 116.5t144.5 43.5h113q85 0 137 -51.5t52 -135.5h-72q0 55 -32 88t-85 33h-113
q-57 0 -91 -25.5t-34 -68.5v-54q0 -35 25.5 -59t70.5 -32l179 -31q78 -14 121 -53.5t43 -100.5v-64q0 -73 -56 -117.5t-147 -44.5h-115q-60 0 -106 25.5zM289 -164q-15 15 -15 39t15 39t39 15t39 -15t15 -39t-15 -39t-39 -15t-39 15z" />
    <glyph glyph-name="uni1E63" unicode="&#x1e63;" horiz-adv-x="520" 
d="M96 35q-46 43 -46 113h70q0 -42 27 -68t71 -26h87q43 0 70 17.5t27 45.5v34q0 19 -15 33.5t-39 19.5l-173 30q-52 9 -83.5 39.5t-31.5 71.5v33q0 58 44 93.5t116 35.5h86q70 0 113 -39.5t43 -104.5h-70q-1 37 -24.5 59.5t-61.5 22.5h-86q-40 0 -64 -18.5t-24 -48.5v-29
q0 -19 16.5 -34t42.5 -19l172 -30q50 -9 80.5 -39t30.5 -72v-40q0 -55 -46.5 -89t-122.5 -34h-87q-76 0 -122 43zM232 -164q-15 15 -15 39t15 39t39 15t39 -15t15 -39t-15 -39t-39 -15t-39 15z" />
    <glyph glyph-name="uni1E6C" unicode="&#x1e6c;" horiz-adv-x="578" 
d="M252 636h-222v64h518v-64h-222v-636h-74v636zM250 -164q-15 15 -15 39t15 39t39 15t39 -15t15 -39t-15 -39t-39 -15t-39 15z" />
    <glyph glyph-name="uni1E6D" unicode="&#x1e6d;" horiz-adv-x="382" 
d="M158.5 34q-34.5 34 -34.5 112v289h-88v64h88v151h72v-151h130v-64h-130v-289q0 -44 17.5 -63t58.5 -19h54v-64h-54q-79 0 -113.5 34zM197 -164q-15 15 -15 39t15 39t39 15t39 -15t15 -39t-15 -39t-39 -15t-39 15z" />
    <glyph glyph-name="uni1E6E" unicode="&#x1e6e;" horiz-adv-x="578" 
d="M252 636h-222v64h518v-64h-222v-636h-74v636zM162 -74h255v-52h-255v52z" />
    <glyph glyph-name="uni1E6F" unicode="&#x1e6f;" horiz-adv-x="382" 
d="M158.5 34q-34.5 34 -34.5 112v289h-88v64h88v151h72v-151h130v-64h-130v-289q0 -44 17.5 -63t58.5 -19h54v-64h-54q-79 0 -113.5 34zM109 -74h255v-52h-255v52z" />
    <glyph glyph-name="Wgrave" unicode="&#x1e80;" horiz-adv-x="844" 
d="M175 15.5q-16 15.5 -22 49.5l-119 635h73l109 -604h1l176 567h31q18 0 29 -10.5t18 -32.5l156 -524h1l109 604h73l-119 -635q-6 -34 -22 -49.5t-44 -15.5h-30l-170 564h-1l-175 -564h-30q-28 0 -44 15.5zM291 933h82l83 -152h-66z" />
    <glyph glyph-name="wgrave" unicode="&#x1e81;" horiz-adv-x="723" 
d="M691 499l-108 -441q-8 -30 -22 -44t-38 -14h-34l-125 377l-129 -377h-34q-23 0 -38 14t-22 44l-109 441h76l93 -419l135 405h26q29 0 39 -32l122 -370l92 416h76zM231 732h82l83 -152h-66z" />
    <glyph glyph-name="Wacute" unicode="&#x1e82;" horiz-adv-x="844" 
d="M175 15.5q-16 15.5 -22 49.5l-119 635h73l109 -604h1l176 567h31q18 0 29 -10.5t18 -32.5l156 -524h1l109 604h73l-119 -635q-6 -34 -22 -49.5t-44 -15.5h-30l-170 564h-1l-175 -564h-30q-28 0 -44 15.5zM474 933h82l-99 -152h-66z" />
    <glyph glyph-name="wacute" unicode="&#x1e83;" horiz-adv-x="723" 
d="M691 499l-108 -441q-8 -30 -22 -44t-38 -14h-34l-125 377l-129 -377h-34q-23 0 -38 14t-22 44l-109 441h76l93 -419l135 405h26q29 0 39 -32l122 -370l92 416h76zM414 732h82l-99 -152h-66z" />
    <glyph glyph-name="Wdieresis" unicode="&#x1e84;" horiz-adv-x="844" 
d="M175 15.5q-16 15.5 -22 49.5l-119 635h73l109 -604h1l176 567h31q18 0 29 -10.5t18 -32.5l156 -524h1l109 604h73l-119 -635q-6 -34 -22 -49.5t-44 -15.5h-30l-170 564h-1l-175 -564h-30q-28 0 -44 15.5zM286.5 794.5q-13.5 13.5 -13.5 35.5t13.5 35.5t35.5 13.5
t35.5 -13.5t13.5 -35.5t-13.5 -35.5t-35.5 -13.5t-35.5 13.5zM485.5 794.5q-13.5 13.5 -13.5 35.5t13.5 35.5t35.5 13.5t35.5 -13.5t13.5 -35.5t-13.5 -35.5t-35.5 -13.5t-35.5 13.5z" />
    <glyph glyph-name="wdieresis" unicode="&#x1e85;" horiz-adv-x="723" 
d="M691 499l-108 -441q-8 -30 -22 -44t-38 -14h-34l-125 377l-129 -377h-34q-23 0 -38 14t-22 44l-109 441h76l93 -419l135 405h26q29 0 39 -32l122 -370l92 416h76zM226.5 593.5q-13.5 13.5 -13.5 35.5t13.5 35.5t35.5 13.5t35.5 -13.5t13.5 -35.5t-13.5 -35.5t-35.5 -13.5
t-35.5 13.5zM425.5 593.5q-13.5 13.5 -13.5 35.5t13.5 35.5t35.5 13.5t35.5 -13.5t13.5 -35.5t-13.5 -35.5t-35.5 -13.5t-35.5 13.5z" />
    <glyph glyph-name="uni1E8E" unicode="&#x1e8e;" horiz-adv-x="622" 
d="M274 269l-258 431h80l215 -364l215 364h80l-258 -431v-269h-74v269zM272 796q-15 15 -15 39t15 39t39 15t39 -15t15 -39t-15 -39t-39 -15t-39 15z" />
    <glyph glyph-name="uni1E8F" unicode="&#x1e8f;" horiz-adv-x="572" 
d="M128 -167.5q-43 35.5 -48 93.5h72q4 -30 27.5 -48.5t57.5 -18.5h78q52 0 80.5 34.5t28.5 96.5v92q-24 -36 -60.5 -59t-72.5 -23h-64q-70 0 -113.5 47t-43.5 123v329h72v-331q0 -47 23.5 -75.5t61.5 -28.5h62q46 0 85 37t50 93v305h72v-509q0 -91 -48 -142t-133 -51h-78
q-66 0 -109 35.5zM246 595q-15 15 -15 39t15 39t39 15t39 -15t15 -39t-15 -39t-39 -15t-39 15z" />
    <glyph glyph-name="uni1E92" unicode="&#x1e92;" horiz-adv-x="578" 
d="M40 33l396 604h-378v63h480v-33l-396 -604h386v-63h-488v33zM250 -164q-15 15 -15 39t15 39t39 15t39 -15t15 -39t-15 -39t-39 -15t-39 15z" />
    <glyph glyph-name="uni1E93" unicode="&#x1e93;" horiz-adv-x="472" 
d="M36 32l296 406h-284v61h388v-32l-296 -406h291v-61h-395v32zM199 -164q-15 15 -15 39t15 39t39 15t39 -15t15 -39t-15 -39t-39 -15t-39 15z" />
    <glyph glyph-name="uni1E97" unicode="&#x1e97;" horiz-adv-x="382" 
d="M158.5 34q-34.5 34 -34.5 112v289h-88v64h88v151h72v-151h130v-64h-130v-289q0 -44 17.5 -63t58.5 -19h54v-64h-54q-79 0 -113.5 34zM35.5 744.5q-13.5 13.5 -13.5 35.5t13.5 35.5t35.5 13.5t35.5 -13.5t13.5 -35.5t-13.5 -35.5t-35.5 -13.5t-35.5 13.5zM234.5 744.5
q-13.5 13.5 -13.5 35.5t13.5 35.5t35.5 13.5t35.5 -13.5t13.5 -35.5t-13.5 -35.5t-35.5 -13.5t-35.5 13.5z" />
    <glyph glyph-name="uni1E9E" unicode="&#x1e9e;" horiz-adv-x="653" 
d="M284 33.5q-44 41.5 -44 108.5h70q0 -39 24.5 -62.5t64.5 -23.5h50q41 0 65.5 30t24.5 80v30q0 47 -18 74t-59 41l-129 42v49l139 234h-195q-63 0 -98 -36t-35 -96v-504h-72v504q0 89 54.5 142.5t150.5 53.5h275v-59l-146 -246l96 -33q109 -38 109 -166v-30
q0 -79 -44.5 -126.5t-117.5 -47.5h-50q-71 0 -115 41.5z" />
    <glyph glyph-name="uni1EA0" unicode="&#x1ea0;" horiz-adv-x="647" 
d="M477 194h-307l-72 -194h-76l269 700h34q33 0 48 -40l154 -404h1v-2l97 -254h-76zM193 256h261l-130 348h-1zM285 -164q-15 15 -15 39t15 39t39 15t39 -15t15 -39t-15 -39t-39 -15t-39 15z" />
    <glyph glyph-name="uni1EA1" unicode="&#x1ea1;" horiz-adv-x="556" 
d="M103.5 30q-43.5 38 -43.5 102v32q0 63 45 101t119 38h64q33 0 68 -10t60 -27v83q0 42 -26 68.5t-69 26.5h-80q-43 0 -69 -20t-26 -53h-72q0 61 46 98.5t121 37.5h80q74 0 119.5 -43.5t45.5 -114.5v-349h-68v70q-23 -36 -60.5 -57t-77.5 -21h-60q-73 0 -116.5 38zM282 55
q47 0 84 29t50 77v37q-20 19 -55.5 30.5t-72.5 11.5h-64q-41 0 -66.5 -21t-25.5 -55v-32q0 -35 24 -56t64 -21h62zM248 -172q-15 15 -15 39t15 39t39 15t39 -15t15 -39t-15 -39t-39 -15t-39 15z" />
    <glyph glyph-name="uni1EA2" unicode="&#x1ea2;" horiz-adv-x="647" 
d="M477 194h-307l-72 -194h-76l269 700h34q33 0 48 -40l154 -404h1v-2l97 -254h-76zM193 256h261l-130 348h-1zM289 783q0 21 12.5 35t35.5 29q17 12 25.5 20t8.5 19v11q0 33 -36 33h-20q-42 0 -42 -42h-58q0 94 100 94h20q47 0 71.5 -21.5t24.5 -63.5v-11q0 -23 -13 -38
t-37 -32q-15 -10 -22.5 -17.5t-7.5 -15.5v-16h-62v16z" />
    <glyph glyph-name="uni1EA3" unicode="&#x1ea3;" horiz-adv-x="556" 
d="M103.5 30q-43.5 38 -43.5 102v32q0 63 45 101t119 38h64q33 0 68 -10t60 -27v83q0 42 -26 68.5t-69 26.5h-80q-43 0 -69 -20t-26 -53h-72q0 61 46 98.5t121 37.5h80q74 0 119.5 -43.5t45.5 -114.5v-349h-68v70q-23 -36 -60.5 -57t-77.5 -21h-60q-73 0 -116.5 38zM282 55
q47 0 84 29t50 77v37q-20 19 -55.5 30.5t-72.5 11.5h-64q-41 0 -66.5 -21t-25.5 -55v-32q0 -35 24 -56t64 -21h62zM248 582q0 21 12.5 35t35.5 29q17 12 25.5 20t8.5 19v11q0 33 -36 33h-20q-42 0 -42 -42h-58q0 94 100 94h20q47 0 71.5 -21.5t24.5 -63.5v-11q0 -23 -13 -38
t-37 -32q-15 -10 -22.5 -17.5t-7.5 -15.5v-16h-62v16z" />
    <glyph glyph-name="uni1EA4" unicode="&#x1ea4;" horiz-adv-x="647" 
d="M477 194h-307l-72 -194h-76l269 700h34q33 0 48 -40l154 -404h1v-2l97 -254h-76zM193 256h261l-130 348h-1zM496 1049h70l-76 -116h-58zM296 943h55l125 -162h-68l-84 112l-84 -112h-68z" />
    <glyph glyph-name="uni1EA5" unicode="&#x1ea5;" horiz-adv-x="556" 
d="M103.5 30q-43.5 38 -43.5 102v32q0 63 45 101t119 38h64q33 0 68 -10t60 -27v83q0 42 -26 68.5t-69 26.5h-80q-43 0 -69 -20t-26 -53h-72q0 61 46 98.5t121 37.5h80q74 0 119.5 -43.5t45.5 -114.5v-349h-68v70q-23 -36 -60.5 -57t-77.5 -21h-60q-73 0 -116.5 38zM282 55
q47 0 84 29t50 77v37q-20 19 -55.5 30.5t-72.5 11.5h-64q-41 0 -66.5 -21t-25.5 -55v-32q0 -35 24 -56t64 -21h62zM455 848h70l-76 -116h-58zM255 742h55l125 -162h-68l-84 112l-84 -112h-68z" />
    <glyph glyph-name="uni1EA6" unicode="&#x1ea6;" horiz-adv-x="647" 
d="M477 194h-307l-72 -194h-76l269 700h34q33 0 48 -40l154 -404h1v-2l97 -254h-76zM193 256h261l-130 348h-1zM382 1049h70l64 -116h-58zM296 943h55l125 -162h-68l-84 112l-84 -112h-68z" />
    <glyph glyph-name="uni1EA7" unicode="&#x1ea7;" horiz-adv-x="556" 
d="M103.5 30q-43.5 38 -43.5 102v32q0 63 45 101t119 38h64q33 0 68 -10t60 -27v83q0 42 -26 68.5t-69 26.5h-80q-43 0 -69 -20t-26 -53h-72q0 61 46 98.5t121 37.5h80q74 0 119.5 -43.5t45.5 -114.5v-349h-68v70q-23 -36 -60.5 -57t-77.5 -21h-60q-73 0 -116.5 38zM282 55
q47 0 84 29t50 77v37q-20 19 -55.5 30.5t-72.5 11.5h-64q-41 0 -66.5 -21t-25.5 -55v-32q0 -35 24 -56t64 -21h62zM341 848h70l64 -116h-58zM255 742h55l125 -162h-68l-84 112l-84 -112h-68z" />
    <glyph glyph-name="uni1EA8" unicode="&#x1ea8;" horiz-adv-x="647" 
d="M477 194h-307l-72 -194h-76l269 700h34q33 0 48 -40l154 -404h1v-2l97 -254h-76zM193 256h261l-130 348h-1zM435 931q0 17 10.5 28.5t29.5 23.5q14 10 21 16.5t7 15.5v9q0 13 -8 20t-22 7h-16q-35 0 -35 -34h-48q0 78 83 78h16q80 0 80 -71v-9q0 -19 -11.5 -32t-30.5 -25
q-12 -8 -18 -14t-6 -13v-8h-52v8zM296 943h55l125 -162h-68l-84 112l-84 -112h-68z" />
    <glyph glyph-name="uni1EA9" unicode="&#x1ea9;" horiz-adv-x="556" 
d="M103.5 30q-43.5 38 -43.5 102v32q0 63 45 101t119 38h64q33 0 68 -10t60 -27v83q0 42 -26 68.5t-69 26.5h-80q-43 0 -69 -20t-26 -53h-72q0 61 46 98.5t121 37.5h80q74 0 119.5 -43.5t45.5 -114.5v-349h-68v70q-23 -36 -60.5 -57t-77.5 -21h-60q-73 0 -116.5 38zM282 55
q47 0 84 29t50 77v37q-20 19 -55.5 30.5t-72.5 11.5h-64q-41 0 -66.5 -21t-25.5 -55v-32q0 -35 24 -56t64 -21h62zM394 730q0 17 10.5 28.5t29.5 23.5q14 10 21 16.5t7 15.5v9q0 13 -8 20t-22 7h-16q-35 0 -35 -34h-48q0 78 83 78h16q80 0 80 -71v-9q0 -19 -11.5 -32
t-30.5 -25q-12 -8 -18 -14t-6 -13v-8h-52v8zM255 742h55l125 -162h-68l-84 112l-84 -112h-68z" />
    <glyph glyph-name="uni1EAA" unicode="&#x1eaa;" horiz-adv-x="647" 
d="M477 194h-307l-72 -194h-76l269 700h34q33 0 48 -40l154 -404h1v-2l97 -254h-76zM193 256h261l-130 348h-1zM345 987q-14 9 -31 26q-13 13 -21 18.5t-17 5.5h-9q-13 0 -22 -12.5t-10 -32.5h-49q1 40 23.5 64.5t57.5 24.5h9q23 0 38.5 -10t31.5 -27q12 -12 18.5 -17
t14.5 -5h9q12 0 20.5 12.5t9.5 32.5h49q-1 -40 -23 -64.5t-56 -24.5h-9q-20 0 -34 9zM296 943h55l125 -162h-68l-84 112l-84 -112h-68z" />
    <glyph glyph-name="uni1EAB" unicode="&#x1eab;" horiz-adv-x="556" 
d="M103.5 30q-43.5 38 -43.5 102v32q0 63 45 101t119 38h64q33 0 68 -10t60 -27v83q0 42 -26 68.5t-69 26.5h-80q-43 0 -69 -20t-26 -53h-72q0 61 46 98.5t121 37.5h80q74 0 119.5 -43.5t45.5 -114.5v-349h-68v70q-23 -36 -60.5 -57t-77.5 -21h-60q-73 0 -116.5 38zM282 55
q47 0 84 29t50 77v37q-20 19 -55.5 30.5t-72.5 11.5h-64q-41 0 -66.5 -21t-25.5 -55v-32q0 -35 24 -56t64 -21h62zM304 786q-14 9 -31 26q-13 13 -21 18.5t-17 5.5h-9q-13 0 -22 -12.5t-10 -32.5h-49q1 40 23.5 64.5t57.5 24.5h9q23 0 38.5 -10t31.5 -27q12 -12 18.5 -17
t14.5 -5h9q12 0 20.5 12.5t9.5 32.5h49q-1 -40 -23 -64.5t-56 -24.5h-9q-20 0 -34 9zM255 742h55l125 -162h-68l-84 112l-84 -112h-68z" />
    <glyph glyph-name="uni1EAC" unicode="&#x1eac;" horiz-adv-x="647" 
d="M477 194h-307l-72 -194h-76l269 700h34q33 0 48 -40l154 -404h1v-2l97 -254h-76zM193 256h261l-130 348h-1zM285 -164q-15 15 -15 39t15 39t39 15t39 -15t15 -39t-15 -39t-39 -15t-39 15zM296 943h55l125 -162h-68l-84 112l-84 -112h-68z" />
    <glyph glyph-name="uni1EAD" unicode="&#x1ead;" horiz-adv-x="556" 
d="M103.5 30q-43.5 38 -43.5 102v32q0 63 45 101t119 38h64q33 0 68 -10t60 -27v83q0 42 -26 68.5t-69 26.5h-80q-43 0 -69 -20t-26 -53h-72q0 61 46 98.5t121 37.5h80q74 0 119.5 -43.5t45.5 -114.5v-349h-68v70q-23 -36 -60.5 -57t-77.5 -21h-60q-73 0 -116.5 38zM282 55
q47 0 84 29t50 77v37q-20 19 -55.5 30.5t-72.5 11.5h-64q-41 0 -66.5 -21t-25.5 -55v-32q0 -35 24 -56t64 -21h62zM248 -172q-15 15 -15 39t15 39t39 15t39 -15t15 -39t-15 -39t-39 -15t-39 15zM255 742h55l125 -162h-68l-84 112l-84 -112h-68z" />
    <glyph glyph-name="uni1EAE" unicode="&#x1eae;" horiz-adv-x="647" 
d="M477 194h-307l-72 -194h-76l269 700h34q33 0 48 -40l154 -404h1v-2l97 -254h-76zM193 256h261l-130 348h-1zM357 1078h70l-76 -116h-58zM217.5 809q-38.5 36 -38.5 95v8h58v-8q0 -37 22 -59t59 -22h12q37 0 59.5 22t22.5 59v8h57v-8q0 -59 -38.5 -95t-100.5 -36h-12
q-62 0 -100.5 36z" />
    <glyph glyph-name="uni1EAF" unicode="&#x1eaf;" horiz-adv-x="556" 
d="M103.5 30q-43.5 38 -43.5 102v32q0 63 45 101t119 38h64q33 0 68 -10t60 -27v83q0 42 -26 68.5t-69 26.5h-80q-43 0 -69 -20t-26 -53h-72q0 61 46 98.5t121 37.5h80q74 0 119.5 -43.5t45.5 -114.5v-349h-68v70q-23 -36 -60.5 -57t-77.5 -21h-60q-73 0 -116.5 38zM282 55
q47 0 84 29t50 77v37q-20 19 -55.5 30.5t-72.5 11.5h-64q-41 0 -66.5 -21t-25.5 -55v-32q0 -35 24 -56t64 -21h62zM316 877h70l-76 -116h-58zM176.5 608q-38.5 36 -38.5 95v8h58v-8q0 -37 22 -59t59 -22h12q37 0 59.5 22t22.5 59v8h57v-8q0 -59 -38.5 -95t-100.5 -36h-12
q-62 0 -100.5 36z" />
    <glyph glyph-name="uni1EB0" unicode="&#x1eb0;" horiz-adv-x="647" 
d="M477 194h-307l-72 -194h-76l269 700h34q33 0 48 -40l154 -404h1v-2l97 -254h-76zM193 256h261l-130 348h-1zM221 1078h70l64 -116h-58zM217.5 809q-38.5 36 -38.5 95v8h58v-8q0 -37 22 -59t59 -22h12q37 0 59.5 22t22.5 59v8h57v-8q0 -59 -38.5 -95t-100.5 -36h-12
q-62 0 -100.5 36z" />
    <glyph glyph-name="uni1EB1" unicode="&#x1eb1;" horiz-adv-x="556" 
d="M103.5 30q-43.5 38 -43.5 102v32q0 63 45 101t119 38h64q33 0 68 -10t60 -27v83q0 42 -26 68.5t-69 26.5h-80q-43 0 -69 -20t-26 -53h-72q0 61 46 98.5t121 37.5h80q74 0 119.5 -43.5t45.5 -114.5v-349h-68v70q-23 -36 -60.5 -57t-77.5 -21h-60q-73 0 -116.5 38zM282 55
q47 0 84 29t50 77v37q-20 19 -55.5 30.5t-72.5 11.5h-64q-41 0 -66.5 -21t-25.5 -55v-32q0 -35 24 -56t64 -21h62zM180 877h70l64 -116h-58zM176.5 608q-38.5 36 -38.5 95v8h58v-8q0 -37 22 -59t59 -22h12q37 0 59.5 22t22.5 59v8h57v-8q0 -59 -38.5 -95t-100.5 -36h-12
q-62 0 -100.5 36z" />
    <glyph glyph-name="uni1EB2" unicode="&#x1eb2;" horiz-adv-x="647" 
d="M477 194h-307l-72 -194h-76l269 700h34q33 0 48 -40l154 -404h1v-2l97 -254h-76zM193 256h261l-130 348h-1zM297 950q0 17 10.5 28.5t29.5 23.5q14 10 21 16.5t7 15.5v9q0 13 -8 20t-22 7h-16q-35 0 -35 -34h-48q0 78 83 78h16q80 0 80 -71v-9q0 -19 -11.5 -32t-30.5 -25
q-12 -8 -18 -14t-6 -13v-8h-52v8zM217.5 809q-38.5 36 -38.5 95v8h58v-8q0 -37 22 -59t59 -22h12q37 0 59.5 22t22.5 59v8h57v-8q0 -59 -38.5 -95t-100.5 -36h-12q-62 0 -100.5 36z" />
    <glyph glyph-name="uni1EB3" unicode="&#x1eb3;" horiz-adv-x="556" 
d="M103.5 30q-43.5 38 -43.5 102v32q0 63 45 101t119 38h64q33 0 68 -10t60 -27v83q0 42 -26 68.5t-69 26.5h-80q-43 0 -69 -20t-26 -53h-72q0 61 46 98.5t121 37.5h80q74 0 119.5 -43.5t45.5 -114.5v-349h-68v70q-23 -36 -60.5 -57t-77.5 -21h-60q-73 0 -116.5 38zM282 55
q47 0 84 29t50 77v37q-20 19 -55.5 30.5t-72.5 11.5h-64q-41 0 -66.5 -21t-25.5 -55v-32q0 -35 24 -56t64 -21h62zM256 749q0 17 10.5 28.5t29.5 23.5q14 10 21 16.5t7 15.5v9q0 13 -8 20t-22 7h-16q-35 0 -35 -34h-48q0 78 83 78h16q80 0 80 -71v-9q0 -19 -11.5 -32
t-30.5 -25q-12 -8 -18 -14t-6 -13v-8h-52v8zM176.5 608q-38.5 36 -38.5 95v8h58v-8q0 -37 22 -59t59 -22h12q37 0 59.5 22t22.5 59v8h57v-8q0 -59 -38.5 -95t-100.5 -36h-12q-62 0 -100.5 36z" />
    <glyph glyph-name="uni1EB4" unicode="&#x1eb4;" horiz-adv-x="647" 
d="M477 194h-307l-72 -194h-76l269 700h34q33 0 48 -40l154 -404h1v-2l97 -254h-76zM193 256h261l-130 348h-1zM345 963q-14 9 -31 26q-13 12 -21 18t-17 6h-9q-13 0 -22 -12.5t-10 -32.5h-49q1 40 23.5 64.5t57.5 24.5h9q23 0 38.5 -10t31.5 -27q12 -12 18.5 -17t14.5 -5h9
q12 0 20.5 12.5t9.5 32.5h49q-1 -40 -23 -64.5t-56 -24.5h-9q-20 0 -34 9zM217.5 809q-38.5 36 -38.5 95v8h58v-8q0 -37 22 -59t59 -22h12q37 0 59.5 22t22.5 59v8h57v-8q0 -59 -38.5 -95t-100.5 -36h-12q-62 0 -100.5 36z" />
    <glyph glyph-name="uni1EB5" unicode="&#x1eb5;" horiz-adv-x="556" 
d="M103.5 30q-43.5 38 -43.5 102v32q0 63 45 101t119 38h64q33 0 68 -10t60 -27v83q0 42 -26 68.5t-69 26.5h-80q-43 0 -69 -20t-26 -53h-72q0 61 46 98.5t121 37.5h80q74 0 119.5 -43.5t45.5 -114.5v-349h-68v70q-23 -36 -60.5 -57t-77.5 -21h-60q-73 0 -116.5 38zM282 55
q47 0 84 29t50 77v37q-20 19 -55.5 30.5t-72.5 11.5h-64q-41 0 -66.5 -21t-25.5 -55v-32q0 -35 24 -56t64 -21h62zM304 762q-14 9 -31 26q-13 12 -21 18t-17 6h-9q-13 0 -22 -12.5t-10 -32.5h-49q1 40 23.5 64.5t57.5 24.5h9q23 0 38.5 -10t31.5 -27q12 -12 18.5 -17
t14.5 -5h9q12 0 20.5 12.5t9.5 32.5h49q-1 -40 -23 -64.5t-56 -24.5h-9q-20 0 -34 9zM176.5 608q-38.5 36 -38.5 95v8h58v-8q0 -37 22 -59t59 -22h12q37 0 59.5 22t22.5 59v8h57v-8q0 -59 -38.5 -95t-100.5 -36h-12q-62 0 -100.5 36z" />
    <glyph glyph-name="uni1EB6" unicode="&#x1eb6;" horiz-adv-x="647" 
d="M477 194h-307l-72 -194h-76l269 700h34q33 0 48 -40l154 -404h1v-2l97 -254h-76zM193 256h261l-130 348h-1zM285 -164q-15 15 -15 39t15 39t39 15t39 -15t15 -39t-15 -39t-39 -15t-39 15zM217.5 809q-38.5 36 -38.5 95v8h58v-8q0 -37 22 -59t59 -22h12q37 0 59.5 22
t22.5 59v8h57v-8q0 -59 -38.5 -95t-100.5 -36h-12q-62 0 -100.5 36z" />
    <glyph glyph-name="uni1EB7" unicode="&#x1eb7;" horiz-adv-x="556" 
d="M103.5 30q-43.5 38 -43.5 102v32q0 63 45 101t119 38h64q33 0 68 -10t60 -27v83q0 42 -26 68.5t-69 26.5h-80q-43 0 -69 -20t-26 -53h-72q0 61 46 98.5t121 37.5h80q74 0 119.5 -43.5t45.5 -114.5v-349h-68v70q-23 -36 -60.5 -57t-77.5 -21h-60q-73 0 -116.5 38zM282 55
q47 0 84 29t50 77v37q-20 19 -55.5 30.5t-72.5 11.5h-64q-41 0 -66.5 -21t-25.5 -55v-32q0 -35 24 -56t64 -21h62zM248 -172q-15 15 -15 39t15 39t39 15t39 -15t15 -39t-15 -39t-39 -15t-39 15zM176.5 608q-38.5 36 -38.5 95v8h58v-8q0 -37 22 -59t59 -22h12q37 0 59.5 22
t22.5 59v8h57v-8q0 -59 -38.5 -95t-100.5 -36h-12q-62 0 -100.5 36z" />
    <glyph glyph-name="uni1EB8" unicode="&#x1eb8;" horiz-adv-x="600" 
d="M97 17.5q-17 17.5 -17 48.5v634h470v-64h-396v-246h366v-64h-366v-262h396v-64h-405q-31 0 -48 17.5zM284 -164q-15 15 -15 39t15 39t39 15t39 -15t15 -39t-15 -39t-39 -15t-39 15z" />
    <glyph glyph-name="uni1EB9" unicode="&#x1eb9;" horiz-adv-x="552" 
d="M107 41.5q-51 49.5 -51 131.5v143q0 86 51 138.5t135 52.5h82q80 0 129 -51t49 -135v-88h-374v-60q0 -52 31.5 -84.5t82.5 -32.5h76q50 0 81 27.5t31 73.5h70q0 -74 -50 -119.5t-132 -45.5h-76q-84 0 -135 49.5zM430 295v26q0 55 -29 88.5t-77 33.5h-82q-51 0 -82.5 -35
t-31.5 -92v-21h302zM246 -164q-15 15 -15 39t15 39t39 15t39 -15t15 -39t-15 -39t-39 -15t-39 15z" />
    <glyph glyph-name="uni1EBA" unicode="&#x1eba;" horiz-adv-x="600" 
d="M97 17.5q-17 17.5 -17 48.5v634h470v-64h-396v-246h366v-64h-366v-262h396v-64h-405q-31 0 -48 17.5zM283 783q0 21 12.5 35t35.5 29q17 12 25.5 20t8.5 19v11q0 33 -36 33h-20q-42 0 -42 -42h-58q0 94 100 94h20q47 0 71.5 -21.5t24.5 -63.5v-11q0 -23 -13 -38t-37 -32
q-15 -10 -22.5 -17.5t-7.5 -15.5v-16h-62v16z" />
    <glyph glyph-name="uni1EBB" unicode="&#x1ebb;" horiz-adv-x="552" 
d="M107 41.5q-51 49.5 -51 131.5v143q0 86 51 138.5t135 52.5h82q80 0 129 -51t49 -135v-88h-374v-60q0 -52 31.5 -84.5t82.5 -32.5h76q50 0 81 27.5t31 73.5h70q0 -74 -50 -119.5t-132 -45.5h-76q-84 0 -135 49.5zM430 295v26q0 55 -29 88.5t-77 33.5h-82q-51 0 -82.5 -35
t-31.5 -92v-21h302zM246 582q0 21 12.5 35t35.5 29q17 12 25.5 20t8.5 19v11q0 33 -36 33h-20q-42 0 -42 -42h-58q0 94 100 94h20q47 0 71.5 -21.5t24.5 -63.5v-11q0 -23 -13 -38t-37 -32q-15 -10 -22.5 -17.5t-7.5 -15.5v-16h-62v16z" />
    <glyph glyph-name="uni1EBC" unicode="&#x1ebc;" horiz-adv-x="600" 
d="M97 17.5q-17 17.5 -17 48.5v634h470v-64h-396v-246h366v-64h-366v-262h396v-64h-405q-31 0 -48 17.5zM338.5 783.5q-16.5 10.5 -34.5 29.5q-16 15 -24 21t-19 6h-10q-15 0 -26 -14t-12 -37h-56q1 45 27.5 73t66.5 28h10q25 0 42.5 -11t37.5 -31q12 -13 20 -19t17 -6h10
q14 0 24.5 14t11.5 37h56q-1 -45 -27 -73t-65 -28h-10q-23 0 -39.5 10.5z" />
    <glyph glyph-name="uni1EBD" unicode="&#x1ebd;" horiz-adv-x="552" 
d="M107 41.5q-51 49.5 -51 131.5v143q0 86 51 138.5t135 52.5h82q80 0 129 -51t49 -135v-88h-374v-60q0 -52 31.5 -84.5t82.5 -32.5h76q50 0 81 27.5t31 73.5h70q0 -74 -50 -119.5t-132 -45.5h-76q-84 0 -135 49.5zM430 295v26q0 55 -29 88.5t-77 33.5h-82q-51 0 -82.5 -35
t-31.5 -92v-21h302zM301.5 582.5q-16.5 10.5 -34.5 29.5q-16 15 -24 21t-19 6h-10q-15 0 -26 -14t-12 -37h-56q1 45 27.5 73t66.5 28h10q25 0 42.5 -11t37.5 -31q12 -13 20 -19t17 -6h10q14 0 24.5 14t11.5 37h56q-1 -45 -27 -73t-65 -28h-10q-23 0 -39.5 10.5z" />
    <glyph glyph-name="uni1EBE" unicode="&#x1ebe;" horiz-adv-x="600" 
d="M97 17.5q-17 17.5 -17 48.5v634h470v-64h-396v-246h366v-64h-366v-262h396v-64h-405q-31 0 -48 17.5zM490 1049h70l-76 -116h-58zM290 943h55l125 -162h-68l-84 112l-84 -112h-68z" />
    <glyph glyph-name="uni1EBF" unicode="&#x1ebf;" horiz-adv-x="552" 
d="M107 41.5q-51 49.5 -51 131.5v143q0 86 51 138.5t135 52.5h82q80 0 129 -51t49 -135v-88h-374v-60q0 -52 31.5 -84.5t82.5 -32.5h76q50 0 81 27.5t31 73.5h70q0 -74 -50 -119.5t-132 -45.5h-76q-84 0 -135 49.5zM430 295v26q0 55 -29 88.5t-77 33.5h-82q-51 0 -82.5 -35
t-31.5 -92v-21h302zM453 848h70l-76 -116h-58zM253 742h55l125 -162h-68l-84 112l-84 -112h-68z" />
    <glyph glyph-name="uni1EC0" unicode="&#x1ec0;" horiz-adv-x="600" 
d="M97 17.5q-17 17.5 -17 48.5v634h470v-64h-396v-246h366v-64h-366v-262h396v-64h-405q-31 0 -48 17.5zM376 1049h70l64 -116h-58zM290 943h55l125 -162h-68l-84 112l-84 -112h-68z" />
    <glyph glyph-name="uni1EC1" unicode="&#x1ec1;" horiz-adv-x="552" 
d="M107 41.5q-51 49.5 -51 131.5v143q0 86 51 138.5t135 52.5h82q80 0 129 -51t49 -135v-88h-374v-60q0 -52 31.5 -84.5t82.5 -32.5h76q50 0 81 27.5t31 73.5h70q0 -74 -50 -119.5t-132 -45.5h-76q-84 0 -135 49.5zM430 295v26q0 55 -29 88.5t-77 33.5h-82q-51 0 -82.5 -35
t-31.5 -92v-21h302zM339 848h70l64 -116h-58zM253 742h55l125 -162h-68l-84 112l-84 -112h-68z" />
    <glyph glyph-name="uni1EC2" unicode="&#x1ec2;" horiz-adv-x="600" 
d="M97 17.5q-17 17.5 -17 48.5v634h470v-64h-396v-246h366v-64h-366v-262h396v-64h-405q-31 0 -48 17.5zM429 931q0 17 10.5 28.5t29.5 23.5q14 10 21 16.5t7 15.5v9q0 13 -8 20t-22 7h-16q-35 0 -35 -34h-48q0 78 83 78h16q80 0 80 -71v-9q0 -19 -11.5 -32t-30.5 -25
q-12 -8 -18 -14t-6 -13v-8h-52v8zM290 943h55l125 -162h-68l-84 112l-84 -112h-68z" />
    <glyph glyph-name="uni1EC3" unicode="&#x1ec3;" horiz-adv-x="552" 
d="M107 41.5q-51 49.5 -51 131.5v143q0 86 51 138.5t135 52.5h82q80 0 129 -51t49 -135v-88h-374v-60q0 -52 31.5 -84.5t82.5 -32.5h76q50 0 81 27.5t31 73.5h70q0 -74 -50 -119.5t-132 -45.5h-76q-84 0 -135 49.5zM430 295v26q0 55 -29 88.5t-77 33.5h-82q-51 0 -82.5 -35
t-31.5 -92v-21h302zM392 730q0 17 10.5 28.5t29.5 23.5q14 10 21 16.5t7 15.5v9q0 13 -8 20t-22 7h-16q-35 0 -35 -34h-48q0 78 83 78h16q80 0 80 -71v-9q0 -19 -11.5 -32t-30.5 -25q-12 -8 -18 -14t-6 -13v-8h-52v8zM253 742h55l125 -162h-68l-84 112l-84 -112h-68z" />
    <glyph glyph-name="uni1EC4" unicode="&#x1ec4;" horiz-adv-x="600" 
d="M97 17.5q-17 17.5 -17 48.5v634h470v-64h-396v-246h366v-64h-366v-262h396v-64h-405q-31 0 -48 17.5zM339 987q-14 9 -31 26q-13 13 -21 18.5t-17 5.5h-9q-13 0 -22 -12.5t-10 -32.5h-49q1 40 23.5 64.5t57.5 24.5h9q23 0 38.5 -10t31.5 -27q12 -12 18.5 -17t14.5 -5h9
q12 0 20.5 12.5t9.5 32.5h49q-1 -40 -23 -64.5t-56 -24.5h-9q-20 0 -34 9zM290 943h55l125 -162h-68l-84 112l-84 -112h-68z" />
    <glyph glyph-name="uni1EC5" unicode="&#x1ec5;" horiz-adv-x="552" 
d="M107 41.5q-51 49.5 -51 131.5v143q0 86 51 138.5t135 52.5h82q80 0 129 -51t49 -135v-88h-374v-60q0 -52 31.5 -84.5t82.5 -32.5h76q50 0 81 27.5t31 73.5h70q0 -74 -50 -119.5t-132 -45.5h-76q-84 0 -135 49.5zM430 295v26q0 55 -29 88.5t-77 33.5h-82q-51 0 -82.5 -35
t-31.5 -92v-21h302zM302 786q-14 9 -31 26q-13 13 -21 18.5t-17 5.5h-9q-13 0 -22 -12.5t-10 -32.5h-49q1 40 23.5 64.5t57.5 24.5h9q23 0 38.5 -10t31.5 -27q12 -12 18.5 -17t14.5 -5h9q12 0 20.5 12.5t9.5 32.5h49q-1 -40 -23 -64.5t-56 -24.5h-9q-20 0 -34 9zM253 742h55
l125 -162h-68l-84 112l-84 -112h-68z" />
    <glyph glyph-name="uni1EC6" unicode="&#x1ec6;" horiz-adv-x="600" 
d="M97 17.5q-17 17.5 -17 48.5v634h470v-64h-396v-246h366v-64h-366v-262h396v-64h-405q-31 0 -48 17.5zM284 -164q-15 15 -15 39t15 39t39 15t39 -15t15 -39t-15 -39t-39 -15t-39 15zM290 943h55l125 -162h-68l-84 112l-84 -112h-68z" />
    <glyph glyph-name="uni1EC7" unicode="&#x1ec7;" horiz-adv-x="552" 
d="M107 41.5q-51 49.5 -51 131.5v143q0 86 51 138.5t135 52.5h82q80 0 129 -51t49 -135v-88h-374v-60q0 -52 31.5 -84.5t82.5 -32.5h76q50 0 81 27.5t31 73.5h70q0 -74 -50 -119.5t-132 -45.5h-76q-84 0 -135 49.5zM430 295v26q0 55 -29 88.5t-77 33.5h-82q-51 0 -82.5 -35
t-31.5 -92v-21h302zM246 -164q-15 15 -15 39t15 39t39 15t39 -15t15 -39t-15 -39t-39 -15t-39 15zM253 742h55l125 -162h-68l-84 112l-84 -112h-68z" />
    <glyph glyph-name="uni1EC8" unicode="&#x1ec8;" horiz-adv-x="254" 
d="M90 700h74v-700h-74v700zM92 783q0 21 12.5 35t35.5 29q17 12 25.5 20t8.5 19v11q0 33 -36 33h-20q-42 0 -42 -42h-58q0 94 100 94h20q47 0 71.5 -21.5t24.5 -63.5v-11q0 -23 -13 -38t-37 -32q-15 -10 -22.5 -17.5t-7.5 -15.5v-16h-62v16z" />
    <glyph glyph-name="uni1EC9" unicode="&#x1ec9;" horiz-adv-x="236" 
d="M82 499h72v-499h-72v499zM87 582q0 21 12.5 35t35.5 29q17 12 25.5 20t8.5 19v11q0 33 -36 33h-20q-42 0 -42 -42h-58q0 94 100 94h20q47 0 71.5 -21.5t24.5 -63.5v-11q0 -23 -13 -38t-37 -32q-15 -10 -22.5 -17.5t-7.5 -15.5v-16h-62v16z" />
    <glyph glyph-name="uni1ECA" unicode="&#x1eca;" horiz-adv-x="254" 
d="M90 700h74v-700h-74v700zM88 -164q-15 15 -15 39t15 39t39 15t39 -15t15 -39t-15 -39t-39 -15t-39 15z" />
    <glyph glyph-name="uni1ECB" unicode="&#x1ecb;" horiz-adv-x="260" 
d="M91 589q-15 15 -15 39t15 39t39 15t39 -15t15 -39t-15 -39t-39 -15t-39 15zM94 499h72v-499h-72v499zM91 -164q-15 15 -15 39t15 39t39 15t39 -15t15 -39t-15 -39t-39 -15t-39 15z" />
    <glyph glyph-name="uni1ECC" unicode="&#x1ecc;" horiz-adv-x="696" 
d="M172 23q-53 31 -82.5 88t-29.5 132v214q0 75 29.5 132t82.5 88t123 31h106q70 0 123 -31t82.5 -88t29.5 -132v-214q0 -75 -29.5 -131.5t-83 -88t-122.5 -31.5h-107q-69 0 -122 31zM399 58q73 0 118 51t45 134v214q0 83 -45 134t-118 51h-102q-73 0 -118 -51t-45 -134
v-214q0 -83 44.5 -134t117.5 -51h103zM309 -164q-15 15 -15 39t15 39t39 15t39 -15t15 -39t-15 -39t-39 -15t-39 15z" />
    <glyph glyph-name="uni1ECD" unicode="&#x1ecd;" horiz-adv-x="570" 
d="M107 44q-51 52 -51 137v137q0 85 51.5 137t136.5 52h82q85 0 136.5 -52t51.5 -137v-137q0 -85 -52 -137t-138 -52h-82q-84 0 -135 52zM324 56q54 0 86 34.5t32 90.5v137q0 56 -32 90.5t-84 34.5h-82q-52 0 -84 -34.5t-32 -90.5v-137q0 -57 31 -91t83 -34h82zM246 -164
q-15 15 -15 39t15 39t39 15t39 -15t15 -39t-15 -39t-39 -15t-39 15z" />
    <glyph glyph-name="uni1ECE" unicode="&#x1ece;" horiz-adv-x="696" 
d="M172 23q-53 31 -82.5 88t-29.5 132v214q0 75 29.5 132t82.5 88t123 31h106q70 0 123 -31t82.5 -88t29.5 -132v-214q0 -75 -29.5 -131.5t-83 -88t-122.5 -31.5h-107q-69 0 -122 31zM399 58q73 0 118 51t45 134v214q0 83 -45 134t-118 51h-102q-73 0 -118 -51t-45 -134
v-214q0 -83 44.5 -134t117.5 -51h103zM313 783q0 21 12.5 35t35.5 29q17 12 25.5 20t8.5 19v11q0 33 -36 33h-20q-42 0 -42 -42h-58q0 94 100 94h20q47 0 71.5 -21.5t24.5 -63.5v-11q0 -23 -13 -38t-37 -32q-15 -10 -22.5 -17.5t-7.5 -15.5v-16h-62v16z" />
    <glyph glyph-name="uni1ECF" unicode="&#x1ecf;" horiz-adv-x="570" 
d="M107 44q-51 52 -51 137v137q0 85 51.5 137t136.5 52h82q85 0 136.5 -52t51.5 -137v-137q0 -85 -52 -137t-138 -52h-82q-84 0 -135 52zM324 56q54 0 86 34.5t32 90.5v137q0 56 -32 90.5t-84 34.5h-82q-52 0 -84 -34.5t-32 -90.5v-137q0 -57 31 -91t83 -34h82zM250 582
q0 21 12.5 35t35.5 29q17 12 25.5 20t8.5 19v11q0 33 -36 33h-20q-42 0 -42 -42h-58q0 94 100 94h20q47 0 71.5 -21.5t24.5 -63.5v-11q0 -23 -13 -38t-37 -32q-15 -10 -22.5 -17.5t-7.5 -15.5v-16h-62v16z" />
    <glyph glyph-name="uni1ED0" unicode="&#x1ed0;" horiz-adv-x="696" 
d="M172 23q-53 31 -82.5 88t-29.5 132v214q0 75 29.5 132t82.5 88t123 31h106q70 0 123 -31t82.5 -88t29.5 -132v-214q0 -75 -29.5 -131.5t-83 -88t-122.5 -31.5h-107q-69 0 -122 31zM399 58q73 0 118 51t45 134v214q0 83 -45 134t-118 51h-102q-73 0 -118 -51t-45 -134
v-214q0 -83 44.5 -134t117.5 -51h103zM520 1049h70l-76 -116h-58zM320 943h55l125 -162h-68l-84 112l-84 -112h-68z" />
    <glyph glyph-name="uni1ED1" unicode="&#x1ed1;" horiz-adv-x="570" 
d="M107 44q-51 52 -51 137v137q0 85 51.5 137t136.5 52h82q85 0 136.5 -52t51.5 -137v-137q0 -85 -52 -137t-138 -52h-82q-84 0 -135 52zM324 56q54 0 86 34.5t32 90.5v137q0 56 -32 90.5t-84 34.5h-82q-52 0 -84 -34.5t-32 -90.5v-137q0 -57 31 -91t83 -34h82zM457 848h70
l-76 -116h-58zM257 742h55l125 -162h-68l-84 112l-84 -112h-68z" />
    </font>
</defs>
</svg>
