<svg xmlns="http://www.w3.org/2000/svg" xml:space="preserve" fill-rule="evenodd" stroke-linejoin="round" stroke-miterlimit="2" clip-rule="evenodd" viewBox="0 0 37 37">
  <path fill="#888288" fill-rule="nonzero" d="M32.9 30.78c0 1.17-.95 2.12-2.12 2.12H5.9a2.12 2.12 0 0 1-2.12-2.12V5.9c0-1.17.95-2.12 2.12-2.12h24.88c1.17 0 2.12.95 2.12 2.12v24.88ZM31.87 0H4.82A4.82 4.82 0 0 0 0 4.82v27.05a4.82 4.82 0 0 0 4.82 4.81h27.05a4.82 4.82 0 0 0 4.82-4.81V4.82A4.82 4.82 0 0 0 31.87 0"/>
  <path fill="#888288" fill-rule="nonzero" d="M23.89 12.8a7.82 7.82 0 0 0-11.1 0 7.82 7.82 0 0 0 0 11.09 7.82 7.82 0 0 0 11.1 0 7.81 7.81 0 0 0 0-11.1m-4.2 5.13a1.67 1.67 0 0 0-.24-.39 31.35 31.35 0 0 0 3.25-4.73l-.72-.55a27.02 27.02 0 0 0-3.43 4.76 1.57 1.57 0 1 0 .62 2.82c1.17.55 2.43.95 3.8 1.18.1-.32.23-.65.34-.97a15.7 15.7 0 0 0-3.48-1.43c0-.23-.03-.46-.13-.69M18.34 7.6A10.72 10.72 0 0 1 29.1 18.34 10.72 10.72 0 0 1 18.34 29.1 10.71 10.71 0 0 1 7.6 18.34 10.72 10.72 0 0 1 18.34 7.6"/>
</svg>
