<svg xmlns="http://www.w3.org/2000/svg" xml:space="preserve" fill-rule="evenodd" stroke-linejoin="round" stroke-miterlimit="2" clip-rule="evenodd" viewBox="0 0 37 37">
  <path fill="#888288" fill-rule="nonzero" d="M32.98 30.85c0 1.18-.95 2.13-2.13 2.13H5.91a2.13 2.13 0 0 1-2.12-2.13V5.91c0-1.17.95-2.12 2.12-2.12h24.94c1.18 0 2.13.95 2.13 2.12v24.94ZM31.94 0H4.83A4.83 4.83 0 0 0 0 4.83v27.11a4.83 4.83 0 0 0 4.83 4.83h27.11a4.83 4.83 0 0 0 4.83-4.83V4.83A4.83 4.83 0 0 0 31.94 0"/>
  <path fill="#888288" fill-rule="nonzero" d="m13.59 15.67 1.13-.92c.61-.5.7-1.27.2-2.04L13 9.47a1.46 1.46 0 0 0-2.04-.22l-1.5 1.23c-2.38 2.08-.73 7.38 3.28 12.3 4 4.94 8.86 7.63 11.38 5.72l1.5-1.22c.63-.5.72-1.42.22-2.04l-2.74-2.53c-.7-.64-1.42-.72-2.04-.21l-1.13.91c-1.4 1.14-3.07-.26-4.89-2.5-1.82-2.23-2.84-4.1-1.44-5.24"/>
  <path fill="#888288" fill-rule="nonzero" d="M21.6 17.54a1.4 1.4 0 1 1-1.98-1.98 1.4 1.4 0 0 1 1.98 1.98"/>
  <path fill="#888288" fill-rule="nonzero" d="M18.2 13.2c.24.24.6.32.9.2a3.6 3.6 0 0 1 4.67 4.67.85.85 0 0 0 1.58.62 5.3 5.3 0 0 0-6.87-6.87.85.85 0 0 0-.28 1.38"/>
  <path fill="#888288" fill-rule="nonzero" d="M18.68 9.65c.36.36.87.52 1.29.4 1.75-.56 3.94.01 5.55 1.62 1.61 1.61 2.19 3.8 1.63 5.55-.13.42.03.93.4 1.3.65.66 1.67.55 1.91-.22.8-2.58-.04-5.8-2.4-8.16-2.37-2.37-5.59-3.22-8.17-2.4-.77.23-.88 1.25-.22 1.91Z"/>
</svg>
