<svg xmlns="http://www.w3.org/2000/svg" xml:space="preserve" fill-rule="evenodd" stroke-linejoin="round" stroke-miterlimit="2" clip-rule="evenodd" viewBox="0 0 18 28">
  <path fill="#860246" fill-rule="nonzero" d="M10.18 24.07a3.2 3.2 0 0 0 2.55-1.14c.64-.77.97-1.77.97-3v-4.59c0-1.23-.33-2.23-.97-3a3.18 3.18 0 0 0-2.55-1.14h-2.9a3.2 3.2 0 0 0-2.55 1.14 4.49 4.49 0 0 0-.97 3v4.59c0 1.23.33 2.23.97 3a3.2 3.2 0 0 0 2.55 1.14h2.9Zm-6.7 2.42A6.44 6.44 0 0 1 .9 23.92 7.78 7.78 0 0 1 0 20.1v-4.91c0-1.46.3-2.73.91-3.83a6.44 6.44 0 0 1 2.57-2.57c1.1-.6 2.37-.91 3.8-.91h2.9c1.43 0 2.7.3 3.8.91a6.45 6.45 0 0 1 2.57 2.57c.6 1.1.91 2.37.91 3.83v4.91c0 1.46-.3 2.73-.91 3.83a6.45 6.45 0 0 1-2.57 2.57c-1.1.6-2.37.91-3.8.91h-2.9c-1.43 0-2.7-.3-3.8-.91m8.54-21.6c-.22.39-.51.69-.9.9-.39.22-.83.32-1.34.32H8.04c-.5 0-.95-.1-1.34-.32a2.25 2.25 0 0 1-.9-.9 2.7 2.7 0 0 1-.32-1.33V2.55c0-.5.1-.94.32-1.33.21-.39.51-.69.9-.9C7.1.11 7.54 0 8.05 0h1.73c.5 0 .95.1 1.34.32.39.21.68.51.9.9.21.39.32.83.32 1.33v1.02c0 .5-.1.95-.32 1.33"/>
</svg>
