<svg xmlns="http://www.w3.org/2000/svg" xml:space="preserve" fill-rule="evenodd" stroke-linejoin="round" stroke-miterlimit="2" clip-rule="evenodd" viewBox="0 0 162 25">
  <path fill="#fff" fill-rule="nonzero" d="M31.4 16.08c.58 0 1.05-.18 1.4-.55a2 2 0 0 0 .55-1.46v-1.99a1.9 1.9 0 0 0-.48-1.36c-.32-.34-.74-.5-1.27-.5H26v5.86h5.42Zm-8.8-8.8h9.05c1 0 1.88.18 2.65.57.77.38 1.37.93 1.8 1.64.42.71.63 1.53.63 2.44v2.28a4.47 4.47 0 0 1-2.52 4.2c-.79.41-1.7.61-2.75.61h-5.48v5.43H22.6V7.27Zm24.61 2.93h-5.45V7.28h14.28v2.95H50.6v14.23h-3.4V10.2Zm17.93 7.39h4.62l-2.28-6.18h-.03l-2.3 6.18Zm5.53 2.85h-6.43l-1.52 4h-3.54l6.73-17.18h1.52c1.06 0 1.78.5 2.16 1.47l6.1 15.7h-3.53l-1.5-4Zm18.08 1c1.04 0 1.84-.3 2.38-.9.54-.61.8-1.5.8-2.68v-4.51c0-.94-.3-1.69-.9-2.25-.6-.56-1.4-.85-2.38-.85h-4.71v11.2h4.8Zm-7.54 2.36a2.21 2.21 0 0 1-.66-1.67V7.27h8.2c1.3 0 2.45.25 3.44.74a5.49 5.49 0 0 1 3.13 5.2V18c0 2.12-.55 3.72-1.64 4.8-1.1 1.1-2.7 1.64-4.84 1.64h-5.9c-.71 0-1.28-.22-1.73-.64M9.15 21.65c.95 0 1.71-.34 2.3-1.03.58-.69.87-1.59.87-2.7V13.8c0-1.12-.3-2.02-.87-2.7a2.86 2.86 0 0 0-2.3-1.03h-2.6c-.95 0-1.71.34-2.3 1.03a4.04 4.04 0 0 0-.86 2.7v4.12c0 1.11.29 2.01.87 2.7a2.86 2.86 0 0 0 2.3 1.03h2.6Zm-6.02 2.17a5.79 5.79 0 0 1-2.3-2.3A7 7 0 0 1 0 18.06v-4.42a7 7 0 0 1 .82-3.45 5.8 5.8 0 0 1 2.3-2.3 6.96 6.96 0 0 1 3.43-.83h2.6c1.3 0 2.43.28 3.42.83a5.8 5.8 0 0 1 2.31 2.3 7 7 0 0 1 .82 3.45v4.42a7 7 0 0 1-.82 3.44 5.79 5.79 0 0 1-2.3 2.31c-1 .55-2.14.82-3.43.82h-2.6a6.9 6.9 0 0 1-3.42-.82M10.8 4.4c-.18.35-.45.63-.8.82-.35.19-.75.29-1.2.29H7.23c-.46 0-.86-.1-1.2-.3a1.9 1.9 0 0 1-.81-.8c-.2-.35-.3-.75-.3-1.2V2.3c0-.46.1-.86.3-1.2.19-.35.46-.62.8-.81.35-.2.75-.29 1.21-.29H8.8c.46 0 .86.1 1.2.29.36.19.63.46.82.8.19.35.29.75.29 1.2v.92c0 .45-.1.85-.3 1.2M102.9 23.8a2.2 2.2 0 0 1-.66-1.66V7.27h13.1v2.95h-9.71v3.97h8.98v2.94h-8.98v4.37h9.71v2.95h-10.72c-.7 0-1.27-.22-1.72-.64m28.3-8.44a2.3 2.3 0 0 0 1.61-.55c.4-.37.59-.85.59-1.44v-1.6c0-.47-.15-.85-.44-1.13-.3-.3-.69-.44-1.18-.44h-5.7v5.16h5.11Zm-8.5-8.1h9.13c1.49 0 2.69.4 3.6 1.2.9.8 1.36 1.86 1.36 3.17v1.72a3.5 3.5 0 0 1-.73 2.22 4.43 4.43 0 0 1-2.1 1.43v.05c.53.34.92.74 1.2 1.18.26.44.53 1.05.8 1.84l1.37 4.37h-3.51l-1.3-4.08a3.51 3.51 0 0 0-.89-1.57 2 2 0 0 0-1.4-.51h-4.14v6.16h-3.39V7.27Zm21.24 0h3.02l5.62 10.2 5.5-10.2h3.01v17.18h-3.3V13.58l-3.61 6.52c-.25.45-.5.76-.75.95-.26.19-.55.28-.87.28h-.94l-4.36-7.75v10.87h-3.32V7.27Z"/>
</svg>
